<mxfile host="app.diagrams.net" agent="Mozilla/5.0 (Windows NT 10.0; Win64; x64) AppleWebKit/537.36 (KHTML, like Gecko) Chrome/137.0.0.0 Safari/537.36" version="27.1.6" pages="5">
  <diagram name="Page-1" id="c4acf3e9-155e-7222-9cf6-157b1a14988f">
    <mxGraphModel dx="3072" dy="1886" grid="1" gridSize="10" guides="1" tooltips="1" connect="1" arrows="1" fold="1" page="1" pageScale="1" pageWidth="850" pageHeight="1100" background="none" math="0" shadow="0">
      <root>
        <mxCell id="0" />
        <mxCell id="1" parent="0" />
        <mxCell id="Qoh2Zzb7UQpSRweOdzUY-15" value="&lt;p style=&quot;margin:0px;margin-top:4px;text-align:center;&quot;&gt;&lt;b&gt;ConfigureHostBuilder&lt;br&gt;&lt;/b&gt;&lt;/p&gt;&lt;hr size=&quot;1&quot; style=&quot;border-style:solid;&quot;&gt;&lt;div style=&quot;height:2px;&quot;&gt;&lt;/div&gt;" style="verticalAlign=top;align=left;overflow=fill;html=1;whiteSpace=wrap;" parent="1" vertex="1">
          <mxGeometry x="1210" y="320" width="150" height="60" as="geometry" />
        </mxCell>
        <mxCell id="Qoh2Zzb7UQpSRweOdzUY-16" value="" style="endArrow=block;dashed=1;endFill=0;endSize=12;html=1;rounded=0;entryX=0.5;entryY=1;entryDx=0;entryDy=0;" parent="1" source="Qoh2Zzb7UQpSRweOdzUY-15" target="Qoh2Zzb7UQpSRweOdzUY-19" edge="1">
          <mxGeometry width="160" relative="1" as="geometry">
            <mxPoint x="830" y="540" as="sourcePoint" />
            <mxPoint x="1065" y="210" as="targetPoint" />
          </mxGeometry>
        </mxCell>
        <mxCell id="Qoh2Zzb7UQpSRweOdzUY-18" value="" style="endArrow=block;dashed=1;endFill=0;endSize=12;html=1;rounded=0;exitX=0.5;exitY=0;exitDx=0;exitDy=0;entryX=0;entryY=1;entryDx=0;entryDy=0;" parent="1" source="et9EJRdBoTX8wLfNxFND-4" target="Qoh2Zzb7UQpSRweOdzUY-19" edge="1">
          <mxGeometry width="160" relative="1" as="geometry">
            <mxPoint x="932.5" y="320" as="sourcePoint" />
            <mxPoint x="1065" y="210" as="targetPoint" />
          </mxGeometry>
        </mxCell>
        <mxCell id="Qoh2Zzb7UQpSRweOdzUY-19" value="&lt;p style=&quot;margin:0px;margin-top:4px;text-align:center;&quot;&gt;&lt;i&gt;&amp;lt;&amp;lt;Interface&amp;gt;&amp;gt;&lt;/i&gt;&lt;br&gt;&lt;b&gt;IHostBuilder&lt;/b&gt;&lt;br&gt;&lt;/p&gt;&lt;hr size=&quot;1&quot; style=&quot;border-style:solid;&quot;&gt;&lt;p style=&quot;margin:0px;margin-left:4px;&quot;&gt;&amp;nbsp;Properties&lt;br&gt;&lt;/p&gt;&lt;hr size=&quot;1&quot; style=&quot;border-style:solid;&quot;&gt;&lt;p style=&quot;margin:0px;margin-left:4px;&quot;&gt;ConfigureHostConfiguration&lt;br&gt;ConfigureAppConfiguration&lt;br&gt;&lt;/p&gt;&lt;p style=&quot;margin:0px;margin-left:4px;&quot;&gt;ConfigureServices&lt;br&gt;&lt;/p&gt;&lt;p style=&quot;margin:0px;margin-left:4px;&quot;&gt;UseServiceProviderFactory&lt;br&gt;&lt;/p&gt;&lt;p style=&quot;margin:0px;margin-left:4px;&quot;&gt;ConfigureContainer&lt;br&gt;&lt;/p&gt;&lt;p style=&quot;margin:0px;margin-left:4px;&quot;&gt;Build&lt;br&gt;&lt;/p&gt;" style="verticalAlign=top;align=left;overflow=fill;html=1;whiteSpace=wrap;" parent="1" vertex="1">
          <mxGeometry x="960" width="170" height="160" as="geometry" />
        </mxCell>
        <mxCell id="Qoh2Zzb7UQpSRweOdzUY-25" value="&lt;p style=&quot;margin:0px;margin-top:4px;text-align:center;&quot;&gt;&lt;i&gt;&amp;lt;&amp;lt;Interface&amp;gt;&amp;gt;&lt;/i&gt;&lt;br&gt;&lt;b&gt;ISupportsConfigureWebHost&lt;/b&gt;&lt;/p&gt;&lt;hr size=&quot;1&quot; style=&quot;border-style:solid;&quot;&gt;&lt;p style=&quot;margin:0px;margin-left:4px;&quot;&gt;ConfigureWebHost&lt;br&gt;&lt;/p&gt;" style="verticalAlign=top;align=left;overflow=fill;html=1;whiteSpace=wrap;" parent="1" vertex="1">
          <mxGeometry x="1220" y="90" width="180" height="70" as="geometry" />
        </mxCell>
        <mxCell id="Qoh2Zzb7UQpSRweOdzUY-26" value="" style="endArrow=block;dashed=1;endFill=0;endSize=12;html=1;rounded=0;entryX=0.5;entryY=1;entryDx=0;entryDy=0;exitX=0.5;exitY=0;exitDx=0;exitDy=0;" parent="1" source="Qoh2Zzb7UQpSRweOdzUY-15" target="Qoh2Zzb7UQpSRweOdzUY-25" edge="1">
          <mxGeometry width="160" relative="1" as="geometry">
            <mxPoint x="1095" y="330" as="sourcePoint" />
            <mxPoint x="1095" y="210" as="targetPoint" />
          </mxGeometry>
        </mxCell>
        <mxCell id="Qoh2Zzb7UQpSRweOdzUY-29" value="&lt;p style=&quot;margin:0px;margin-top:4px;text-align:center;&quot;&gt;&lt;b&gt;ConfigureWebHostBuilder&lt;/b&gt;&lt;br&gt;&lt;/p&gt;&lt;hr size=&quot;1&quot; style=&quot;border-style:solid;&quot;&gt;&lt;div style=&quot;height:2px;&quot;&gt;&lt;/div&gt;" style="verticalAlign=top;align=left;overflow=fill;html=1;whiteSpace=wrap;" parent="1" vertex="1">
          <mxGeometry x="1430" y="310" width="170" height="60" as="geometry" />
        </mxCell>
        <mxCell id="Qoh2Zzb7UQpSRweOdzUY-30" value="&lt;p style=&quot;margin:0px;margin-top:4px;text-align:center;&quot;&gt;&lt;i&gt;&amp;lt;&amp;lt;Interface&amp;gt;&amp;gt;&lt;/i&gt;&lt;br&gt;&lt;b&gt;IWebHostBuilder&lt;/b&gt;&lt;/p&gt;&lt;hr size=&quot;1&quot; style=&quot;border-style:solid;&quot;&gt;&lt;p style=&quot;margin:0px;margin-left:4px;&quot;&gt;Build&lt;br&gt;&lt;/p&gt;&lt;p style=&quot;margin:0px;margin-left:4px;&quot;&gt;ConfigureAppConfiguration&lt;br&gt;&lt;/p&gt;&lt;p style=&quot;margin:0px;margin-left:4px;&quot;&gt;ConfigureServices&lt;br&gt;&lt;/p&gt;&lt;p style=&quot;margin:0px;margin-left:4px;&quot;&gt;GetSetting&lt;br&gt;&lt;/p&gt;&lt;p style=&quot;margin:0px;margin-left:4px;&quot;&gt;UseSetting&lt;br&gt;&lt;/p&gt;" style="verticalAlign=top;align=left;overflow=fill;html=1;whiteSpace=wrap;" parent="1" vertex="1">
          <mxGeometry x="1430" y="80" width="160" height="120" as="geometry" />
        </mxCell>
        <mxCell id="Qoh2Zzb7UQpSRweOdzUY-31" value="" style="endArrow=block;dashed=1;endFill=0;endSize=12;html=1;rounded=0;entryX=0.5;entryY=1;entryDx=0;entryDy=0;exitX=0.5;exitY=0;exitDx=0;exitDy=0;" parent="1" source="Qoh2Zzb7UQpSRweOdzUY-29" target="Qoh2Zzb7UQpSRweOdzUY-30" edge="1">
          <mxGeometry width="160" relative="1" as="geometry">
            <mxPoint x="1190" y="420" as="sourcePoint" />
            <mxPoint x="1385" y="300" as="targetPoint" />
          </mxGeometry>
        </mxCell>
        <mxCell id="Qoh2Zzb7UQpSRweOdzUY-33" value="&lt;p style=&quot;margin:0px;margin-top:4px;text-align:center;&quot;&gt;&lt;i&gt;&amp;lt;&amp;lt;Interface&amp;gt;&amp;gt;&lt;/i&gt;&lt;br&gt;&lt;b&gt;IHost&lt;/b&gt;&lt;/p&gt;&lt;hr size=&quot;1&quot; style=&quot;border-style:solid;&quot;&gt;&lt;p style=&quot;margin:0px;margin-left:4px;&quot;&gt;Services&lt;br&gt;&lt;/p&gt;&lt;p style=&quot;margin:0px;margin-left:4px;&quot;&gt;&lt;br&gt;&lt;/p&gt;&lt;p style=&quot;margin:0px;margin-left:4px;&quot;&gt;StartAsync&lt;br&gt;&lt;/p&gt;&lt;p style=&quot;margin:0px;margin-left:4px;&quot;&gt;StopAsync&lt;br&gt;&lt;/p&gt;" style="verticalAlign=top;align=left;overflow=fill;html=1;whiteSpace=wrap;" parent="1" vertex="1">
          <mxGeometry x="-640" y="40" width="120" height="110" as="geometry" />
        </mxCell>
        <mxCell id="Qoh2Zzb7UQpSRweOdzUY-34" value="" style="endArrow=block;dashed=1;endFill=0;endSize=12;html=1;rounded=0;exitX=0.5;exitY=0;exitDx=0;exitDy=0;entryX=0.5;entryY=1;entryDx=0;entryDy=0;" parent="1" source="_Nnt78MstxAGPQzolKxO-16" target="Qoh2Zzb7UQpSRweOdzUY-33" edge="1">
          <mxGeometry width="160" relative="1" as="geometry">
            <mxPoint x="-350" y="470" as="sourcePoint" />
            <mxPoint x="-283" y="350" as="targetPoint" />
          </mxGeometry>
        </mxCell>
        <mxCell id="Qoh2Zzb7UQpSRweOdzUY-35" value="&lt;p style=&quot;margin:0px;margin-top:4px;text-align:center;&quot;&gt;&lt;i&gt;&amp;lt;&amp;lt;Interface&amp;gt;&amp;gt;&lt;/i&gt;&lt;br&gt;&lt;b&gt;IApplicationBuilder&lt;/b&gt;&lt;br&gt;&lt;/p&gt;&lt;hr size=&quot;1&quot; style=&quot;border-style:solid;&quot;&gt;&lt;p style=&quot;margin:0px;margin-left:4px;&quot;&gt;ApplicationServices&lt;br&gt;&lt;/p&gt;&lt;p style=&quot;margin:0px;margin-left:4px;&quot;&gt;ServerFeatures&lt;br&gt;&lt;/p&gt;&lt;p style=&quot;margin:0px;margin-left:4px;&quot;&gt;Properties&lt;br&gt;&lt;/p&gt;&lt;p style=&quot;margin:0px;margin-left:4px;&quot;&gt;&lt;br&gt;&lt;/p&gt;&lt;p style=&quot;margin:0px;margin-left:4px;&quot;&gt;Use&lt;br&gt;&lt;/p&gt;&lt;p style=&quot;margin:0px;margin-left:4px;&quot;&gt;New&lt;br&gt;&lt;/p&gt;&lt;p style=&quot;margin:0px;margin-left:4px;&quot;&gt;Build&lt;br&gt;&lt;/p&gt;" style="verticalAlign=top;align=left;overflow=fill;html=1;whiteSpace=wrap;" parent="1" vertex="1">
          <mxGeometry x="-500" y="40" width="160" height="150" as="geometry" />
        </mxCell>
        <mxCell id="Qoh2Zzb7UQpSRweOdzUY-36" value="" style="endArrow=block;dashed=1;endFill=0;endSize=12;html=1;rounded=0;exitX=0.5;exitY=0;exitDx=0;exitDy=0;entryX=0.5;entryY=1;entryDx=0;entryDy=0;" parent="1" source="_Nnt78MstxAGPQzolKxO-16" target="Qoh2Zzb7UQpSRweOdzUY-35" edge="1">
          <mxGeometry width="160" relative="1" as="geometry">
            <mxPoint x="-405" y="250" as="sourcePoint" />
            <mxPoint x="-420" y="145" as="targetPoint" />
          </mxGeometry>
        </mxCell>
        <mxCell id="Qoh2Zzb7UQpSRweOdzUY-38" value="&lt;p style=&quot;margin:0px;margin-top:4px;text-align:center;&quot;&gt;&lt;i&gt;&amp;lt;&amp;lt;Interface&amp;gt;&amp;gt;&lt;/i&gt;&lt;br&gt;&lt;b&gt;IEndpointRouteBuilder&lt;/b&gt;&lt;br&gt;&lt;/p&gt;&lt;hr size=&quot;1&quot; style=&quot;border-style:solid;&quot;&gt;&lt;p style=&quot;margin:0px;margin-left:4px;&quot;&gt;DataSources&lt;br&gt;&lt;/p&gt;&lt;p style=&quot;margin:0px;margin-left:4px;&quot;&gt;ServiceProvider&lt;br&gt;&lt;/p&gt;&lt;p style=&quot;margin:0px;margin-left:4px;&quot;&gt;&lt;br&gt;&lt;/p&gt;&lt;p style=&quot;margin:0px;margin-left:4px;&quot;&gt;CreateApplicationBuilder&lt;br&gt;&lt;/p&gt;" style="verticalAlign=top;align=left;overflow=fill;html=1;whiteSpace=wrap;" parent="1" vertex="1">
          <mxGeometry x="-310" y="40" width="160" height="110" as="geometry" />
        </mxCell>
        <mxCell id="Qoh2Zzb7UQpSRweOdzUY-39" value="" style="endArrow=block;dashed=1;endFill=0;endSize=12;html=1;rounded=0;exitX=0.5;exitY=0;exitDx=0;exitDy=0;entryX=0.5;entryY=1;entryDx=0;entryDy=0;" parent="1" source="_Nnt78MstxAGPQzolKxO-16" target="Qoh2Zzb7UQpSRweOdzUY-38" edge="1">
          <mxGeometry width="160" relative="1" as="geometry">
            <mxPoint x="-280" y="310" as="sourcePoint" />
            <mxPoint x="-115" y="210" as="targetPoint" />
          </mxGeometry>
        </mxCell>
        <mxCell id="_Nnt78MstxAGPQzolKxO-16" value="&lt;p style=&quot;margin:0px;margin-top:4px;text-align:center;&quot;&gt;&lt;b&gt;WebApplication&lt;/b&gt;&lt;br&gt;&lt;/p&gt;&lt;hr size=&quot;1&quot; style=&quot;border-style:solid;&quot;&gt;&lt;p style=&quot;margin: 0px 0px 0px 4px;&quot;&gt;Services: &lt;font size=&quot;1&quot; style=&quot;&quot;&gt;&lt;i style=&quot;font-size: 12px;&quot;&gt;IServiceProvider&lt;/i&gt;&lt;/font&gt;&lt;/p&gt;&lt;p style=&quot;margin: 0px 0px 0px 4px;&quot;&gt;Configuration: &lt;i&gt;IConfiguration&lt;/i&gt;&lt;/p&gt;&lt;p style=&quot;margin: 0px 0px 0px 4px;&quot;&gt;Enviroment: &lt;i&gt;IWebHostEnviroment&lt;/i&gt;&lt;/p&gt;&lt;p style=&quot;margin: 0px 0px 0px 4px;&quot;&gt;Lifetime: &lt;i&gt;IHostApplicationLifetime&lt;/i&gt;&lt;/p&gt;&lt;p style=&quot;margin: 0px 0px 0px 4px;&quot;&gt;Logger: &lt;i&gt;ILogger&lt;/i&gt;&lt;/p&gt;&lt;p style=&quot;margin: 0px 0px 0px 4px;&quot;&gt;Urls: &lt;i&gt;ICollection&amp;lt;string&amp;gt;&lt;/i&gt;&lt;/p&gt;&lt;p style=&quot;margin: 0px 0px 0px 4px;&quot;&gt;IAplicationBuilder.ApplicationServices:&amp;nbsp;&lt;i&gt;&amp;nbsp;IServiceProvider&lt;/i&gt;&lt;/p&gt;&lt;p style=&quot;margin: 0px 0px 0px 4px;&quot;&gt;IAplicationBuilder.ServerFeatures: &lt;i&gt;IFeatureCollection&lt;/i&gt;&lt;/p&gt;&lt;p style=&quot;margin: 0px 0px 0px 4px;&quot;&gt;IAplicationBuilder.Properties: &lt;i&gt;IDictionary&amp;lt;string, object?&amp;gt;&lt;/i&gt;&lt;/p&gt;&lt;p style=&quot;margin: 0px 0px 0px 4px;&quot;&gt;IEndpointRouteBuilder.DataSources:&amp;nbsp;&lt;i&gt;ICollection&amp;lt;EndpointDataSource&amp;gt;&lt;/i&gt;&lt;br&gt;&lt;/p&gt;&lt;p style=&quot;margin: 0px 0px 0px 4px;&quot;&gt;IEndpointRouteBuilder.ServiceProvider:&lt;i&gt;&amp;nbsp;IServiceProvider&lt;/i&gt;&lt;br&gt;&lt;/p&gt;&lt;p style=&quot;margin: 0px 0px 0px 4px;&quot;&gt;&lt;i&gt;&lt;br&gt;&lt;/i&gt;&lt;/p&gt;&lt;p style=&quot;margin: 0px 0px 0px 4px;&quot;&gt;# Creat:&amp;nbsp;&lt;i&gt;WebApplicationBuilder&lt;/i&gt;&lt;/p&gt;&lt;p style=&quot;margin: 0px 0px 0px 4px;&quot;&gt;#&amp;nbsp;CreateBuilder&lt;span style=&quot;background-color: initial;&quot;&gt;:&amp;nbsp;&lt;/span&gt;&lt;i style=&quot;background-color: initial;&quot;&gt;WebApplicationBuilder&lt;/i&gt;&lt;/p&gt;&lt;p style=&quot;margin: 0px 0px 0px 4px;&quot;&gt;#&amp;nbsp;CreateSlimBuilder&lt;span style=&quot;background-color: initial;&quot;&gt;:&amp;nbsp;&lt;/span&gt;&lt;i style=&quot;background-color: initial;&quot;&gt;WebApplicationBuilder&lt;/i&gt;&lt;/p&gt;&lt;p style=&quot;margin: 0px 0px 0px 4px;&quot;&gt;#&amp;nbsp;CreateEmptyBuilder&lt;span style=&quot;background-color: initial;&quot;&gt;:&amp;nbsp;&lt;/span&gt;&lt;i style=&quot;background-color: initial;&quot;&gt;WebApplicationBuilder&lt;/i&gt;&lt;/p&gt;&lt;p style=&quot;margin: 0px 0px 0px 4px;&quot;&gt;&lt;span style=&quot;background-color: initial;&quot;&gt;StartAsync:&amp;nbsp;&lt;i&gt;Task&lt;/i&gt;&lt;/span&gt;&lt;/p&gt;&lt;p style=&quot;margin: 0px 0px 0px 4px;&quot;&gt;&lt;span style=&quot;background-color: initial;&quot;&gt;StopAsync:&amp;nbsp;&lt;i&gt;Task&lt;/i&gt;&lt;/span&gt;&lt;/p&gt;&lt;p style=&quot;margin: 0px 0px 0px 4px;&quot;&gt;&lt;span style=&quot;background-color: initial;&quot;&gt;RunAsync:&amp;nbsp;&lt;i&gt;Task&lt;/i&gt;&lt;/span&gt;&lt;/p&gt;&lt;p style=&quot;margin: 0px 0px 0px 4px;&quot;&gt;&lt;span style=&quot;background-color: initial;&quot;&gt;Run:&amp;nbsp;&lt;i&gt;void&lt;/i&gt;&lt;/span&gt;&lt;/p&gt;&lt;p style=&quot;margin: 0px 0px 0px 4px;&quot;&gt;IApplicationBuilder.Build:&amp;nbsp;&lt;i&gt;RequestDelegate&lt;/i&gt;&lt;br&gt;&lt;/p&gt;&lt;p style=&quot;margin: 0px 0px 0px 4px;&quot;&gt;IApplicationBuilder.New:&amp;nbsp;&lt;i&gt;IApplicationBuilder&lt;/i&gt;&lt;br&gt;&lt;/p&gt;&lt;p style=&quot;margin: 0px 0px 0px 4px;&quot;&gt;Use:&lt;i&gt;&amp;nbsp;&lt;/i&gt;&lt;span style=&quot;background-color: initial;&quot;&gt;&lt;i&gt;IApplicationBuilder&lt;/i&gt;&lt;/span&gt;&lt;i&gt;&lt;br&gt;&lt;/i&gt;&lt;/p&gt;&lt;p style=&quot;margin: 0px 0px 0px 4px;&quot;&gt;&lt;span style=&quot;background-color: initial;&quot;&gt;IEndpointRouteBuilder.CreateApplicationBuilder:&amp;nbsp;&lt;/span&gt;&lt;span style=&quot;background-color: initial;&quot;&gt;&lt;i&gt;IApplicationBuilder&lt;/i&gt;&lt;/span&gt;&lt;/p&gt;&lt;p style=&quot;margin: 0px 0px 0px 4px;&quot;&gt;&lt;br&gt;&lt;/p&gt;" style="verticalAlign=top;align=left;overflow=fill;html=1;whiteSpace=wrap;" parent="1" vertex="1">
          <mxGeometry x="-575" y="280" width="385" height="380" as="geometry" />
        </mxCell>
        <mxCell id="_Nnt78MstxAGPQzolKxO-23" value="&lt;p style=&quot;margin:0px;margin-top:4px;text-align:center;&quot;&gt;&lt;b&gt;WebApplicationBuilder&lt;/b&gt;&lt;br&gt;&lt;/p&gt;&lt;hr size=&quot;1&quot; style=&quot;border-style:solid;&quot;&gt;&lt;p style=&quot;margin: 0px 0px 0px 4px;&quot;&gt;Environmen:&amp;nbsp;&lt;i&gt;IWebHostEnvironment&lt;/i&gt;&lt;br&gt;&lt;/p&gt;&lt;p style=&quot;margin: 0px 0px 0px 4px;&quot;&gt;Services:&amp;nbsp;&lt;i&gt;IServiceCollection&lt;/i&gt;&lt;br&gt;&lt;/p&gt;&lt;p style=&quot;margin: 0px 0px 0px 4px;&quot;&gt;Configuration:&amp;nbsp;&lt;i&gt;ConfigurationManager&lt;/i&gt;&lt;br&gt;&lt;/p&gt;&lt;p style=&quot;margin: 0px 0px 0px 4px;&quot;&gt;Logging:&amp;nbsp;&lt;i&gt;ILoggingBuilder&lt;/i&gt;&lt;br&gt;&lt;/p&gt;&lt;p style=&quot;margin: 0px 0px 0px 4px;&quot;&gt;Metrics:&amp;nbsp;&lt;i&gt;IMetricsBuilder&lt;/i&gt;&lt;br&gt;&lt;/p&gt;&lt;p style=&quot;margin: 0px 0px 0px 4px;&quot;&gt;&lt;i&gt;WebHost:&amp;nbsp;&lt;/i&gt;&lt;span style=&quot;background-color: initial;&quot;&gt;&lt;i&gt;ConfigureWebHostBuilder&lt;/i&gt;&lt;/span&gt;&lt;i&gt;&lt;br&gt;&lt;/i&gt;&lt;/p&gt;&lt;p style=&quot;margin: 0px 0px 0px 4px;&quot;&gt;&lt;span style=&quot;background-color: initial;&quot;&gt;Host:&amp;nbsp;&lt;/span&gt;&lt;span style=&quot;background-color: initial;&quot;&gt;&lt;i&gt;ConfigureHostBuilder&lt;/i&gt;&lt;/span&gt;&lt;span style=&quot;background-color: initial;&quot;&gt;&lt;br&gt;&lt;/span&gt;&lt;/p&gt;&lt;p style=&quot;margin: 0px 0px 0px 4px;&quot;&gt;&lt;span style=&quot;background-color: initial;&quot;&gt;IHostApplicationBuilder.Properties:&amp;nbsp;&lt;/span&gt;&lt;span style=&quot;background-color: initial;&quot;&gt;&lt;i&gt;IDictionary&amp;lt;object, object&amp;gt;&lt;/i&gt;&lt;/span&gt;&lt;span style=&quot;background-color: initial;&quot;&gt;&lt;br&gt;&lt;/span&gt;&lt;/p&gt;&lt;p style=&quot;margin: 0px 0px 0px 4px;&quot;&gt;&lt;span style=&quot;background-color: initial;&quot;&gt;IHostApplicationBuilder.Configuration:&lt;i&gt;&amp;nbsp;&lt;/i&gt;&lt;/span&gt;&lt;span style=&quot;background-color: initial;&quot;&gt;&lt;i&gt;IConfigurationManager&lt;/i&gt;&lt;/span&gt;&lt;span style=&quot;background-color: initial;&quot;&gt;&lt;i&gt;&lt;br&gt;&lt;/i&gt;&lt;/span&gt;&lt;/p&gt;&lt;p style=&quot;margin: 0px 0px 0px 4px;&quot;&gt;&lt;span style=&quot;background-color: initial;&quot;&gt;IHostApplicationBuilder.Environment:&amp;nbsp;&lt;/span&gt;&lt;span style=&quot;background-color: initial;&quot;&gt;&lt;i&gt;Environment&lt;/i&gt;&lt;/span&gt;&lt;span style=&quot;background-color: initial;&quot;&gt;&lt;br&gt;&lt;/span&gt;&lt;/p&gt;&lt;p style=&quot;margin: 0px 0px 0px 4px;&quot;&gt;&lt;span style=&quot;background-color: initial;&quot;&gt;&lt;i&gt;&lt;br&gt;&lt;/i&gt;&lt;/span&gt;&lt;/p&gt;&lt;p style=&quot;margin: 0px 0px 0px 4px;&quot;&gt;~ .ctor&lt;br&gt;&lt;/p&gt;&lt;p style=&quot;margin: 0px 0px 0px 4px;&quot;&gt;Build:&amp;nbsp;&lt;i&gt;WebApplication&lt;/i&gt;&lt;br&gt;&lt;/p&gt;&lt;p style=&quot;margin: 0px 0px 0px 4px;&quot;&gt;IHostApplicationBuilder.ConfigureContainer:&lt;i&gt;&amp;nbsp;&lt;/i&gt;&lt;span style=&quot;background-color: initial;&quot;&gt;&lt;i&gt;void&lt;/i&gt;&lt;/span&gt;&lt;i&gt;&lt;br&gt;&lt;/i&gt;&lt;/p&gt;" style="verticalAlign=top;align=left;overflow=fill;html=1;whiteSpace=wrap;" parent="1" vertex="1">
          <mxGeometry x="-130" y="-40" width="350" height="240" as="geometry" />
        </mxCell>
        <mxCell id="_Nnt78MstxAGPQzolKxO-24" value="&lt;p style=&quot;margin:0px;margin-top:4px;text-align:center;&quot;&gt;&lt;i&gt;&amp;lt;&amp;lt;Interface&amp;gt;&amp;gt;&lt;/i&gt;&lt;br&gt;&lt;b&gt;IHostApplicationBuilder&lt;/b&gt;&lt;br&gt;&lt;/p&gt;&lt;hr size=&quot;1&quot; style=&quot;border-style:solid;&quot;&gt;&lt;p style=&quot;margin:0px;margin-left:4px;&quot;&gt;Properties&lt;br&gt;&lt;/p&gt;&lt;p style=&quot;margin:0px;margin-left:4px;&quot;&gt;Configuration&lt;br&gt;&lt;/p&gt;&lt;p style=&quot;margin:0px;margin-left:4px;&quot;&gt;Environment&lt;br&gt;&lt;/p&gt;&lt;p style=&quot;margin:0px;margin-left:4px;&quot;&gt;Logging&lt;br&gt;&lt;/p&gt;&lt;p style=&quot;margin:0px;margin-left:4px;&quot;&gt;Metrics&lt;br&gt;&lt;/p&gt;&lt;p style=&quot;margin:0px;margin-left:4px;&quot;&gt;Services&lt;br&gt;&lt;/p&gt;&lt;p style=&quot;margin:0px;margin-left:4px;&quot;&gt;&lt;br&gt;&lt;/p&gt;&lt;p style=&quot;margin:0px;margin-left:4px;&quot;&gt;ConfigureContainer&lt;br&gt;&lt;/p&gt;" style="verticalAlign=top;align=left;overflow=fill;html=1;whiteSpace=wrap;" parent="1" vertex="1">
          <mxGeometry x="80" y="-240" width="160" height="170" as="geometry" />
        </mxCell>
        <mxCell id="_Nnt78MstxAGPQzolKxO-25" value="" style="endArrow=block;dashed=1;endFill=0;endSize=12;html=1;rounded=0;exitX=0.5;exitY=0;exitDx=0;exitDy=0;entryX=0.5;entryY=1;entryDx=0;entryDy=0;" parent="1" source="_Nnt78MstxAGPQzolKxO-23" target="_Nnt78MstxAGPQzolKxO-24" edge="1">
          <mxGeometry width="160" relative="1" as="geometry">
            <mxPoint x="360" y="240" as="sourcePoint" />
            <mxPoint x="512" y="110" as="targetPoint" />
          </mxGeometry>
        </mxCell>
        <mxCell id="_Nnt78MstxAGPQzolKxO-31" value="&lt;p style=&quot;margin:0px;margin-top:4px;text-align:center;&quot;&gt;&lt;b&gt;ConfigurationManager&lt;/b&gt;&lt;br&gt;&lt;/p&gt;&lt;hr size=&quot;1&quot; style=&quot;border-style:solid;&quot;&gt;&lt;p style=&quot;margin: 0px 0px 0px 4px;&quot;&gt;Environmen:&amp;nbsp;&lt;i&gt;IWebHostEnvironment&lt;/i&gt;&lt;br&gt;&lt;/p&gt;&lt;p style=&quot;margin: 0px 0px 0px 4px;&quot;&gt;Services:&amp;nbsp;&lt;i&gt;IServiceCollection&lt;/i&gt;&lt;br&gt;&lt;/p&gt;&lt;p style=&quot;margin: 0px 0px 0px 4px;&quot;&gt;Configuration:&amp;nbsp;&lt;i&gt;ConfigurationManager&lt;/i&gt;&lt;br&gt;&lt;/p&gt;&lt;p style=&quot;margin: 0px 0px 0px 4px;&quot;&gt;Logging:&amp;nbsp;&lt;i&gt;ILoggingBuilder&lt;/i&gt;&lt;br&gt;&lt;/p&gt;&lt;p style=&quot;margin: 0px 0px 0px 4px;&quot;&gt;Metrics:&amp;nbsp;&lt;i&gt;IMetricsBuilder&lt;/i&gt;&lt;br&gt;&lt;/p&gt;&lt;p style=&quot;margin: 0px 0px 0px 4px;&quot;&gt;&lt;i&gt;WebHost:&amp;nbsp;&lt;/i&gt;&lt;span style=&quot;background-color: initial;&quot;&gt;&lt;i&gt;ConfigureWebHostBuilder&lt;/i&gt;&lt;/span&gt;&lt;i&gt;&lt;br&gt;&lt;/i&gt;&lt;/p&gt;&lt;p style=&quot;margin: 0px 0px 0px 4px;&quot;&gt;&lt;span style=&quot;background-color: initial;&quot;&gt;Host:&amp;nbsp;&lt;/span&gt;&lt;span style=&quot;background-color: initial;&quot;&gt;&lt;i&gt;ConfigureHostBuilder&lt;/i&gt;&lt;/span&gt;&lt;span style=&quot;background-color: initial;&quot;&gt;&lt;br&gt;&lt;/span&gt;&lt;/p&gt;&lt;p style=&quot;margin: 0px 0px 0px 4px;&quot;&gt;&lt;span style=&quot;background-color: initial;&quot;&gt;IHostApplicationBuilder.Properties:&amp;nbsp;&lt;/span&gt;&lt;span style=&quot;background-color: initial;&quot;&gt;&lt;i&gt;IDictionary&amp;lt;object, object&amp;gt;&lt;/i&gt;&lt;/span&gt;&lt;span style=&quot;background-color: initial;&quot;&gt;&lt;br&gt;&lt;/span&gt;&lt;/p&gt;&lt;p style=&quot;margin: 0px 0px 0px 4px;&quot;&gt;&lt;span style=&quot;background-color: initial;&quot;&gt;IHostApplicationBuilder.Configuration:&lt;i&gt;&amp;nbsp;&lt;/i&gt;&lt;/span&gt;&lt;span style=&quot;background-color: initial;&quot;&gt;&lt;i&gt;IConfigurationManager&lt;/i&gt;&lt;/span&gt;&lt;span style=&quot;background-color: initial;&quot;&gt;&lt;i&gt;&lt;br&gt;&lt;/i&gt;&lt;/span&gt;&lt;/p&gt;&lt;p style=&quot;margin: 0px 0px 0px 4px;&quot;&gt;&lt;span style=&quot;background-color: initial;&quot;&gt;IHostApplicationBuilder.Environment:&amp;nbsp;&lt;/span&gt;&lt;span style=&quot;background-color: initial;&quot;&gt;&lt;i&gt;Environment&lt;/i&gt;&lt;/span&gt;&lt;span style=&quot;background-color: initial;&quot;&gt;&lt;br&gt;&lt;/span&gt;&lt;/p&gt;&lt;p style=&quot;margin: 0px 0px 0px 4px;&quot;&gt;&lt;span style=&quot;background-color: initial;&quot;&gt;&lt;i&gt;&lt;br&gt;&lt;/i&gt;&lt;/span&gt;&lt;/p&gt;&lt;p style=&quot;margin: 0px 0px 0px 4px;&quot;&gt;~ .ctor&lt;br&gt;&lt;/p&gt;&lt;p style=&quot;margin: 0px 0px 0px 4px;&quot;&gt;Build:&amp;nbsp;&lt;i&gt;WebApplication&lt;/i&gt;&lt;br&gt;&lt;/p&gt;&lt;p style=&quot;margin: 0px 0px 0px 4px;&quot;&gt;IHostApplicationBuilder.ConfigureContainer:&lt;i&gt;&amp;nbsp;&lt;/i&gt;&lt;span style=&quot;background-color: initial;&quot;&gt;&lt;i&gt;void&lt;/i&gt;&lt;/span&gt;&lt;i&gt;&lt;br&gt;&lt;/i&gt;&lt;/p&gt;" style="verticalAlign=top;align=left;overflow=fill;html=1;whiteSpace=wrap;" parent="1" vertex="1">
          <mxGeometry x="360" y="-560" width="385" height="240" as="geometry" />
        </mxCell>
        <mxCell id="et9EJRdBoTX8wLfNxFND-1" value="&lt;p style=&quot;margin:0px;margin-top:4px;text-align:center;&quot;&gt;&lt;span style=&quot;background-color: initial; text-align: left;&quot;&gt;&lt;b&gt;HostApplicationBuilderSettings&lt;/b&gt;&lt;/span&gt;&lt;/p&gt;&lt;hr size=&quot;1&quot; style=&quot;border-style:solid;&quot;&gt;&lt;p style=&quot;margin:0px;margin-left:4px;&quot;&gt;&lt;br&gt;&lt;/p&gt;" style="verticalAlign=top;align=left;overflow=fill;html=1;whiteSpace=wrap;" parent="1" vertex="1">
          <mxGeometry x="-1050" y="200" width="200" height="50" as="geometry" />
        </mxCell>
        <mxCell id="et9EJRdBoTX8wLfNxFND-2" value="&lt;p style=&quot;margin:0px;margin-top:4px;text-align:center;&quot;&gt;&lt;b&gt;HostApplicationBuilder&lt;/b&gt;&lt;br&gt;&lt;/p&gt;&lt;hr size=&quot;1&quot; style=&quot;border-style:solid;&quot;&gt;&lt;p style=&quot;margin: 0px 0px 0px 4px;&quot;&gt;Configuration&lt;br&gt;&lt;/p&gt;&lt;p style=&quot;margin: 0px 0px 0px 4px;&quot;&gt;Environment&lt;br&gt;&lt;/p&gt;&lt;p style=&quot;margin: 0px 0px 0px 4px;&quot;&gt;Logging&lt;br&gt;&lt;/p&gt;&lt;p style=&quot;margin: 0px 0px 0px 4px;&quot;&gt;Metrics&lt;br&gt;&lt;/p&gt;&lt;p style=&quot;margin: 0px 0px 0px 4px;&quot;&gt;Services&lt;br&gt;&lt;/p&gt;&lt;p style=&quot;margin: 0px 0px 0px 4px;&quot;&gt;&lt;br&gt;&lt;/p&gt;&lt;p style=&quot;margin: 0px 0px 0px 4px;&quot;&gt;Build&lt;br&gt;&lt;/p&gt;&lt;p style=&quot;margin: 0px 0px 0px 4px;&quot;&gt;ConfigureContainer&lt;br&gt;&lt;/p&gt;" style="verticalAlign=top;align=left;overflow=fill;html=1;whiteSpace=wrap;" parent="1" vertex="1">
          <mxGeometry x="320" y="-40" width="190" height="150" as="geometry" />
        </mxCell>
        <mxCell id="et9EJRdBoTX8wLfNxFND-3" value="" style="endArrow=block;dashed=1;endFill=0;endSize=12;html=1;rounded=0;exitX=0.5;exitY=0;exitDx=0;exitDy=0;entryX=0.75;entryY=1;entryDx=0;entryDy=0;" parent="1" source="et9EJRdBoTX8wLfNxFND-2" target="_Nnt78MstxAGPQzolKxO-24" edge="1">
          <mxGeometry width="160" relative="1" as="geometry">
            <mxPoint x="65" y="290" as="sourcePoint" />
            <mxPoint x="90" y="220" as="targetPoint" />
          </mxGeometry>
        </mxCell>
        <mxCell id="et9EJRdBoTX8wLfNxFND-4" value="&lt;p style=&quot;margin:0px;margin-top:4px;text-align:center;&quot;&gt;&lt;b&gt;BootstrapHostBuilder&lt;/b&gt;&lt;br&gt;&lt;/p&gt;&lt;hr size=&quot;1&quot; style=&quot;border-style:solid;&quot;&gt;&amp;nbsp;- _builder: &lt;i&gt;HostApplicationBuilder&lt;/i&gt;&lt;div&gt;&lt;i&gt;&amp;nbsp;- _&lt;/i&gt;configureHostActions:&amp;nbsp;&lt;i&gt;List&amp;lt;Action&amp;lt;IConfigurationBuilder&amp;gt;&amp;gt;&lt;/i&gt;&lt;br&gt;&lt;p style=&quot;margin: 0px 0px 0px 4px;&quot;&gt;- _configureAppActions:&amp;nbsp;&lt;i&gt;List&amp;lt;Action&amp;lt;HostBuilderContext, IConfigurationBuilder&amp;gt;&amp;gt;&lt;/i&gt;&lt;br&gt;&lt;/p&gt;&lt;p style=&quot;margin: 0px 0px 0px 4px;&quot;&gt;&lt;i&gt;-&lt;/i&gt;&amp;nbsp;&lt;span style=&quot;background-color: initial;&quot;&gt;_configureServicesActions:&amp;nbsp;&lt;/span&gt;&lt;span style=&quot;background-color: initial;&quot;&gt;&lt;i&gt;List&amp;lt;Action&amp;lt;HostBuilderContext, IServiceCollection&amp;gt;&amp;gt;&lt;/i&gt;&lt;/span&gt;&lt;/p&gt;&lt;p style=&quot;margin: 0px 0px 0px 4px;&quot;&gt;&lt;b&gt;Properties&lt;/b&gt;&lt;br&gt;&lt;/p&gt;&lt;p style=&quot;margin: 0px 0px 0px 4px;&quot;&gt;Context&lt;br&gt;&lt;/p&gt;&lt;p style=&quot;margin: 0px 0px 0px 4px;&quot;&gt;&lt;br&gt;&lt;/p&gt;&lt;p style=&quot;margin: 0px 0px 0px 4px;&quot;&gt;&lt;b&gt;ConfigureHostConfiguration&lt;br&gt;&lt;/b&gt;&lt;/p&gt;&lt;p style=&quot;margin: 0px 0px 0px 4px;&quot;&gt;&lt;b&gt;ConfigureAppConfiguration&lt;br&gt;&lt;/b&gt;&lt;/p&gt;&lt;p style=&quot;margin: 0px 0px 0px 4px;&quot;&gt;&lt;b&gt;ConfigureServices&lt;/b&gt;&lt;br&gt;&lt;/p&gt;&lt;p style=&quot;margin: 0px 0px 0px 4px;&quot;&gt;&lt;b&gt;Build&lt;/b&gt;:&amp;nbsp;&lt;i&gt;throw new InvalidOperationException()&lt;/i&gt;&lt;br&gt;&lt;/p&gt;&lt;p style=&quot;margin: 0px 0px 0px 4px;&quot;&gt;&lt;b&gt;ConfigureContainer&lt;/b&gt;:&amp;nbsp;&lt;i&gt;throw new InvalidOperationException()&lt;/i&gt;&lt;br&gt;&lt;/p&gt;&lt;p style=&quot;margin: 0px 0px 0px 4px;&quot;&gt;&lt;b&gt;UseServiceProviderFactory&lt;/b&gt;:&amp;nbsp;&lt;i&gt;throw new InvalidOperationException()&lt;/i&gt;&lt;br&gt;&lt;/p&gt;&lt;p style=&quot;margin: 0px 0px 0px 4px;&quot;&gt;RunDefaultCallbacks&lt;br&gt;&lt;/p&gt;&lt;/div&gt;" style="verticalAlign=top;align=left;overflow=fill;html=1;whiteSpace=wrap;" parent="1" vertex="1">
          <mxGeometry x="680" y="320" width="460" height="240" as="geometry" />
        </mxCell>
        <mxCell id="jZdB-mChBN0l79p7-DXp-1" value="&lt;p style=&quot;margin:0px;margin-top:4px;text-align:center;&quot;&gt;&lt;b&gt;Методы расширения&lt;/b&gt;&lt;/p&gt;&lt;hr size=&quot;1&quot; style=&quot;border-style:solid;&quot;&gt;&lt;p style=&quot;margin:0px;margin-left:4px;&quot;&gt;UseApplicationMetadata&lt;br&gt;&lt;/p&gt;&lt;p style=&quot;margin:0px;margin-left:4px;&quot;&gt;AddFakeLoggingOutputSink&lt;br&gt;&lt;/p&gt;&lt;p style=&quot;margin:0px;margin-left:4px;&quot;&gt;&lt;br&gt;&lt;/p&gt;" style="verticalAlign=top;align=left;overflow=fill;html=1;whiteSpace=wrap;" parent="1" vertex="1">
          <mxGeometry x="1240" y="-160" width="180" height="180" as="geometry" />
        </mxCell>
        <mxCell id="jZdB-mChBN0l79p7-DXp-2" value="" style="endArrow=diamondThin;endFill=1;endSize=24;html=1;rounded=0;fontSize=12;curved=1;entryX=0.75;entryY=0;entryDx=0;entryDy=0;exitX=0;exitY=0;exitDx=0;exitDy=0;" parent="1" source="jZdB-mChBN0l79p7-DXp-1" target="Qoh2Zzb7UQpSRweOdzUY-19" edge="1">
          <mxGeometry width="160" relative="1" as="geometry">
            <mxPoint x="1240" y="59.5" as="sourcePoint" />
            <mxPoint x="1400" y="59.5" as="targetPoint" />
          </mxGeometry>
        </mxCell>
      </root>
    </mxGraphModel>
  </diagram>
  <diagram id="JTM4jn1HUgV034AHDBam" name="Configure">
    <mxGraphModel dx="2199" dy="1955" grid="1" gridSize="10" guides="1" tooltips="1" connect="1" arrows="1" fold="1" page="1" pageScale="1" pageWidth="827" pageHeight="1169" math="0" shadow="0">
      <root>
        <mxCell id="0" />
        <mxCell id="1" parent="0" />
        <mxCell id="V1luG3iUTrNZWRXgEADD-1" value="&lt;p style=&quot;margin:0px;margin-top:4px;text-align:center;&quot;&gt;&lt;i&gt;&amp;lt;&amp;lt;Interface&amp;gt;&amp;gt;&lt;/i&gt;&lt;br&gt;&lt;b&gt;IConfigurationManager&lt;/b&gt;&lt;br&gt;&lt;/p&gt;&lt;hr size=&quot;1&quot; style=&quot;border-style:solid;&quot;&gt;&lt;p style=&quot;margin:0px;margin-left:4px;&quot;&gt;&lt;br&gt;&lt;/p&gt;" style="verticalAlign=top;align=left;overflow=fill;html=1;whiteSpace=wrap;" parent="1" vertex="1">
          <mxGeometry x="540" y="-110" width="160" height="60" as="geometry" />
        </mxCell>
        <mxCell id="V1luG3iUTrNZWRXgEADD-2" value="&lt;p style=&quot;margin:0px;margin-top:4px;text-align:center;&quot;&gt;&lt;i&gt;&amp;lt;&amp;lt;Interface&amp;gt;&amp;gt;&lt;/i&gt;&lt;br&gt;&lt;b&gt;IConfiguration&lt;/b&gt;&lt;br&gt;&lt;/p&gt;&lt;hr size=&quot;1&quot; style=&quot;border-style:solid;&quot;&gt;&lt;p style=&quot;margin:0px;margin-left:4px;&quot;&gt;this[string key]&lt;br&gt;&lt;/p&gt;&lt;p style=&quot;margin:0px;margin-left:4px;&quot;&gt;&lt;br&gt;&lt;/p&gt;&lt;p style=&quot;margin:0px;margin-left:4px;&quot;&gt;GetSection:&amp;nbsp;&lt;i&gt;IConfigurationSection&lt;/i&gt;&lt;br&gt;&lt;/p&gt;&lt;p style=&quot;margin:0px;margin-left:4px;&quot;&gt;GetChildren:&amp;nbsp;&lt;i&gt;IEnumerable&amp;lt;IConfigurationSection&amp;gt;&lt;/i&gt;&lt;br&gt;&lt;/p&gt;&lt;p style=&quot;margin:0px;margin-left:4px;&quot;&gt;GetReloadToken:&lt;i&gt;&amp;nbsp;&lt;/i&gt;&lt;span style=&quot;background-color: initial;&quot;&gt;&lt;i&gt;GetReloadToken&lt;/i&gt;&lt;/span&gt;&lt;i&gt;&lt;br&gt;&lt;/i&gt;&lt;/p&gt;" style="verticalAlign=top;align=left;overflow=fill;html=1;whiteSpace=wrap;" parent="1" vertex="1">
          <mxGeometry x="220" y="-360" width="280" height="120" as="geometry" />
        </mxCell>
        <mxCell id="V1luG3iUTrNZWRXgEADD-3" value="" style="endArrow=block;dashed=1;endFill=0;endSize=12;html=1;rounded=0;exitX=0.5;exitY=0;exitDx=0;exitDy=0;entryX=0.75;entryY=1;entryDx=0;entryDy=0;" parent="1" source="V1luG3iUTrNZWRXgEADD-1" target="V1luG3iUTrNZWRXgEADD-2" edge="1">
          <mxGeometry width="160" relative="1" as="geometry">
            <mxPoint x="240" y="80" as="sourcePoint" />
            <mxPoint x="247" y="10" as="targetPoint" />
          </mxGeometry>
        </mxCell>
        <mxCell id="V1luG3iUTrNZWRXgEADD-4" value="&lt;p style=&quot;margin:0px;margin-top:4px;text-align:center;&quot;&gt;&lt;i&gt;&amp;lt;&amp;lt;Interface&amp;gt;&amp;gt;&lt;/i&gt;&lt;br&gt;&lt;b&gt;IConfigurationBuilder&lt;/b&gt;&lt;br&gt;&lt;/p&gt;&lt;hr size=&quot;1&quot; style=&quot;border-style:solid;&quot;&gt;&lt;p style=&quot;margin:0px;margin-left:4px;&quot;&gt;Properties:&amp;nbsp;&lt;i&gt;IDictionary&amp;lt;string, object&amp;gt;&lt;/i&gt;&lt;br&gt;&lt;/p&gt;&lt;p style=&quot;margin:0px;margin-left:4px;&quot;&gt;Sources:&amp;nbsp;&lt;i&gt;IList&amp;lt;IConfigurationSource&amp;gt;&lt;/i&gt;&lt;br&gt;&lt;/p&gt;&lt;p style=&quot;margin:0px;margin-left:4px;&quot;&gt;&lt;br&gt;&lt;/p&gt;&lt;p style=&quot;margin:0px;margin-left:4px;&quot;&gt;Add:&amp;nbsp;&lt;i&gt;IConfigurationBuilder&lt;/i&gt;&lt;br&gt;&lt;/p&gt;&lt;p style=&quot;margin:0px;margin-left:4px;&quot;&gt;Build:&amp;nbsp;&lt;i&gt;IConfigurationRoot&lt;/i&gt;&lt;br&gt;&lt;/p&gt;&lt;p style=&quot;margin:0px;margin-left:4px;&quot;&gt;&lt;br&gt;&lt;/p&gt;&lt;p style=&quot;margin:0px;margin-left:4px;&quot;&gt;&lt;br&gt;&lt;/p&gt;" style="verticalAlign=top;align=left;overflow=fill;html=1;whiteSpace=wrap;" parent="1" vertex="1">
          <mxGeometry x="530" y="-360" width="210" height="120" as="geometry" />
        </mxCell>
        <mxCell id="V1luG3iUTrNZWRXgEADD-5" value="" style="endArrow=block;dashed=1;endFill=0;endSize=12;html=1;rounded=0;exitX=0.5;exitY=0;exitDx=0;exitDy=0;entryX=0.5;entryY=1;entryDx=0;entryDy=0;" parent="1" source="V1luG3iUTrNZWRXgEADD-1" target="V1luG3iUTrNZWRXgEADD-4" edge="1">
          <mxGeometry width="160" relative="1" as="geometry">
            <mxPoint x="610" y="120" as="sourcePoint" />
            <mxPoint x="590" as="targetPoint" />
          </mxGeometry>
        </mxCell>
        <mxCell id="V1luG3iUTrNZWRXgEADD-6" value="&lt;p style=&quot;margin:0px;margin-top:4px;text-align:center;&quot;&gt;&lt;b&gt;Microsoft.Extensions.Configuration&lt;/b&gt;&lt;br&gt;&lt;/p&gt;&lt;hr size=&quot;1&quot; style=&quot;border-style:solid;&quot;&gt;&lt;p style=&quot;margin:0px;margin-left:4px;&quot;&gt;IConfiguration&lt;br&gt;&lt;/p&gt;&lt;p style=&quot;margin:0px;margin-left:4px;&quot;&gt;IConfigurationBuilder&lt;br&gt;&lt;/p&gt;&lt;p style=&quot;margin:0px;margin-left:4px;&quot;&gt;IConfigurationManager&lt;br&gt;&lt;/p&gt;&lt;p style=&quot;margin:0px;margin-left:4px;&quot;&gt;IConfigurationProvider&lt;br&gt;&lt;/p&gt;&lt;p style=&quot;margin:0px;margin-left:4px;&quot;&gt;IConfigurationRoot&lt;br&gt;&lt;/p&gt;&lt;p style=&quot;margin:0px;margin-left:4px;&quot;&gt;IConfigurationSection&lt;br&gt;&lt;/p&gt;&lt;p style=&quot;margin:0px;margin-left:4px;&quot;&gt;IConfigurationSource&lt;br&gt;&lt;/p&gt;&lt;p style=&quot;margin:0px;margin-left:4px;&quot;&gt;&lt;br&gt;&lt;/p&gt;&lt;p style=&quot;margin:0px;margin-left:4px;&quot;&gt;ConfigurationPath&lt;br&gt;&lt;/p&gt;" style="verticalAlign=top;align=left;overflow=fill;html=1;whiteSpace=wrap;" parent="1" vertex="1">
          <mxGeometry x="600" y="-1040" width="220" height="180" as="geometry" />
        </mxCell>
        <mxCell id="V1luG3iUTrNZWRXgEADD-7" value="&lt;p style=&quot;margin:0px;margin-top:4px;text-align:center;&quot;&gt;&lt;i&gt;&amp;lt;&amp;lt;Interface&amp;gt;&amp;gt;&lt;/i&gt;&lt;br&gt;&lt;span style=&quot;text-align: left;&quot;&gt;&lt;b&gt;IConfigurationProvider&lt;/b&gt;&lt;/span&gt;&lt;br&gt;&lt;/p&gt;&lt;hr size=&quot;1&quot; style=&quot;border-style:solid;&quot;&gt;&lt;p style=&quot;margin:0px;margin-left:4px;&quot;&gt;GetChildKeys:&amp;nbsp;&lt;span style=&quot;background-color: initial;&quot;&gt;&lt;i&gt;IEnumerable&amp;lt;string&amp;gt;&lt;/i&gt;&lt;/span&gt;&lt;br&gt;&lt;/p&gt;&lt;p style=&quot;margin:0px;margin-left:4px;&quot;&gt;GetReloadToken:&amp;nbsp;&lt;span style=&quot;background-color: initial;&quot;&gt;&lt;i&gt;IChangeToken&lt;/i&gt;&lt;/span&gt;&lt;br&gt;&lt;/p&gt;&lt;p style=&quot;margin:0px;margin-left:4px;&quot;&gt;Load: &lt;i&gt;void&lt;/i&gt;&lt;br&gt;&lt;/p&gt;&lt;p style=&quot;margin:0px;margin-left:4px;&quot;&gt;Set:&amp;nbsp;&lt;i&gt;void&lt;/i&gt;&lt;br&gt;&lt;/p&gt;&lt;p style=&quot;margin:0px;margin-left:4px;&quot;&gt;TryGet:&amp;nbsp;&lt;i&gt;bool&lt;/i&gt;&lt;br&gt;&lt;/p&gt;&lt;p style=&quot;margin:0px;margin-left:4px;&quot;&gt;&lt;br&gt;&lt;/p&gt;&lt;p style=&quot;margin:0px;margin-left:4px;&quot;&gt;&lt;br&gt;&lt;/p&gt;" style="verticalAlign=top;align=left;overflow=fill;html=1;whiteSpace=wrap;" parent="1" vertex="1">
          <mxGeometry x="-80" y="-920" width="200" height="120" as="geometry" />
        </mxCell>
        <mxCell id="V1luG3iUTrNZWRXgEADD-8" value="&lt;p style=&quot;margin:0px;margin-top:4px;text-align:center;&quot;&gt;&lt;i&gt;&amp;lt;&amp;lt;Interface&amp;gt;&amp;gt;&lt;/i&gt;&lt;br&gt;&lt;span style=&quot;text-align: left;&quot;&gt;&lt;b&gt;IConfigurationRoot&lt;/b&gt;&lt;/span&gt;&lt;br&gt;&lt;/p&gt;&lt;hr size=&quot;1&quot; style=&quot;border-style:solid;&quot;&gt;&lt;p style=&quot;margin:0px;margin-left:4px;&quot;&gt;Reload:&amp;nbsp;&lt;span style=&quot;background-color: initial;&quot;&gt;&lt;i&gt;void&lt;/i&gt;&lt;/span&gt;&lt;br&gt;&lt;/p&gt;&lt;p style=&quot;margin:0px;margin-left:4px;&quot;&gt;Providers:&amp;nbsp;&lt;span style=&quot;background-color: initial;&quot;&gt;&lt;i&gt;IEnumerable&amp;lt;IConfigurationProvider&amp;gt;&lt;/i&gt;&lt;/span&gt;&lt;/p&gt;&lt;p style=&quot;margin:0px;margin-left:4px;&quot;&gt;&lt;br&gt;&lt;/p&gt;&lt;p style=&quot;margin:0px;margin-left:4px;&quot;&gt;&lt;br&gt;&lt;/p&gt;" style="verticalAlign=top;align=left;overflow=fill;html=1;whiteSpace=wrap;" parent="1" vertex="1">
          <mxGeometry x="80" y="-110" width="270" height="80" as="geometry" />
        </mxCell>
        <mxCell id="V1luG3iUTrNZWRXgEADD-9" value="" style="endArrow=block;dashed=1;endFill=0;endSize=12;html=1;rounded=0;exitX=0.5;exitY=0;exitDx=0;exitDy=0;entryX=0.25;entryY=1;entryDx=0;entryDy=0;" parent="1" source="V1luG3iUTrNZWRXgEADD-8" target="V1luG3iUTrNZWRXgEADD-2" edge="1">
          <mxGeometry width="160" relative="1" as="geometry">
            <mxPoint x="460" y="-80" as="sourcePoint" />
            <mxPoint x="370" y="-230" as="targetPoint" />
          </mxGeometry>
        </mxCell>
        <mxCell id="V1luG3iUTrNZWRXgEADD-10" value="&lt;p style=&quot;margin:0px;margin-top:4px;text-align:center;&quot;&gt;&lt;i&gt;&amp;lt;&amp;lt;Interface&amp;gt;&amp;gt;&lt;/i&gt;&lt;br&gt;&lt;span style=&quot;text-align: left;&quot;&gt;&lt;b&gt;I&lt;/b&gt;&lt;/span&gt;&lt;span style=&quot;background-color: initial; text-align: left;&quot;&gt;&lt;b&gt;ConfigurationSection&lt;/b&gt;&lt;/span&gt;&lt;br&gt;&lt;/p&gt;&lt;hr size=&quot;1&quot; style=&quot;border-style:solid;&quot;&gt;&lt;p style=&quot;margin:0px;margin-left:4px;&quot;&gt;Key:&amp;nbsp;&lt;span style=&quot;background-color: initial;&quot;&gt;&lt;i&gt;string&lt;/i&gt;&lt;/span&gt;&lt;br&gt;&lt;/p&gt;&lt;p style=&quot;margin:0px;margin-left:4px;&quot;&gt;Path:&amp;nbsp;&lt;span style=&quot;background-color: initial;&quot;&gt;&lt;i&gt;string&lt;/i&gt;&lt;/span&gt;&lt;br&gt;&lt;/p&gt;&lt;p style=&quot;margin:0px;margin-left:4px;&quot;&gt;Value: &lt;i&gt;string?&lt;/i&gt;&lt;/p&gt;&lt;p style=&quot;margin:0px;margin-left:4px;&quot;&gt;&lt;br&gt;&lt;/p&gt;" style="verticalAlign=top;align=left;overflow=fill;html=1;whiteSpace=wrap;" parent="1" vertex="1">
          <mxGeometry x="370" y="-110" width="140" height="90" as="geometry" />
        </mxCell>
        <mxCell id="V1luG3iUTrNZWRXgEADD-11" value="" style="endArrow=block;dashed=1;endFill=0;endSize=12;html=1;rounded=0;exitX=0.5;exitY=0;exitDx=0;exitDy=0;entryX=0.5;entryY=1;entryDx=0;entryDy=0;" parent="1" source="V1luG3iUTrNZWRXgEADD-10" target="V1luG3iUTrNZWRXgEADD-2" edge="1">
          <mxGeometry width="160" relative="1" as="geometry">
            <mxPoint x="350" y="-140" as="sourcePoint" />
            <mxPoint x="325" y="-220" as="targetPoint" />
          </mxGeometry>
        </mxCell>
        <mxCell id="V1luG3iUTrNZWRXgEADD-12" value="&lt;p style=&quot;margin:0px;margin-top:4px;text-align:center;&quot;&gt;&lt;i&gt;&amp;lt;&amp;lt;Interface&amp;gt;&amp;gt;&lt;/i&gt;&lt;br&gt;&lt;span style=&quot;text-align: left;&quot;&gt;&lt;b&gt;I&lt;/b&gt;&lt;/span&gt;&lt;span style=&quot;background-color: initial; text-align: left;&quot;&gt;&lt;b&gt;ConfigurationSource&lt;/b&gt;&lt;/span&gt;&lt;br&gt;&lt;/p&gt;&lt;hr size=&quot;1&quot; style=&quot;border-style:solid;&quot;&gt;&lt;p style=&quot;margin:0px;margin-left:4px;&quot;&gt;Build:&amp;nbsp;&lt;span style=&quot;background-color: initial;&quot;&gt;&lt;i&gt;IConfigurationProvider&lt;/i&gt;&lt;/span&gt;&lt;/p&gt;&lt;p style=&quot;margin:0px;margin-left:4px;&quot;&gt;&lt;br&gt;&lt;/p&gt;" style="verticalAlign=top;align=left;overflow=fill;html=1;whiteSpace=wrap;" parent="1" vertex="1">
          <mxGeometry x="430" y="-800" width="160" height="70" as="geometry" />
        </mxCell>
        <mxCell id="aCgiojUaGtQJ8ndLfyiy-2" value="" style="endArrow=block;dashed=1;endFill=0;endSize=12;html=1;rounded=0;entryX=0.5;entryY=1;entryDx=0;entryDy=0;exitX=0.5;exitY=0;exitDx=0;exitDy=0;" parent="1" source="jRoDtuM2xoWVMHSKAYaA-5" target="V1luG3iUTrNZWRXgEADD-12" edge="1">
          <mxGeometry width="160" relative="1" as="geometry">
            <mxPoint x="505.5319148936169" y="-639" as="sourcePoint" />
            <mxPoint x="445" y="-750" as="targetPoint" />
          </mxGeometry>
        </mxCell>
        <mxCell id="aCgiojUaGtQJ8ndLfyiy-4" value="" style="endArrow=block;dashed=1;endFill=0;endSize=12;html=1;rounded=0;exitX=0.5;exitY=0;exitDx=0;exitDy=0;entryX=0.75;entryY=1;entryDx=0;entryDy=0;" parent="1" source="jRoDtuM2xoWVMHSKAYaA-6" target="V1luG3iUTrNZWRXgEADD-7" edge="1">
          <mxGeometry width="160" relative="1" as="geometry">
            <mxPoint x="177.5" y="-760" as="sourcePoint" />
            <mxPoint x="290" y="-690" as="targetPoint" />
          </mxGeometry>
        </mxCell>
        <mxCell id="aCgiojUaGtQJ8ndLfyiy-6" value="" style="endArrow=block;dashed=1;endFill=0;endSize=12;html=1;rounded=0;exitX=0.75;exitY=0;exitDx=0;exitDy=0;entryX=0.25;entryY=1;entryDx=0;entryDy=0;" parent="1" source="aCgiojUaGtQJ8ndLfyiy-18" target="V1luG3iUTrNZWRXgEADD-12" edge="1">
          <mxGeometry width="160" relative="1" as="geometry">
            <mxPoint x="447.5" y="-560" as="sourcePoint" />
            <mxPoint x="320" y="-690" as="targetPoint" />
          </mxGeometry>
        </mxCell>
        <mxCell id="aCgiojUaGtQJ8ndLfyiy-8" value="" style="endArrow=block;dashed=1;endFill=0;endSize=12;html=1;rounded=0;entryX=0.25;entryY=1;entryDx=0;entryDy=0;exitX=0.5;exitY=0;exitDx=0;exitDy=0;" parent="1" source="jRoDtuM2xoWVMHSKAYaA-7" target="V1luG3iUTrNZWRXgEADD-7" edge="1">
          <mxGeometry width="160" relative="1" as="geometry">
            <mxPoint x="-110" y="-770" as="sourcePoint" />
            <mxPoint x="150" y="-630" as="targetPoint" />
          </mxGeometry>
        </mxCell>
        <mxCell id="aCgiojUaGtQJ8ndLfyiy-9" value="&lt;p style=&quot;margin: 4px 0px 0px; text-align: center;&quot;&gt;&lt;span style=&quot;background-color: initial; text-align: left;&quot;&gt;&lt;b&gt;Методы расширения&lt;/b&gt;&lt;/span&gt;&lt;br&gt;&lt;/p&gt;&lt;hr size=&quot;1&quot; style=&quot;border-style:solid;&quot;&gt;&lt;p style=&quot;margin:0px;margin-left:4px;&quot;&gt;AddConfiguration&lt;br&gt;&lt;/p&gt;&lt;p style=&quot;margin:0px;margin-left:4px;&quot;&gt;AddInMemoryCollection&lt;br&gt;&lt;/p&gt;&lt;p style=&quot;margin:0px;margin-left:4px;&quot;&gt;AddCommandLine&lt;i&gt;&lt;br&gt;&lt;/i&gt;&lt;/p&gt;&lt;p style=&quot;margin:0px;margin-left:4px;&quot;&gt;AddEnvironmentVariables&lt;br&gt;&lt;/p&gt;&lt;p style=&quot;margin:0px;margin-left:4px;&quot;&gt;AddIniFile&lt;br&gt;&lt;/p&gt;&lt;p style=&quot;margin:0px;margin-left:4px;&quot;&gt;AddIniStream&lt;br&gt;&lt;/p&gt;&lt;p style=&quot;margin:0px;margin-left:4px;&quot;&gt;AddJsonFile&lt;br&gt;&lt;/p&gt;&lt;p style=&quot;margin:0px;margin-left:4px;&quot;&gt;AddJsonStream&lt;br&gt;&lt;/p&gt;&lt;p style=&quot;margin:0px;margin-left:4px;&quot;&gt;AddKeyPerFile&lt;br&gt;&lt;/p&gt;&lt;p style=&quot;margin:0px;margin-left:4px;&quot;&gt;AddUserSecrets&lt;br&gt;&lt;/p&gt;&lt;p style=&quot;margin:0px;margin-left:4px;&quot;&gt;AddXmlFile&lt;br&gt;&lt;/p&gt;&lt;p style=&quot;margin:0px;margin-left:4px;&quot;&gt;AddXmlStream&lt;br&gt;&lt;/p&gt;" style="verticalAlign=top;align=left;overflow=fill;html=1;whiteSpace=wrap;" parent="1" vertex="1">
          <mxGeometry x="750" y="-180" width="170" height="220" as="geometry" />
        </mxCell>
        <mxCell id="aCgiojUaGtQJ8ndLfyiy-11" value="" style="endArrow=diamondThin;endFill=1;endSize=24;html=1;rounded=0;entryX=0.75;entryY=1;entryDx=0;entryDy=0;exitX=0.25;exitY=0;exitDx=0;exitDy=0;" parent="1" source="aCgiojUaGtQJ8ndLfyiy-9" target="V1luG3iUTrNZWRXgEADD-4" edge="1">
          <mxGeometry width="160" relative="1" as="geometry">
            <mxPoint x="780" y="-260" as="sourcePoint" />
            <mxPoint x="940" y="-260" as="targetPoint" />
          </mxGeometry>
        </mxCell>
        <mxCell id="aCgiojUaGtQJ8ndLfyiy-13" value="" style="endArrow=block;dashed=1;endFill=0;endSize=12;html=1;rounded=0;entryX=0.25;entryY=1;entryDx=0;entryDy=0;exitX=0.5;exitY=0;exitDx=0;exitDy=0;" parent="1" source="aCgiojUaGtQJ8ndLfyiy-19" target="jRoDtuM2xoWVMHSKAYaA-7" edge="1">
          <mxGeometry width="160" relative="1" as="geometry">
            <mxPoint x="125" y="-440" as="sourcePoint" />
            <mxPoint x="-200" y="-670" as="targetPoint" />
          </mxGeometry>
        </mxCell>
        <mxCell id="aCgiojUaGtQJ8ndLfyiy-14" value="&lt;p style=&quot;margin:0px;margin-top:4px;text-align:center;&quot;&gt;&lt;b&gt;ConfigurationSection&lt;/b&gt;&lt;br&gt;&lt;/p&gt;&lt;hr size=&quot;1&quot; style=&quot;border-style:solid;&quot;&gt;&lt;div style=&quot;height:2px;&quot;&gt;&lt;/div&gt;" style="verticalAlign=top;align=left;overflow=fill;html=1;whiteSpace=wrap;" parent="1" vertex="1">
          <mxGeometry x="370" y="40" width="140" height="44" as="geometry" />
        </mxCell>
        <mxCell id="aCgiojUaGtQJ8ndLfyiy-15" value="" style="endArrow=block;dashed=1;endFill=0;endSize=12;html=1;rounded=0;entryX=0.5;entryY=1;entryDx=0;entryDy=0;" parent="1" source="aCgiojUaGtQJ8ndLfyiy-14" target="V1luG3iUTrNZWRXgEADD-10" edge="1">
          <mxGeometry width="160" relative="1" as="geometry">
            <mxPoint x="630" y="240" as="sourcePoint" />
            <mxPoint x="550" y="110" as="targetPoint" />
          </mxGeometry>
        </mxCell>
        <mxCell id="aCgiojUaGtQJ8ndLfyiy-16" value="&lt;p style=&quot;margin:0px;margin-top:4px;text-align:center;&quot;&gt;&lt;span style=&quot;background-color: initial; text-align: left;&quot;&gt;&lt;b&gt;InternalConfigurationRootExtensions&lt;/b&gt;&lt;/span&gt;&lt;br&gt;&lt;/p&gt;&lt;hr size=&quot;1&quot; style=&quot;border-style:solid;&quot;&gt;&lt;p style=&quot;margin:0px;margin-left:4px;&quot;&gt;GetChildrenImplementation:&amp;nbsp;&lt;span style=&quot;background-color: initial;&quot;&gt;&lt;i&gt;IEnumerable&amp;lt;IConfigurationSection&amp;gt;&lt;/i&gt;&lt;/span&gt;&lt;br&gt;&lt;/p&gt;" style="verticalAlign=top;align=left;overflow=fill;html=1;whiteSpace=wrap;" parent="1" vertex="1">
          <mxGeometry x="-90" y="50" width="360" height="50" as="geometry" />
        </mxCell>
        <mxCell id="aCgiojUaGtQJ8ndLfyiy-17" value="" style="endArrow=diamondThin;endFill=1;endSize=24;html=1;rounded=0;entryX=0.25;entryY=1;entryDx=0;entryDy=0;exitX=0.5;exitY=0;exitDx=0;exitDy=0;" parent="1" source="aCgiojUaGtQJ8ndLfyiy-16" target="V1luG3iUTrNZWRXgEADD-8" edge="1">
          <mxGeometry width="160" relative="1" as="geometry">
            <mxPoint x="240" y="92" as="sourcePoint" />
            <mxPoint x="108" y="32" as="targetPoint" />
          </mxGeometry>
        </mxCell>
        <mxCell id="aCgiojUaGtQJ8ndLfyiy-18" value="&lt;p style=&quot;margin:0px;margin-top:4px;text-align:center;&quot;&gt;&lt;span style=&quot;background-color: initial; text-align: left;&quot;&gt;&lt;b&gt;Реализации&lt;/b&gt;&lt;/span&gt;&lt;br&gt;&lt;/p&gt;&lt;hr size=&quot;1&quot; style=&quot;border-style:solid;&quot;&gt;&lt;p style=&quot;margin:0px;margin-left:4px;&quot;&gt;&lt;span style=&quot;text-align: center;&quot;&gt;MemoryConfigurationSource&lt;/span&gt;&lt;br&gt;&lt;/p&gt;&lt;p style=&quot;margin:0px;margin-left:4px;&quot;&gt;CommandLineConfigurationSource&lt;br&gt;&lt;/p&gt;&lt;p style=&quot;margin:0px;margin-left:4px;&quot;&gt;EnvironmentVariablesConfigurationSource&lt;br&gt;&lt;/p&gt;&lt;p style=&quot;margin:0px;margin-left:4px;&quot;&gt;IniConfigurationSource&lt;br&gt;&lt;/p&gt;" style="verticalAlign=top;align=left;overflow=fill;html=1;whiteSpace=wrap;" parent="1" vertex="1">
          <mxGeometry x="170" y="-640" width="240" height="100" as="geometry" />
        </mxCell>
        <mxCell id="aCgiojUaGtQJ8ndLfyiy-19" value="&lt;p style=&quot;margin:0px;margin-top:4px;text-align:center;&quot;&gt;&lt;span style=&quot;background-color: initial; text-align: left;&quot;&gt;&lt;b&gt;Реализации&lt;/b&gt;&lt;/span&gt;&lt;br&gt;&lt;/p&gt;&lt;hr size=&quot;1&quot; style=&quot;border-style:solid;&quot;&gt;&lt;p style=&quot;margin:0px;margin-left:4px;&quot;&gt;&lt;span style=&quot;text-align: center;&quot;&gt;MemoryConfigurationProvider&lt;/span&gt;&lt;br&gt;&lt;/p&gt;&lt;p style=&quot;margin:0px;margin-left:4px;&quot;&gt;CommandLineConfigurationProvider&lt;br&gt;&lt;/p&gt;&lt;p style=&quot;margin:0px;margin-left:4px;&quot;&gt;EnvironmentVariablesConfigurationProvider&lt;br&gt;&lt;/p&gt;&lt;p style=&quot;margin:0px;margin-left:4px;&quot;&gt;KeyPerFileConfigurationProvider&lt;br&gt;&lt;/p&gt;" style="verticalAlign=top;align=left;overflow=fill;html=1;whiteSpace=wrap;" parent="1" vertex="1">
          <mxGeometry x="-540" y="-639" width="240" height="109" as="geometry" />
        </mxCell>
        <mxCell id="aCgiojUaGtQJ8ndLfyiy-21" value="&lt;p style=&quot;margin:0px;margin-top:4px;text-align:center;&quot;&gt;&lt;span style=&quot;background-color: initial; text-align: left;&quot;&gt;&lt;b&gt;Реализации&lt;/b&gt;&lt;/span&gt;&lt;br&gt;&lt;/p&gt;&lt;hr size=&quot;1&quot; style=&quot;border-style:solid;&quot;&gt;&lt;p style=&quot;margin:0px;margin-left:4px;&quot;&gt;IniConfigurationSource&lt;br&gt;&lt;/p&gt;&lt;p style=&quot;margin:0px;margin-left:4px;&quot;&gt;JsonConfigurationSource&lt;br&gt;&lt;/p&gt;&lt;p style=&quot;margin:0px;margin-left:4px;&quot;&gt;KeyPerFileConfigurationSource&lt;/p&gt;&lt;p style=&quot;margin:0px;margin-left:4px;&quot;&gt;XmlConfigurationSource&amp;nbsp;&lt;br&gt;&lt;/p&gt;" style="verticalAlign=top;align=left;overflow=fill;html=1;whiteSpace=wrap;" parent="1" vertex="1">
          <mxGeometry x="640" y="-575.5" width="180" height="105.5" as="geometry" />
        </mxCell>
        <mxCell id="aCgiojUaGtQJ8ndLfyiy-22" value="" style="endArrow=block;dashed=1;endFill=0;endSize=12;html=1;rounded=0;exitX=0.5;exitY=0;exitDx=0;exitDy=0;entryX=0.5;entryY=1;entryDx=0;entryDy=0;" parent="1" source="aCgiojUaGtQJ8ndLfyiy-21" target="jRoDtuM2xoWVMHSKAYaA-3" edge="1">
          <mxGeometry width="160" relative="1" as="geometry">
            <mxPoint x="600" y="-600" as="sourcePoint" />
            <mxPoint x="730" y="-590" as="targetPoint" />
          </mxGeometry>
        </mxCell>
        <mxCell id="aCgiojUaGtQJ8ndLfyiy-23" value="" style="endArrow=block;dashed=1;endFill=0;endSize=12;html=1;rounded=0;entryX=0.75;entryY=1;entryDx=0;entryDy=0;exitX=0.25;exitY=0;exitDx=0;exitDy=0;" parent="1" source="jRoDtuM2xoWVMHSKAYaA-3" target="V1luG3iUTrNZWRXgEADD-12" edge="1">
          <mxGeometry width="160" relative="1" as="geometry">
            <mxPoint x="730" y="-639" as="sourcePoint" />
            <mxPoint x="530" y="-680" as="targetPoint" />
          </mxGeometry>
        </mxCell>
        <mxCell id="aCgiojUaGtQJ8ndLfyiy-24" value="&lt;p style=&quot;margin:0px;margin-top:4px;text-align:center;&quot;&gt;&lt;span style=&quot;background-color: initial; text-align: left;&quot;&gt;&lt;b&gt;Реализации&lt;/b&gt;&lt;/span&gt;&lt;br&gt;&lt;/p&gt;&lt;hr size=&quot;1&quot; style=&quot;border-style:solid;&quot;&gt;&lt;p style=&quot;margin:0px;margin-left:4px;&quot;&gt;IniStreamConfigurationSource&lt;br&gt;&lt;/p&gt;&lt;p style=&quot;margin:0px;margin-left:4px;&quot;&gt;JsonStreamConfigurationSource&lt;br&gt;&lt;/p&gt;&lt;p style=&quot;margin:0px;margin-left:4px;&quot;&gt;XmlStreamConfigurationSource&lt;br&gt;&lt;/p&gt;" style="verticalAlign=top;align=left;overflow=fill;html=1;whiteSpace=wrap;" parent="1" vertex="1">
          <mxGeometry x="430" y="-571" width="180" height="121" as="geometry" />
        </mxCell>
        <mxCell id="aCgiojUaGtQJ8ndLfyiy-25" value="" style="endArrow=block;dashed=1;endFill=0;endSize=12;html=1;rounded=0;entryX=0.5;entryY=1;entryDx=0;entryDy=0;exitX=0.5;exitY=0;exitDx=0;exitDy=0;" parent="1" source="aCgiojUaGtQJ8ndLfyiy-24" target="jRoDtuM2xoWVMHSKAYaA-5" edge="1">
          <mxGeometry width="160" relative="1" as="geometry">
            <mxPoint x="740" y="-550" as="sourcePoint" />
            <mxPoint x="500" y="-600" as="targetPoint" />
          </mxGeometry>
        </mxCell>
        <mxCell id="aCgiojUaGtQJ8ndLfyiy-27" value="" style="endArrow=block;dashed=1;endFill=0;endSize=12;html=1;rounded=0;entryX=0.75;entryY=1;entryDx=0;entryDy=0;exitX=0.5;exitY=0;exitDx=0;exitDy=0;" parent="1" source="jRoDtuM2xoWVMHSKAYaA-8" target="jRoDtuM2xoWVMHSKAYaA-7" edge="1">
          <mxGeometry width="160" relative="1" as="geometry">
            <mxPoint x="-40" y="-670" as="sourcePoint" />
            <mxPoint x="-120" y="-670" as="targetPoint" />
          </mxGeometry>
        </mxCell>
        <mxCell id="aCgiojUaGtQJ8ndLfyiy-29" value="&lt;p style=&quot;margin:0px;margin-top:4px;text-align:center;&quot;&gt;&lt;span style=&quot;background-color: initial; text-align: left;&quot;&gt;&lt;b&gt;Реализации&lt;/b&gt;&lt;/span&gt;&lt;br&gt;&lt;/p&gt;&lt;hr size=&quot;1&quot; style=&quot;border-style:solid;&quot;&gt;&lt;p style=&quot;margin:0px;margin-left:4px;&quot;&gt;IniConfigurationProvider&lt;br&gt;&lt;/p&gt;&lt;p style=&quot;margin:0px;margin-left:4px;&quot;&gt;JsonConfigurationProvider&lt;br&gt;&lt;/p&gt;&lt;p style=&quot;margin:0px;margin-left:4px;&quot;&gt;XmlConfigurationProvider&lt;br&gt;&lt;/p&gt;" style="verticalAlign=top;align=left;overflow=fill;html=1;whiteSpace=wrap;" parent="1" vertex="1">
          <mxGeometry x="-70" y="-570" width="160" height="80" as="geometry" />
        </mxCell>
        <mxCell id="aCgiojUaGtQJ8ndLfyiy-30" value="" style="endArrow=block;dashed=1;endFill=0;endSize=12;html=1;rounded=0;entryX=0.5;entryY=1;entryDx=0;entryDy=0;exitX=0.5;exitY=0;exitDx=0;exitDy=0;" parent="1" source="aCgiojUaGtQJ8ndLfyiy-29" target="jRoDtuM2xoWVMHSKAYaA-8" edge="1">
          <mxGeometry width="160" relative="1" as="geometry">
            <mxPoint x="-80" y="-400" as="sourcePoint" />
            <mxPoint x="-40" y="-570" as="targetPoint" />
          </mxGeometry>
        </mxCell>
        <mxCell id="aCgiojUaGtQJ8ndLfyiy-32" value="" style="endArrow=block;dashed=1;endFill=0;endSize=12;html=1;rounded=0;entryX=0.5;entryY=1;entryDx=0;entryDy=0;exitX=0.5;exitY=0;exitDx=0;exitDy=0;" parent="1" source="jRoDtuM2xoWVMHSKAYaA-10" target="jRoDtuM2xoWVMHSKAYaA-7" edge="1">
          <mxGeometry width="160" relative="1" as="geometry">
            <mxPoint x="-190" y="-660" as="sourcePoint" />
            <mxPoint x="-160" y="-670" as="targetPoint" />
          </mxGeometry>
        </mxCell>
        <mxCell id="aCgiojUaGtQJ8ndLfyiy-33" value="&lt;p style=&quot;margin:0px;margin-top:4px;text-align:center;&quot;&gt;&lt;span style=&quot;background-color: initial; text-align: left;&quot;&gt;&lt;b&gt;Реализации&lt;/b&gt;&lt;/span&gt;&lt;br&gt;&lt;/p&gt;&lt;hr size=&quot;1&quot; style=&quot;border-style:solid;&quot;&gt;&lt;p style=&quot;margin:0px;margin-left:4px;&quot;&gt;IniStreamConfigurationProvider&lt;br&gt;&lt;/p&gt;&lt;p style=&quot;margin:0px;margin-left:4px;&quot;&gt;JsonStreamConfigurationProvider&lt;br&gt;&lt;/p&gt;&lt;p style=&quot;margin:0px;margin-left:4px;&quot;&gt;XmlStreamConfigurationProvider&lt;br&gt;&lt;/p&gt;" style="verticalAlign=top;align=left;overflow=fill;html=1;whiteSpace=wrap;" parent="1" vertex="1">
          <mxGeometry x="-280" y="-570" width="190" height="80" as="geometry" />
        </mxCell>
        <mxCell id="aCgiojUaGtQJ8ndLfyiy-34" value="" style="endArrow=block;dashed=1;endFill=0;endSize=12;html=1;rounded=0;entryX=0.5;entryY=1;entryDx=0;entryDy=0;exitX=0.5;exitY=0;exitDx=0;exitDy=0;" parent="1" source="aCgiojUaGtQJ8ndLfyiy-33" target="jRoDtuM2xoWVMHSKAYaA-10" edge="1">
          <mxGeometry width="160" relative="1" as="geometry">
            <mxPoint x="-300" y="-410" as="sourcePoint" />
            <mxPoint x="-230" y="-570" as="targetPoint" />
          </mxGeometry>
        </mxCell>
        <mxCell id="jRoDtuM2xoWVMHSKAYaA-3" value="&lt;p style=&quot;margin:0px;margin-top:4px;text-align:center;&quot;&gt;&lt;i&gt;&amp;lt;&amp;lt;Abstract class&amp;gt;&amp;gt;&lt;/i&gt;&lt;br&gt;&lt;b style=&quot;text-align: left;&quot;&gt;FileConfigurationSource&lt;/b&gt;&lt;/p&gt;" style="verticalAlign=top;align=left;overflow=fill;html=1;whiteSpace=wrap;" parent="1" vertex="1">
          <mxGeometry x="620" y="-640" width="160" height="40" as="geometry" />
        </mxCell>
        <mxCell id="jRoDtuM2xoWVMHSKAYaA-5" value="&lt;p style=&quot;margin:0px;margin-top:4px;text-align:center;&quot;&gt;&lt;i&gt;&amp;lt;&amp;lt;Abstract class&amp;gt;&amp;gt;&lt;/i&gt;&lt;br&gt;&lt;b&gt;StreamConfigurationSource&lt;/b&gt;&lt;/p&gt;" style="verticalAlign=top;align=left;overflow=fill;html=1;whiteSpace=wrap;" parent="1" vertex="1">
          <mxGeometry x="430" y="-640" width="170" height="40" as="geometry" />
        </mxCell>
        <mxCell id="jRoDtuM2xoWVMHSKAYaA-6" value="&lt;p style=&quot;margin:0px;margin-top:4px;text-align:center;&quot;&gt;&lt;i&gt;&amp;lt;&amp;lt;Abstract class&amp;gt;&amp;gt;&lt;/i&gt;&lt;br&gt;&lt;b&gt;StreamConfigurationProvider&lt;/b&gt;&lt;br&gt;&lt;/p&gt;" style="verticalAlign=top;align=left;overflow=fill;html=1;whiteSpace=wrap;" parent="1" vertex="1">
          <mxGeometry x="-10" y="-760" width="180" height="40" as="geometry" />
        </mxCell>
        <mxCell id="jRoDtuM2xoWVMHSKAYaA-7" value="&lt;p style=&quot;margin:0px;margin-top:4px;text-align:center;&quot;&gt;&lt;i&gt;&amp;lt;&amp;lt;Abstract class&amp;gt;&amp;gt;&lt;/i&gt;&lt;br&gt;&lt;b&gt;ConfigurationProvider&lt;/b&gt;&lt;br&gt;&lt;/p&gt;" style="verticalAlign=top;align=left;overflow=fill;html=1;whiteSpace=wrap;" parent="1" vertex="1">
          <mxGeometry x="-170" y="-760" width="140" height="40" as="geometry" />
        </mxCell>
        <mxCell id="jRoDtuM2xoWVMHSKAYaA-8" value="&lt;p style=&quot;margin:0px;margin-top:4px;text-align:center;&quot;&gt;&lt;i&gt;&amp;lt;&amp;lt;Abstract class&amp;gt;&amp;gt;&lt;/i&gt;&lt;br&gt;&lt;b style=&quot;text-align: left;&quot;&gt;FileConfigurationProvider&lt;/b&gt;&lt;br&gt;&lt;/p&gt;" style="verticalAlign=top;align=left;overflow=fill;html=1;whiteSpace=wrap;" parent="1" vertex="1">
          <mxGeometry x="-70" y="-640" width="160" height="40" as="geometry" />
        </mxCell>
        <mxCell id="jRoDtuM2xoWVMHSKAYaA-10" value="&lt;p style=&quot;margin:0px;margin-top:4px;text-align:center;&quot;&gt;&lt;i&gt;&amp;lt;&amp;lt;Abstract class&amp;gt;&amp;gt;&lt;/i&gt;&lt;br&gt;&lt;b style=&quot;text-align: left;&quot;&gt;StreamConfigurationProvider&lt;/b&gt;&lt;br&gt;&lt;/p&gt;" style="verticalAlign=top;align=left;overflow=fill;html=1;whiteSpace=wrap;" parent="1" vertex="1">
          <mxGeometry x="-280" y="-640" width="190" height="40" as="geometry" />
        </mxCell>
      </root>
    </mxGraphModel>
  </diagram>
  <diagram id="ew2dWQ-LfC_UsxgOQe5H" name="Hosting">
    <mxGraphModel dx="1625" dy="621" grid="1" gridSize="10" guides="1" tooltips="1" connect="1" arrows="1" fold="1" page="1" pageScale="1" pageWidth="827" pageHeight="1169" math="0" shadow="0">
      <root>
        <mxCell id="0" />
        <mxCell id="1" parent="0" />
        <mxCell id="uyobxcFyEFNc65TMDI60-1" value="&lt;p style=&quot;margin:0px;margin-top:4px;text-align:center;&quot;&gt;&lt;i&gt;&amp;lt;&amp;lt;Interface&amp;gt;&amp;gt;&lt;/i&gt;&lt;br&gt;&lt;b&gt;IHost&lt;/b&gt;&lt;/p&gt;&lt;hr size=&quot;1&quot; style=&quot;border-style:solid;&quot;&gt;&lt;p style=&quot;margin:0px;margin-left:4px;&quot;&gt;Services: &lt;i&gt;IServiceProvider&lt;/i&gt;&lt;br&gt;StartAsync: &lt;i&gt;Task&lt;/i&gt;&lt;/p&gt;&lt;p style=&quot;margin:0px;margin-left:4px;&quot;&gt;StopAsync:&amp;nbsp;&lt;i style=&quot;background-color: initial;&quot;&gt;Task&lt;/i&gt;&lt;br&gt;&lt;/p&gt;" style="verticalAlign=top;align=left;overflow=fill;html=1;whiteSpace=wrap;" parent="1" vertex="1">
          <mxGeometry x="-240" y="40" width="160" height="100" as="geometry" />
        </mxCell>
        <mxCell id="uyobxcFyEFNc65TMDI60-2" value="&lt;p style=&quot;margin:0px;margin-top:4px;text-align:center;&quot;&gt;&lt;i&gt;&amp;lt;&amp;lt;Interface&amp;gt;&amp;gt;&lt;/i&gt;&lt;br&gt;&lt;span style=&quot;background-color: initial; text-align: left;&quot;&gt;&lt;b&gt;IHostApplicationBuilder&lt;/b&gt;&lt;/span&gt;&lt;/p&gt;&lt;hr size=&quot;1&quot; style=&quot;border-style:solid;&quot;&gt;&lt;p style=&quot;margin:0px;margin-left:4px;&quot;&gt;Properties: &lt;i&gt;IDictionary&amp;lt;object, object&amp;gt;&lt;/i&gt;&lt;br&gt;Configuration:&amp;nbsp;&lt;span style=&quot;background-color: initial;&quot;&gt;&lt;i&gt;IConfigurationManager&lt;/i&gt;&lt;/span&gt;&lt;/p&gt;&lt;p style=&quot;margin:0px;margin-left:4px;&quot;&gt;Environment:&amp;nbsp;&lt;span style=&quot;background-color: initial;&quot;&gt;&lt;i&gt;IHostEnvironment&lt;/i&gt;&lt;/span&gt;&lt;br&gt;&lt;/p&gt;&lt;p style=&quot;margin:0px;margin-left:4px;&quot;&gt;&lt;span style=&quot;background-color: initial;&quot;&gt;Logging:&amp;nbsp;&lt;/span&gt;&lt;span style=&quot;background-color: initial;&quot;&gt;&lt;i&gt;ILoggingBuilder&lt;/i&gt;&lt;/span&gt;&lt;span style=&quot;background-color: initial;&quot;&gt;&lt;br&gt;&lt;/span&gt;&lt;/p&gt;&lt;p style=&quot;margin:0px;margin-left:4px;&quot;&gt;&lt;span style=&quot;background-color: initial;&quot;&gt;Metrics:&amp;nbsp;&lt;/span&gt;&lt;span style=&quot;background-color: initial;&quot;&gt;&lt;i&gt;IMetricsBuilder&lt;/i&gt;&lt;/span&gt;&lt;span style=&quot;background-color: initial;&quot;&gt;&lt;br&gt;&lt;/span&gt;&lt;/p&gt;&lt;p style=&quot;margin:0px;margin-left:4px;&quot;&gt;&lt;span style=&quot;background-color: initial;&quot;&gt;Services:&amp;nbsp;&lt;/span&gt;&lt;span style=&quot;background-color: initial;&quot;&gt;&lt;i&gt;IServiceCollection&lt;/i&gt;&lt;/span&gt;&lt;span style=&quot;background-color: initial;&quot;&gt;&lt;br&gt;&lt;/span&gt;&lt;/p&gt;&lt;p style=&quot;margin:0px;margin-left:4px;&quot;&gt;&lt;span style=&quot;background-color: initial;&quot;&gt;&lt;i&gt;&lt;br&gt;&lt;/i&gt;&lt;/span&gt;&lt;/p&gt;&lt;p style=&quot;margin:0px;margin-left:4px;&quot;&gt;&lt;span style=&quot;background-color: initial;&quot;&gt;ConfigureContainer:&lt;i&gt;&amp;nbsp;&lt;/i&gt;&lt;/span&gt;&lt;span style=&quot;background-color: initial;&quot;&gt;&lt;i&gt;void&lt;/i&gt;&lt;/span&gt;&lt;span style=&quot;background-color: initial;&quot;&gt;&lt;i&gt;&lt;br&gt;&lt;/i&gt;&lt;/span&gt;&lt;/p&gt;" style="verticalAlign=top;align=left;overflow=fill;html=1;whiteSpace=wrap;" parent="1" vertex="1">
          <mxGeometry x="240" y="240" width="240" height="170" as="geometry" />
        </mxCell>
        <mxCell id="uyobxcFyEFNc65TMDI60-3" value="&lt;p style=&quot;margin:0px;margin-top:4px;text-align:center;&quot;&gt;&lt;i&gt;&amp;lt;&amp;lt;Interface&amp;gt;&amp;gt;&lt;/i&gt;&lt;br&gt;&lt;span style=&quot;background-color: initial; text-align: left;&quot;&gt;&lt;b&gt;IHostApplicationLifetime&lt;/b&gt;&lt;/span&gt;&lt;/p&gt;&lt;hr size=&quot;1&quot; style=&quot;border-style:solid;&quot;&gt;&lt;p style=&quot;margin:0px;margin-left:4px;&quot;&gt;ApplicationStarted: &lt;i&gt;CancellationToken&lt;/i&gt;&lt;br&gt;ApplicationStopping:&amp;nbsp;&lt;i&gt;CancellationToken&lt;/i&gt;&lt;br&gt;&lt;/p&gt;&lt;p style=&quot;margin:0px;margin-left:4px;&quot;&gt;ApplicationStopped:&amp;nbsp;&lt;i&gt;CancellationToken&lt;/i&gt;&lt;br&gt;&lt;/p&gt;&lt;p style=&quot;margin:0px;margin-left:4px;&quot;&gt;&lt;i&gt;&lt;br&gt;&lt;/i&gt;&lt;/p&gt;&lt;p style=&quot;margin:0px;margin-left:4px;&quot;&gt;StopApplication: &lt;i&gt;void&lt;/i&gt;&lt;br&gt;&lt;/p&gt;" style="verticalAlign=top;align=left;overflow=fill;html=1;whiteSpace=wrap;" parent="1" vertex="1">
          <mxGeometry x="840" y="240" width="250" height="130" as="geometry" />
        </mxCell>
        <mxCell id="uyobxcFyEFNc65TMDI60-4" value="&lt;p style=&quot;margin:0px;margin-top:4px;text-align:center;&quot;&gt;&lt;i&gt;&amp;lt;&amp;lt;Interface&amp;gt;&amp;gt;&lt;/i&gt;&lt;br&gt;&lt;span style=&quot;background-color: initial; text-align: left;&quot;&gt;&lt;b&gt;IHostBuilder&lt;/b&gt;&lt;/span&gt;&lt;/p&gt;&lt;hr size=&quot;1&quot; style=&quot;border-style:solid;&quot;&gt;&lt;p style=&quot;margin:0px;margin-left:4px;&quot;&gt;Properties: &lt;i&gt;IDictionary&amp;lt;object, object&amp;gt;&lt;/i&gt;&lt;/p&gt;&lt;p style=&quot;margin:0px;margin-left:4px;&quot;&gt;&lt;i&gt;&lt;br&gt;&lt;/i&gt;ConfigureHostConfiguration:&amp;nbsp;&lt;span style=&quot;background-color: initial;&quot;&gt;&lt;i&gt;IHostBuilder&lt;/i&gt;&lt;/span&gt;&lt;/p&gt;&lt;p style=&quot;margin:0px;margin-left:4px;&quot;&gt;ConfigureAppConfiguration:&amp;nbsp;&lt;span style=&quot;background-color: initial;&quot;&gt;&lt;i&gt;IHostBuilder&lt;/i&gt;&lt;/span&gt;&lt;br&gt;&lt;/p&gt;&lt;p style=&quot;margin:0px;margin-left:4px;&quot;&gt;ConfigureServices:&amp;nbsp;&lt;span style=&quot;background-color: initial;&quot;&gt;&lt;i&gt;IHostBuilder&lt;/i&gt;&lt;/span&gt;&lt;span style=&quot;background-color: initial;&quot;&gt;&lt;i&gt;&lt;br&gt;&lt;/i&gt;&lt;/span&gt;&lt;/p&gt;&lt;p style=&quot;margin:0px;margin-left:4px;&quot;&gt;UseServiceProviderFactory:&amp;nbsp;&lt;span style=&quot;background-color: initial;&quot;&gt;&lt;i&gt;IHostBuilder&lt;/i&gt;&lt;/span&gt;&lt;span style=&quot;background-color: initial;&quot;&gt;&lt;i&gt;&lt;br&gt;&lt;/i&gt;&lt;/span&gt;&lt;/p&gt;&lt;p style=&quot;margin:0px;margin-left:4px;&quot;&gt;UseServiceProviderFactory:&amp;nbsp;&lt;span style=&quot;background-color: initial;&quot;&gt;&lt;i&gt;IHostBuilder&lt;/i&gt;&lt;/span&gt;&lt;span style=&quot;background-color: initial;&quot;&gt;&lt;i&gt;&lt;br&gt;&lt;/i&gt;&lt;/span&gt;&lt;/p&gt;&lt;p style=&quot;margin:0px;margin-left:4px;&quot;&gt;ConfigureContainer:&amp;nbsp;&lt;span style=&quot;background-color: initial;&quot;&gt;&lt;i&gt;IHostBuilder&lt;/i&gt;&lt;/span&gt;&lt;span style=&quot;background-color: initial;&quot;&gt;&lt;i&gt;&lt;br&gt;&lt;/i&gt;&lt;/span&gt;&lt;/p&gt;&lt;p style=&quot;margin:0px;margin-left:4px;&quot;&gt;&lt;span style=&quot;background-color: initial;&quot;&gt;Build:&amp;nbsp;&lt;/span&gt;&lt;span style=&quot;background-color: initial;&quot;&gt;&lt;i&gt;IHost&lt;/i&gt;&lt;/span&gt;&lt;span style=&quot;background-color: initial;&quot;&gt;&lt;i&gt;&lt;br&gt;&lt;/i&gt;&lt;/span&gt;&lt;/p&gt;" style="verticalAlign=top;align=left;overflow=fill;html=1;whiteSpace=wrap;" parent="1" vertex="1">
          <mxGeometry x="240" y="40" width="240" height="180" as="geometry" />
        </mxCell>
        <mxCell id="uyobxcFyEFNc65TMDI60-5" value="&lt;p style=&quot;margin:0px;margin-top:4px;text-align:center;&quot;&gt;&lt;i&gt;&amp;lt;&amp;lt;Interface&amp;gt;&amp;gt;&lt;/i&gt;&lt;br&gt;&lt;span style=&quot;background-color: initial; text-align: left;&quot;&gt;&lt;b&gt;IHostLifetime&lt;/b&gt;&lt;/span&gt;&lt;/p&gt;&lt;hr size=&quot;1&quot; style=&quot;border-style:solid;&quot;&gt;&lt;p style=&quot;margin:0px;margin-left:4px;&quot;&gt;WaitForStartAsync: &lt;i&gt;Task&lt;/i&gt;&lt;br&gt;&lt;/p&gt;&lt;p style=&quot;margin:0px;margin-left:4px;&quot;&gt;StopAsync:&amp;nbsp;&lt;i style=&quot;background-color: initial;&quot;&gt;Task&lt;/i&gt;&lt;br&gt;&lt;/p&gt;" style="verticalAlign=top;align=left;overflow=fill;html=1;whiteSpace=wrap;" parent="1" vertex="1">
          <mxGeometry x="840" y="40" width="250" height="80" as="geometry" />
        </mxCell>
        <mxCell id="uyobxcFyEFNc65TMDI60-6" value="&lt;p style=&quot;margin:0px;margin-top:4px;text-align:center;&quot;&gt;&lt;i&gt;&amp;lt;&amp;lt;Interface&amp;gt;&amp;gt;&lt;/i&gt;&lt;br&gt;&lt;span style=&quot;background-color: initial; text-align: left;&quot;&gt;&lt;b&gt;IHostedService&lt;/b&gt;&lt;/span&gt;&lt;/p&gt;&lt;hr size=&quot;1&quot; style=&quot;border-style:solid;&quot;&gt;&lt;p style=&quot;margin:0px;margin-left:4px;&quot;&gt;StartAsync: &lt;i&gt;Task&lt;/i&gt;&lt;/p&gt;&lt;p style=&quot;margin:0px;margin-left:4px;&quot;&gt;StopAsync:&amp;nbsp;&lt;i style=&quot;background-color: initial;&quot;&gt;Task&lt;/i&gt;&lt;br&gt;&lt;/p&gt;" style="verticalAlign=top;align=left;overflow=fill;html=1;whiteSpace=wrap;" parent="1" vertex="1">
          <mxGeometry x="-280" y="440" width="160" height="80" as="geometry" />
        </mxCell>
        <mxCell id="uyobxcFyEFNc65TMDI60-7" value="&lt;p style=&quot;margin:0px;margin-top:4px;text-align:center;&quot;&gt;&lt;i&gt;&amp;lt;&amp;lt;Interface&amp;gt;&amp;gt;&lt;/i&gt;&lt;br&gt;&lt;span style=&quot;background-color: initial; text-align: left;&quot;&gt;&lt;b&gt;IHostedLifecycleService&lt;/b&gt;&lt;/span&gt;&lt;/p&gt;&lt;hr size=&quot;1&quot; style=&quot;border-style:solid;&quot;&gt;&lt;p style=&quot;margin:0px;margin-left:4px;&quot;&gt;StartingAsync: &lt;i&gt;Task&lt;/i&gt;&lt;/p&gt;&lt;p style=&quot;margin:0px;margin-left:4px;&quot;&gt;StartedAsync:&amp;nbsp;&lt;i style=&quot;background-color: initial;&quot;&gt;Task&lt;/i&gt;&lt;br&gt;&lt;/p&gt;&lt;p style=&quot;margin: 0px 0px 0px 4px;&quot;&gt;StoppingAsync:&amp;nbsp;&lt;i&gt;Task&lt;/i&gt;&lt;/p&gt;&lt;p style=&quot;margin: 0px 0px 0px 4px;&quot;&gt;StoppedAsync:&amp;nbsp;&lt;i style=&quot;background-color: initial;&quot;&gt;Task&lt;/i&gt;&lt;/p&gt;" style="verticalAlign=top;align=left;overflow=fill;html=1;whiteSpace=wrap;" parent="1" vertex="1">
          <mxGeometry x="-280" y="560" width="160" height="110" as="geometry" />
        </mxCell>
        <mxCell id="uyobxcFyEFNc65TMDI60-8" value="" style="endArrow=block;dashed=1;endFill=0;endSize=12;html=1;rounded=0;entryX=0.5;entryY=1;entryDx=0;entryDy=0;exitX=0.5;exitY=0;exitDx=0;exitDy=0;" parent="1" source="uyobxcFyEFNc65TMDI60-7" target="uyobxcFyEFNc65TMDI60-6" edge="1">
          <mxGeometry width="160" relative="1" as="geometry">
            <mxPoint x="-140" y="690" as="sourcePoint" />
            <mxPoint x="20" y="690" as="targetPoint" />
          </mxGeometry>
        </mxCell>
        <mxCell id="uyobxcFyEFNc65TMDI60-9" value="&lt;p style=&quot;margin:0px;margin-top:4px;text-align:center;&quot;&gt;&lt;i&gt;&amp;lt;&amp;lt;Interface&amp;gt;&amp;gt; устарел&lt;/i&gt;&lt;br&gt;&lt;span style=&quot;background-color: initial; text-align: left;&quot;&gt;&lt;b&gt;IHostingEnvironment&lt;/b&gt;&lt;/span&gt;&lt;/p&gt;&lt;hr size=&quot;1&quot; style=&quot;border-style:solid;&quot;&gt;&lt;p style=&quot;margin:0px;margin-left:4px;&quot;&gt;EnvironmentName:&amp;nbsp;&lt;span style=&quot;background-color: initial;&quot;&gt;&lt;i&gt;string&lt;/i&gt;&lt;/span&gt;&lt;/p&gt;&lt;p style=&quot;margin:0px;margin-left:4px;&quot;&gt;ApplicationName:&amp;nbsp;&lt;span style=&quot;background-color: initial;&quot;&gt;&lt;i&gt;string&lt;/i&gt;&lt;/span&gt;&lt;br&gt;&lt;/p&gt;&lt;p style=&quot;margin:0px;margin-left:4px;&quot;&gt;&lt;span style=&quot;background-color: initial;&quot;&gt;ContentRootPath:&amp;nbsp;&lt;/span&gt;&lt;span style=&quot;background-color: initial;&quot;&gt;&lt;i&gt;string&lt;/i&gt;&lt;/span&gt;&lt;span style=&quot;background-color: initial;&quot;&gt;&lt;br&gt;&lt;/span&gt;&lt;/p&gt;&lt;p style=&quot;margin:0px;margin-left:4px;&quot;&gt;&lt;span style=&quot;background-color: initial;&quot;&gt;ContentRootFileProvider:&lt;i&gt;&amp;nbsp;&lt;/i&gt;&lt;/span&gt;&lt;span style=&quot;background-color: initial;&quot;&gt;&lt;i&gt;IFileProvider&lt;/i&gt;&lt;/span&gt;&lt;span style=&quot;background-color: initial;&quot;&gt;&lt;i&gt;&lt;br&gt;&lt;/i&gt;&lt;/span&gt;&lt;/p&gt;" style="verticalAlign=top;align=left;overflow=fill;html=1;whiteSpace=wrap;" parent="1" vertex="1">
          <mxGeometry x="1840" y="40" width="220" height="110" as="geometry" />
        </mxCell>
        <mxCell id="uyobxcFyEFNc65TMDI60-10" value="&lt;p style=&quot;margin:0px;margin-top:4px;text-align:center;&quot;&gt;&lt;i&gt;&amp;lt;&amp;lt;Abstract&amp;gt;&amp;gt;&lt;/i&gt;&lt;br&gt;&lt;span style=&quot;background-color: initial; text-align: left;&quot;&gt;&lt;b&gt;BackgroundService&lt;/b&gt;&lt;/span&gt;&lt;/p&gt;&lt;hr size=&quot;1&quot; style=&quot;border-style:solid;&quot;&gt;&lt;p style=&quot;margin:0px;margin-left:4px;&quot;&gt;- _executeTask:&amp;nbsp;&lt;span style=&quot;background-color: initial;&quot;&gt;&lt;i&gt;Task?&lt;/i&gt;&lt;/span&gt;&lt;/p&gt;&lt;p style=&quot;margin:0px;margin-left:4px;&quot;&gt;- ExecuteTask:&amp;nbsp;&lt;span style=&quot;background-color: initial;&quot;&gt;&lt;i&gt;Task?&lt;/i&gt;&lt;/span&gt;&lt;br&gt;&lt;/p&gt;&lt;p style=&quot;margin:0px;margin-left:4px;&quot;&gt;&lt;span style=&quot;background-color: initial;&quot;&gt;&lt;i&gt;-&amp;nbsp;&lt;/i&gt;&lt;/span&gt;&lt;span style=&quot;background-color: initial;&quot;&gt;ExecuteAsync:&lt;i&gt;&amp;nbsp;&lt;/i&gt;&lt;/span&gt;&lt;span style=&quot;background-color: initial;&quot;&gt;&lt;i&gt;Task&lt;/i&gt;&lt;/span&gt;&lt;/p&gt;&lt;p style=&quot;margin:0px;margin-left:4px;&quot;&gt;&lt;span style=&quot;background-color: initial;&quot;&gt;&lt;i&gt;&lt;br&gt;&lt;/i&gt;&lt;/span&gt;&lt;/p&gt;&lt;p style=&quot;margin:0px;margin-left:4px;&quot;&gt;&lt;span style=&quot;background-color: initial;&quot;&gt;StartAsync:&lt;i&gt;&amp;nbsp;&lt;/i&gt;&lt;/span&gt;&lt;span style=&quot;background-color: initial;&quot;&gt;&lt;i&gt;Task&lt;/i&gt;&lt;/span&gt;&lt;span style=&quot;background-color: initial;&quot;&gt;&lt;i&gt;&lt;br&gt;&lt;/i&gt;&lt;/span&gt;&lt;/p&gt;&lt;p style=&quot;margin:0px;margin-left:4px;&quot;&gt;&lt;span style=&quot;background-color: initial;&quot;&gt;StopAsync:&lt;i&gt; Task&lt;br&gt;&lt;/i&gt;&lt;/span&gt;&lt;/p&gt;&lt;p style=&quot;margin:0px;margin-left:4px;&quot;&gt;&lt;span style=&quot;background-color: initial;&quot;&gt;Dispose:&lt;i&gt; void&lt;br&gt;&lt;/i&gt;&lt;/span&gt;&lt;/p&gt;" style="verticalAlign=top;align=left;overflow=fill;html=1;whiteSpace=wrap;" parent="1" vertex="1">
          <mxGeometry x="-90" y="560" width="160" height="150" as="geometry" />
        </mxCell>
        <mxCell id="uyobxcFyEFNc65TMDI60-11" value="" style="endArrow=block;dashed=1;endFill=0;endSize=12;html=1;rounded=0;entryX=0.75;entryY=1;entryDx=0;entryDy=0;exitX=0.5;exitY=0;exitDx=0;exitDy=0;" parent="1" source="uyobxcFyEFNc65TMDI60-10" target="uyobxcFyEFNc65TMDI60-6" edge="1">
          <mxGeometry width="160" relative="1" as="geometry">
            <mxPoint x="-240" y="430" as="sourcePoint" />
            <mxPoint x="-190" y="530" as="targetPoint" />
          </mxGeometry>
        </mxCell>
        <mxCell id="uyobxcFyEFNc65TMDI60-12" value="&lt;p style=&quot;margin:0px;margin-top:4px;text-align:center;&quot;&gt;&lt;span style=&quot;background-color: initial; text-align: left;&quot;&gt;&lt;b&gt;HostBuilderContext&lt;/b&gt;&lt;/span&gt;&lt;/p&gt;&lt;hr size=&quot;1&quot; style=&quot;border-style:solid;&quot;&gt;&lt;p style=&quot;margin:0px;margin-left:4px;&quot;&gt;HostingEnvironment:&amp;nbsp;&lt;span style=&quot;background-color: initial;&quot;&gt;&lt;i&gt;IHostEnvironment&lt;/i&gt;&lt;/span&gt;&lt;/p&gt;&lt;p style=&quot;margin:0px;margin-left:4px;&quot;&gt;Configuration:&amp;nbsp;&lt;span style=&quot;background-color: initial;&quot;&gt;&lt;i&gt;IConfiguration&lt;/i&gt;&lt;/span&gt;&lt;br&gt;&lt;/p&gt;&lt;p style=&quot;margin:0px;margin-left:4px;&quot;&gt;&lt;span style=&quot;background-color: initial;&quot;&gt;Properties&lt;/span&gt;&lt;span style=&quot;background-color: initial;&quot;&gt;:&amp;nbsp;&lt;/span&gt;&lt;span style=&quot;background-color: initial;&quot;&gt;&lt;i&gt;IDictionary&amp;lt;object, object&amp;gt;&lt;/i&gt;&lt;/span&gt;&lt;/p&gt;" style="verticalAlign=top;align=left;overflow=fill;html=1;whiteSpace=wrap;" parent="1" vertex="1">
          <mxGeometry x="1170" y="240" width="220" height="80" as="geometry" />
        </mxCell>
        <mxCell id="uyobxcFyEFNc65TMDI60-13" value="&lt;p style=&quot;margin: 4px 0px 0px; text-align: center;&quot;&gt;&lt;span style=&quot;background-color: initial; text-align: left;&quot;&gt;&lt;b&gt;HostEnvironmentEnvExtensions&lt;/b&gt;&lt;/span&gt;&lt;/p&gt;&lt;hr size=&quot;1&quot; style=&quot;border-style:solid;&quot;&gt;&lt;p style=&quot;margin:0px;margin-left:4px;&quot;&gt;IsDevelopment():&amp;nbsp;&lt;span style=&quot;background-color: initial;&quot;&gt;&lt;i&gt;bool&lt;/i&gt;&lt;/span&gt;&lt;/p&gt;&lt;p style=&quot;margin:0px;margin-left:4px;&quot;&gt;IsStaging():&amp;nbsp;&lt;i style=&quot;background-color: initial;&quot;&gt;bool&lt;/i&gt;&lt;br&gt;&lt;/p&gt;&lt;p style=&quot;margin:0px;margin-left:4px;&quot;&gt;&lt;span style=&quot;background-color: initial;&quot;&gt;IsProduction()&lt;/span&gt;&lt;span style=&quot;background-color: initial;&quot;&gt;:&amp;nbsp;&lt;/span&gt;&lt;span style=&quot;background-color: initial;&quot;&gt;&lt;i&gt;bool&lt;/i&gt;&lt;/span&gt;&lt;/p&gt;&lt;p style=&quot;margin:0px;margin-left:4px;&quot;&gt;&lt;span style=&quot;background-color: initial;&quot;&gt;IsEnvironment():&lt;i&gt; bool&lt;/i&gt;&lt;/span&gt;&lt;span style=&quot;background-color: initial;&quot;&gt;&lt;i&gt;&amp;nbsp;&lt;br&gt;&lt;/i&gt;&lt;/span&gt;&lt;/p&gt;" style="verticalAlign=top;align=left;overflow=fill;html=1;whiteSpace=wrap;" parent="1" vertex="1">
          <mxGeometry x="1460" y="40" width="200" height="100" as="geometry" />
        </mxCell>
        <mxCell id="uyobxcFyEFNc65TMDI60-14" value="" style="endArrow=diamondThin;endFill=1;endSize=24;html=1;rounded=0;exitX=0;exitY=0;exitDx=0;exitDy=0;entryX=1;entryY=0;entryDx=0;entryDy=0;" parent="1" source="uyobxcFyEFNc65TMDI60-13" target="JM8ovdiSpMAJHyzDJ7-T-1" edge="1">
          <mxGeometry width="160" relative="1" as="geometry">
            <mxPoint x="1700" y="310" as="sourcePoint" />
            <mxPoint x="1690" y="360" as="targetPoint" />
          </mxGeometry>
        </mxCell>
        <mxCell id="JM8ovdiSpMAJHyzDJ7-T-1" value="&lt;p style=&quot;margin:0px;margin-top:4px;text-align:center;&quot;&gt;&lt;i&gt;&amp;lt;&amp;lt;Interface&amp;gt;&amp;gt;&lt;/i&gt;&lt;br&gt;&lt;span style=&quot;background-color: initial; text-align: left;&quot;&gt;&lt;b&gt;IHostEnvironment&lt;/b&gt;&lt;/span&gt;&lt;/p&gt;&lt;hr size=&quot;1&quot; style=&quot;border-style:solid;&quot;&gt;&lt;p style=&quot;margin:0px;margin-left:4px;&quot;&gt;EnvironmentName:&amp;nbsp;&lt;span style=&quot;background-color: initial;&quot;&gt;&lt;i&gt;string&lt;/i&gt;&lt;/span&gt;&lt;/p&gt;&lt;p style=&quot;margin:0px;margin-left:4px;&quot;&gt;ApplicationName:&amp;nbsp;&lt;span style=&quot;background-color: initial;&quot;&gt;&lt;i&gt;string&lt;/i&gt;&lt;/span&gt;&lt;br&gt;&lt;/p&gt;&lt;p style=&quot;margin:0px;margin-left:4px;&quot;&gt;&lt;span style=&quot;background-color: initial;&quot;&gt;ContentRootPath:&amp;nbsp;&lt;/span&gt;&lt;span style=&quot;background-color: initial;&quot;&gt;&lt;i&gt;string&lt;/i&gt;&lt;/span&gt;&lt;span style=&quot;background-color: initial;&quot;&gt;&lt;br&gt;&lt;/span&gt;&lt;/p&gt;&lt;p style=&quot;margin:0px;margin-left:4px;&quot;&gt;&lt;span style=&quot;background-color: initial;&quot;&gt;ContentRootFileProvider:&lt;i&gt;&amp;nbsp;&lt;/i&gt;&lt;/span&gt;&lt;span style=&quot;background-color: initial;&quot;&gt;&lt;i&gt;IFileProvider&lt;/i&gt;&lt;/span&gt;&lt;span style=&quot;background-color: initial;&quot;&gt;&lt;i&gt;&lt;br&gt;&lt;/i&gt;&lt;/span&gt;&lt;/p&gt;" style="verticalAlign=top;align=left;overflow=fill;html=1;whiteSpace=wrap;" parent="1" vertex="1">
          <mxGeometry x="1170" y="40" width="220" height="110" as="geometry" />
        </mxCell>
        <mxCell id="wgLg8_wseOeeOl1m9A5z-1" value="&lt;p style=&quot;margin:0px;margin-top:4px;text-align:center;&quot;&gt;&lt;i&gt;&amp;lt;&amp;lt;Interface&amp;gt;&amp;gt; устарел&lt;/i&gt;&lt;br&gt;&lt;span style=&quot;background-color: initial; text-align: left;&quot;&gt;&lt;b&gt;IApplicationLifetime&lt;/b&gt;&lt;/span&gt;&lt;/p&gt;&lt;hr size=&quot;1&quot; style=&quot;border-style:solid;&quot;&gt;&lt;p style=&quot;margin:0px;margin-left:4px;&quot;&gt;ApplicationStarted:&amp;nbsp;&lt;span style=&quot;background-color: initial;&quot;&gt;&lt;i&gt;CancellationToken&lt;/i&gt;&lt;/span&gt;&lt;/p&gt;&lt;p style=&quot;margin:0px;margin-left:4px;&quot;&gt;ApplicationStopping:&amp;nbsp;&lt;span style=&quot;background-color: initial;&quot;&gt;&lt;i&gt;CancellationToken&lt;/i&gt;&lt;/span&gt;&lt;br&gt;&lt;/p&gt;&lt;p style=&quot;margin:0px;margin-left:4px;&quot;&gt;&lt;span style=&quot;background-color: initial;&quot;&gt;ApplicationStopped&lt;/span&gt;&lt;span style=&quot;background-color: initial;&quot;&gt;:&amp;nbsp;&lt;/span&gt;&lt;span style=&quot;background-color: initial;&quot;&gt;&lt;i&gt;CancellationToken&lt;/i&gt;&lt;/span&gt;&lt;span style=&quot;background-color: initial;&quot;&gt;&lt;br&gt;&lt;/span&gt;&lt;/p&gt;&lt;p style=&quot;margin:0px;margin-left:4px;&quot;&gt;&lt;span style=&quot;background-color: initial;&quot;&gt;StopApplication&lt;/span&gt;&lt;span style=&quot;background-color: initial;&quot;&gt;:&lt;i&gt;&amp;nbsp;void&lt;/i&gt;&lt;/span&gt;&lt;span style=&quot;background-color: initial;&quot;&gt;&lt;i&gt;&lt;br&gt;&lt;/i&gt;&lt;/span&gt;&lt;/p&gt;" style="verticalAlign=top;align=left;overflow=fill;html=1;whiteSpace=wrap;" parent="1" vertex="1">
          <mxGeometry x="1840" y="160" width="220" height="110" as="geometry" />
        </mxCell>
        <mxCell id="jK5Jf275oOoEdSAdVoY1-1" value="&lt;p style=&quot;text-align: center; margin: 4px 0px 0px;&quot;&gt;&lt;b&gt;HostingAbstractionsHostBuilderExtensions&lt;/b&gt;&lt;br&gt;&lt;/p&gt;&lt;hr size=&quot;1&quot; style=&quot;border-style:solid;&quot;&gt;&lt;p style=&quot;margin:0px;margin-left:4px;&quot;&gt;Start():&amp;nbsp;&lt;span style=&quot;background-color: initial;&quot;&gt;&lt;i&gt;IHost&lt;/i&gt;&lt;/span&gt;&lt;/p&gt;&lt;p style=&quot;margin:0px;margin-left:4px;&quot;&gt;StartAsync():&amp;nbsp;&lt;span style=&quot;background-color: initial;&quot;&gt;&lt;i&gt;Task&amp;lt;IHost&amp;gt;&lt;/i&gt;&lt;/span&gt;&lt;/p&gt;" style="verticalAlign=top;align=left;overflow=fill;html=1;whiteSpace=wrap;" parent="1" vertex="1">
          <mxGeometry x="540" y="40" width="270" height="70" as="geometry" />
        </mxCell>
        <mxCell id="jK5Jf275oOoEdSAdVoY1-2" value="" style="endArrow=diamondThin;endFill=1;endSize=24;html=1;rounded=0;exitX=0;exitY=0;exitDx=0;exitDy=0;entryX=1;entryY=0;entryDx=0;entryDy=0;" parent="1" source="jK5Jf275oOoEdSAdVoY1-1" target="uyobxcFyEFNc65TMDI60-4" edge="1">
          <mxGeometry width="160" relative="1" as="geometry">
            <mxPoint x="520" y="690" as="sourcePoint" />
            <mxPoint x="379" y="635" as="targetPoint" />
          </mxGeometry>
        </mxCell>
        <mxCell id="jK5Jf275oOoEdSAdVoY1-3" value="&lt;p style=&quot;text-align: center; margin: 4px 0px 0px;&quot;&gt;&lt;b&gt;HostingAbstractionsHostExtensions&lt;/b&gt;&lt;br&gt;&lt;/p&gt;&lt;hr size=&quot;1&quot; style=&quot;border-style:solid;&quot;&gt;&lt;p style=&quot;margin:0px;margin-left:4px;&quot;&gt;Start():&amp;nbsp;&lt;span style=&quot;background-color: initial;&quot;&gt;&lt;i&gt;void&lt;/i&gt;&lt;/span&gt;&lt;/p&gt;&lt;p style=&quot;margin:0px;margin-left:4px;&quot;&gt;WaitForShutdown():&amp;nbsp;&lt;span style=&quot;background-color: initial;&quot;&gt;&lt;i&gt;void&lt;/i&gt;&lt;/span&gt;&lt;/p&gt;&lt;p style=&quot;margin:0px;margin-left:4px;&quot;&gt;&lt;span style=&quot;background-color: initial;&quot;&gt;Run:&amp;nbsp;&lt;/span&gt;&lt;span style=&quot;background-color: initial;&quot;&gt;&lt;i&gt;void&lt;/i&gt;&lt;/span&gt;&lt;span style=&quot;background-color: initial;&quot;&gt;&lt;br&gt;&lt;/span&gt;&lt;/p&gt;&lt;p style=&quot;margin:0px;margin-left:4px;&quot;&gt;&lt;span style=&quot;background-color: initial;&quot;&gt;RunAsync:&lt;i&gt;&amp;nbsp;&lt;/i&gt;&lt;/span&gt;&lt;span style=&quot;background-color: initial;&quot;&gt;&lt;i&gt;Task&lt;/i&gt;&lt;/span&gt;&lt;span style=&quot;background-color: initial;&quot;&gt;&lt;i&gt;&lt;br&gt;&lt;/i&gt;&lt;/span&gt;&lt;/p&gt;&lt;p style=&quot;margin:0px;margin-left:4px;&quot;&gt;&lt;span style=&quot;background-color: initial;&quot;&gt;WaitForShutdownAsync:&amp;nbsp;&lt;/span&gt;&lt;span style=&quot;background-color: initial;&quot;&gt;&lt;i&gt;Task&lt;/i&gt;&lt;/span&gt;&lt;span style=&quot;background-color: initial;&quot;&gt;&lt;br&gt;&lt;/span&gt;&lt;/p&gt;" style="verticalAlign=top;align=left;overflow=fill;html=1;whiteSpace=wrap;" parent="1" vertex="1">
          <mxGeometry x="-20" y="40" width="220" height="110" as="geometry" />
        </mxCell>
        <mxCell id="jK5Jf275oOoEdSAdVoY1-4" value="" style="endArrow=diamondThin;endFill=1;endSize=24;html=1;rounded=0;exitX=0;exitY=0;exitDx=0;exitDy=0;entryX=1;entryY=0;entryDx=0;entryDy=0;" parent="1" source="jK5Jf275oOoEdSAdVoY1-3" target="uyobxcFyEFNc65TMDI60-1" edge="1">
          <mxGeometry width="160" relative="1" as="geometry">
            <mxPoint x="-230" y="290" as="sourcePoint" />
            <mxPoint x="-358" y="250" as="targetPoint" />
          </mxGeometry>
        </mxCell>
        <mxCell id="YB1wjO_jiGBHafCscdbh-1" value="&lt;p style=&quot;margin:0px;margin-top:4px;text-align:center;&quot;&gt;&lt;span style=&quot;background-color: initial; text-align: left;&quot;&gt;&lt;b&gt;HostApplicationBuilder&lt;/b&gt;&lt;/span&gt;&lt;/p&gt;&lt;hr size=&quot;1&quot; style=&quot;border-style:solid;&quot;&gt;&lt;p style=&quot;margin:0px;margin-left:4px;&quot;&gt;Initialize: &lt;i&gt;void&lt;/i&gt;&lt;br&gt;&lt;/p&gt;&lt;p style=&quot;margin:0px;margin-left:4px;&quot;&gt;&lt;b&gt;IHostApplicationBuilder.Properties&lt;/b&gt;&lt;br&gt;&lt;/p&gt;&lt;p style=&quot;margin:0px;margin-left:4px;&quot;&gt;Configuration:&lt;b&gt;&amp;nbsp;&lt;/b&gt;&lt;span style=&quot;background-color: initial;&quot;&gt;&lt;i&gt;ConfigurationManager&lt;/i&gt;&lt;/span&gt;&lt;br&gt;&lt;/p&gt;&lt;p style=&quot;margin:0px;margin-left:4px;&quot;&gt;&lt;span style=&quot;background-color: initial;&quot;&gt;&lt;b style=&quot;&quot;&gt;IHostApplicationBuilder.Configuration&lt;/b&gt;&lt;br&gt;&lt;/span&gt;&lt;/p&gt;&lt;p style=&quot;margin:0px;margin-left:4px;&quot;&gt;&lt;span style=&quot;background-color: initial;&quot;&gt;Services:&amp;nbsp;&lt;/span&gt;&lt;span style=&quot;background-color: initial;&quot;&gt;&lt;i&gt;IServiceCollection&lt;/i&gt;&lt;/span&gt;&lt;span style=&quot;background-color: initial;&quot;&gt;&lt;br&gt;&lt;/span&gt;&lt;/p&gt;&lt;p style=&quot;margin:0px;margin-left:4px;&quot;&gt;&lt;span style=&quot;background-color: initial;&quot;&gt;Logging:&amp;nbsp;&lt;/span&gt;&lt;span style=&quot;background-color: initial;&quot;&gt;&lt;i&gt;ILoggingBuilder&lt;/i&gt;&lt;/span&gt;&lt;span style=&quot;background-color: initial;&quot;&gt;&lt;br&gt;&lt;/span&gt;&lt;/p&gt;&lt;p style=&quot;margin:0px;margin-left:4px;&quot;&gt;&lt;span style=&quot;background-color: initial;&quot;&gt;Metrics:&amp;nbsp;&lt;/span&gt;&lt;span style=&quot;background-color: initial;&quot;&gt;&lt;i&gt;IMetricsBuilder&lt;/i&gt;&lt;/span&gt;&lt;span style=&quot;background-color: initial;&quot;&gt;&lt;br&gt;&lt;/span&gt;&lt;/p&gt;&lt;p style=&quot;margin:0px;margin-left:4px;&quot;&gt;&lt;span style=&quot;background-color: initial;&quot;&gt;ConfigureContainer: &lt;i&gt;void&lt;/i&gt;&lt;br&gt;&lt;/span&gt;&lt;/p&gt;&lt;p style=&quot;margin:0px;margin-left:4px;&quot;&gt;&lt;span style=&quot;background-color: initial;&quot;&gt;Build:&amp;nbsp;&lt;/span&gt;&lt;span style=&quot;background-color: initial;&quot;&gt;&lt;i&gt;IHost&lt;/i&gt;&lt;/span&gt;&lt;span style=&quot;background-color: initial;&quot;&gt;&lt;i&gt;&lt;br&gt;&lt;/i&gt;&lt;/span&gt;&lt;/p&gt;&lt;p style=&quot;margin:0px;margin-left:4px;&quot;&gt;&lt;span style=&quot;background-color: initial;&quot;&gt;AsHostBuilder():&lt;i&gt;&amp;nbsp;&lt;/i&gt;&lt;/span&gt;&lt;span style=&quot;background-color: initial;&quot;&gt;&lt;i&gt;IHostBuilder&lt;/i&gt;&lt;/span&gt;&lt;span style=&quot;background-color: initial;&quot;&gt;&lt;i&gt;&lt;br&gt;&lt;/i&gt;&lt;/span&gt;&lt;/p&gt;&lt;p style=&quot;margin:0px;margin-left:4px;&quot;&gt;&lt;span style=&quot;background-color: initial;&quot;&gt;&lt;i&gt;&lt;br&gt;&lt;/i&gt;&lt;/span&gt;&lt;/p&gt;" style="verticalAlign=top;align=left;overflow=fill;html=1;whiteSpace=wrap;" parent="1" vertex="1">
          <mxGeometry x="240" y="440" width="240" height="280" as="geometry" />
        </mxCell>
        <mxCell id="YB1wjO_jiGBHafCscdbh-2" value="" style="endArrow=block;dashed=1;endFill=0;endSize=12;html=1;rounded=0;entryX=0.5;entryY=1;entryDx=0;entryDy=0;exitX=0.5;exitY=0;exitDx=0;exitDy=0;" parent="1" source="YB1wjO_jiGBHafCscdbh-1" target="uyobxcFyEFNc65TMDI60-2" edge="1">
          <mxGeometry width="160" relative="1" as="geometry">
            <mxPoint x="590" y="620" as="sourcePoint" />
            <mxPoint x="750" y="620" as="targetPoint" />
          </mxGeometry>
        </mxCell>
        <mxCell id="5-hGp4QsN8-SUx8UqN1H-1" value="&lt;p style=&quot;margin: 4px 0px 0px; text-align: center;&quot;&gt;&lt;span style=&quot;background-color: initial; text-align: left;&quot;&gt;&lt;b&gt;HostBuilderAdapter&lt;/b&gt;&lt;/span&gt;&lt;/p&gt;&lt;hr size=&quot;1&quot; style=&quot;border-style:solid;&quot;&gt;&lt;p style=&quot;margin:0px;margin-left:4px;&quot;&gt;&lt;br&gt;&lt;/p&gt;&lt;p style=&quot;margin:0px;margin-left:4px;&quot;&gt;&lt;span style=&quot;background-color: initial;&quot;&gt;&lt;i&gt;&lt;br&gt;&lt;/i&gt;&lt;/span&gt;&lt;/p&gt;" style="verticalAlign=top;align=left;overflow=fill;html=1;whiteSpace=wrap;" parent="1" vertex="1">
          <mxGeometry x="560" y="480" width="240" height="140" as="geometry" />
        </mxCell>
        <mxCell id="5-hGp4QsN8-SUx8UqN1H-2" value="" style="endArrow=diamondThin;endFill=1;endSize=24;html=1;rounded=0;entryX=1;entryY=0;entryDx=0;entryDy=0;" parent="1" source="5-hGp4QsN8-SUx8UqN1H-1" target="YB1wjO_jiGBHafCscdbh-1" edge="1">
          <mxGeometry width="160" relative="1" as="geometry">
            <mxPoint x="560" y="740" as="sourcePoint" />
            <mxPoint x="720" y="740" as="targetPoint" />
          </mxGeometry>
        </mxCell>
        <mxCell id="5-hGp4QsN8-SUx8UqN1H-3" value="" style="endArrow=block;dashed=1;endFill=0;endSize=12;html=1;rounded=0;exitX=0.25;exitY=0;exitDx=0;exitDy=0;entryX=1;entryY=1;entryDx=0;entryDy=0;" parent="1" source="5-hGp4QsN8-SUx8UqN1H-1" target="uyobxcFyEFNc65TMDI60-2" edge="1">
          <mxGeometry width="160" relative="1" as="geometry">
            <mxPoint x="590" y="350" as="sourcePoint" />
            <mxPoint x="750" y="350" as="targetPoint" />
          </mxGeometry>
        </mxCell>
        <mxCell id="5-hGp4QsN8-SUx8UqN1H-4" value="&lt;p style=&quot;margin: 4px 0px 0px; text-align: center;&quot;&gt;&lt;span style=&quot;background-color: initial; text-align: left;&quot;&gt;&lt;b&gt;LoggingBuilder&lt;/b&gt;&lt;/span&gt;&lt;/p&gt;&lt;hr size=&quot;1&quot; style=&quot;border-style:solid;&quot;&gt;&lt;p style=&quot;margin:0px;margin-left:4px;&quot;&gt;.ctor&lt;/p&gt;&lt;p style=&quot;margin:0px;margin-left:4px;&quot;&gt;Services:&amp;nbsp;&lt;i&gt;IServiceCollection&lt;/i&gt;&lt;span style=&quot;background-color: initial;&quot;&gt;&lt;i&gt;&lt;br&gt;&lt;/i&gt;&lt;/span&gt;&lt;/p&gt;" style="verticalAlign=top;align=left;overflow=fill;html=1;whiteSpace=wrap;" parent="1" vertex="1">
          <mxGeometry x="560" y="650" width="160" height="60" as="geometry" />
        </mxCell>
        <mxCell id="5-hGp4QsN8-SUx8UqN1H-5" value="" style="endArrow=diamondThin;endFill=1;endSize=24;html=1;rounded=0;entryX=1;entryY=0.5;entryDx=0;entryDy=0;exitX=0;exitY=0;exitDx=0;exitDy=0;" parent="1" source="5-hGp4QsN8-SUx8UqN1H-4" target="YB1wjO_jiGBHafCscdbh-1" edge="1">
          <mxGeometry width="160" relative="1" as="geometry">
            <mxPoint x="555" y="606" as="sourcePoint" />
            <mxPoint x="480" y="564" as="targetPoint" />
          </mxGeometry>
        </mxCell>
        <mxCell id="5-hGp4QsN8-SUx8UqN1H-6" value="&lt;p style=&quot;margin: 4px 0px 0px; text-align: center;&quot;&gt;&lt;span style=&quot;background-color: initial; text-align: left;&quot;&gt;&lt;b&gt;MetricsBuilder&lt;/b&gt;&lt;/span&gt;&lt;/p&gt;&lt;hr size=&quot;1&quot; style=&quot;border-style:solid;&quot;&gt;&lt;p style=&quot;margin:0px;margin-left:4px;&quot;&gt;.ctor&lt;/p&gt;&lt;p style=&quot;margin:0px;margin-left:4px;&quot;&gt;Services:&amp;nbsp;&lt;i&gt;IServiceCollection&lt;/i&gt;&lt;br&gt;&lt;/p&gt;&lt;p style=&quot;margin:0px;margin-left:4px;&quot;&gt;&lt;span style=&quot;background-color: initial;&quot;&gt;&lt;i&gt;&lt;br&gt;&lt;/i&gt;&lt;/span&gt;&lt;/p&gt;" style="verticalAlign=top;align=left;overflow=fill;html=1;whiteSpace=wrap;" parent="1" vertex="1">
          <mxGeometry x="560" y="720" width="160" height="60" as="geometry" />
        </mxCell>
        <mxCell id="5-hGp4QsN8-SUx8UqN1H-7" value="" style="endArrow=diamondThin;endFill=1;endSize=24;html=1;rounded=0;entryX=1;entryY=0.75;entryDx=0;entryDy=0;exitX=0;exitY=0;exitDx=0;exitDy=0;" parent="1" source="5-hGp4QsN8-SUx8UqN1H-6" target="YB1wjO_jiGBHafCscdbh-1" edge="1">
          <mxGeometry width="160" relative="1" as="geometry">
            <mxPoint x="520" y="830" as="sourcePoint" />
            <mxPoint x="450" y="770" as="targetPoint" />
          </mxGeometry>
        </mxCell>
        <mxCell id="9dmQ2uBgq-SucfUCh8Z--1" value="&lt;p style=&quot;margin:0px;margin-top:4px;text-align:center;&quot;&gt;&lt;i&gt;&amp;lt;&amp;lt;Interface&amp;gt;&amp;gt;&lt;/i&gt;&lt;br&gt;&lt;span style=&quot;background-color: initial; text-align: left;&quot;&gt;&lt;b&gt;IWebHostBuilder&lt;/b&gt;&lt;/span&gt;&lt;/p&gt;&lt;hr size=&quot;1&quot; style=&quot;border-style:solid;&quot;&gt;&lt;p style=&quot;margin:0px;margin-left:4px;&quot;&gt;Build():&amp;nbsp;&lt;span style=&quot;background-color: initial;&quot;&gt;&lt;i&gt;IWebHost&lt;/i&gt;&lt;/span&gt;&lt;br&gt;&lt;/p&gt;&lt;p style=&quot;margin:0px;margin-left:4px;&quot;&gt;&lt;span style=&quot;background-color: initial;&quot;&gt;ConfigureAppConfiguration():&lt;i&gt;&amp;nbsp;&lt;/i&gt;&lt;/span&gt;&lt;span style=&quot;background-color: initial;&quot;&gt;&lt;i&gt;IWebHostBuilder&lt;/i&gt;&lt;/span&gt;&lt;span style=&quot;background-color: initial;&quot;&gt;&lt;i&gt;&lt;br&gt;&lt;/i&gt;&lt;/span&gt;&lt;/p&gt;&lt;p style=&quot;margin:0px;margin-left:4px;&quot;&gt;&lt;span style=&quot;background-color: initial;&quot;&gt;ConfigureServices():&amp;nbsp;&lt;/span&gt;&lt;span style=&quot;background-color: initial;&quot;&gt;&lt;i&gt;IWebHostBuilder&lt;/i&gt;&lt;/span&gt;&lt;span style=&quot;background-color: initial;&quot;&gt;&lt;br&gt;&lt;/span&gt;&lt;/p&gt;&lt;p style=&quot;margin:0px;margin-left:4px;&quot;&gt;&lt;span style=&quot;background-color: initial;&quot;&gt;ConfigureServices():&lt;i&gt;&amp;nbsp;&lt;/i&gt;&lt;/span&gt;&lt;span style=&quot;background-color: initial;&quot;&gt;&lt;i&gt;IWebHostBuilder&lt;/i&gt;&lt;/span&gt;&lt;span style=&quot;background-color: initial;&quot;&gt;&lt;i&gt;&lt;br&gt;&lt;/i&gt;&lt;/span&gt;&lt;/p&gt;&lt;p style=&quot;margin:0px;margin-left:4px;&quot;&gt;&lt;span style=&quot;background-color: initial;&quot;&gt;GetSetting():&amp;nbsp;&lt;/span&gt;&lt;span style=&quot;background-color: initial;&quot;&gt;&lt;i&gt;string?&lt;/i&gt;&lt;/span&gt;&lt;span style=&quot;background-color: initial;&quot;&gt;&lt;br&gt;&lt;/span&gt;&lt;/p&gt;&lt;p style=&quot;margin:0px;margin-left:4px;&quot;&gt;&lt;span style=&quot;background-color: initial;&quot;&gt;UseSetting():&amp;nbsp;&lt;/span&gt;&lt;span style=&quot;background-color: initial;&quot;&gt;&lt;i&gt;IWebHostBuilder&lt;/i&gt;&lt;/span&gt;&lt;span style=&quot;background-color: initial;&quot;&gt;&lt;br&gt;&lt;/span&gt;&lt;/p&gt;" style="verticalAlign=top;align=left;overflow=fill;html=1;whiteSpace=wrap;" parent="1" vertex="1">
          <mxGeometry x="1160" y="360" width="260" height="140" as="geometry" />
        </mxCell>
        <mxCell id="BSHouRCpiWMJKnsSECUz-1" value="&lt;p style=&quot;margin:0px;margin-top:4px;text-align:center;&quot;&gt;&lt;i&gt;&amp;lt;&amp;lt;Interface&amp;gt;&amp;gt;&lt;/i&gt;&lt;br&gt;&lt;span style=&quot;background-color: initial; text-align: left;&quot;&gt;&lt;b&gt;IWebHost&lt;/b&gt;&lt;/span&gt;&lt;/p&gt;&lt;hr size=&quot;1&quot; style=&quot;border-style:solid;&quot;&gt;&lt;p style=&quot;margin:0px;margin-left:4px;&quot;&gt;ServerFeatures:&amp;nbsp;&lt;span style=&quot;background-color: initial;&quot;&gt;&lt;i&gt;IFeatureCollection&lt;/i&gt;&lt;/span&gt;&lt;br&gt;&lt;/p&gt;&lt;p style=&quot;margin:0px;margin-left:4px;&quot;&gt;&lt;span style=&quot;background-color: initial;&quot;&gt;Services:&lt;i&gt;&amp;nbsp;&lt;/i&gt;&lt;/span&gt;&lt;span style=&quot;background-color: initial;&quot;&gt;&lt;i&gt;IServiceProvider&lt;/i&gt;&lt;/span&gt;&lt;/p&gt;&lt;p style=&quot;margin:0px;margin-left:4px;&quot;&gt;&lt;span style=&quot;background-color: initial;&quot;&gt;&lt;i&gt;&lt;br&gt;&lt;/i&gt;&lt;/span&gt;&lt;/p&gt;&lt;p style=&quot;margin:0px;margin-left:4px;&quot;&gt;&lt;span style=&quot;background-color: initial;&quot;&gt;Start(): &lt;i&gt;void&lt;/i&gt;&lt;/span&gt;&lt;/p&gt;&lt;p style=&quot;margin:0px;margin-left:4px;&quot;&gt;StartAsync(): &lt;span style=&quot;background-color: initial;&quot;&gt;&lt;i&gt;Task&lt;/i&gt;&lt;/span&gt;&lt;/p&gt;&lt;p style=&quot;margin:0px;margin-left:4px;&quot;&gt;StopAsync():&lt;i&gt;&amp;nbsp;&lt;/i&gt;&lt;span style=&quot;background-color: initial;&quot;&gt;&lt;i&gt;Task&lt;/i&gt;&lt;/span&gt;&lt;/p&gt;" style="verticalAlign=top;align=left;overflow=fill;html=1;whiteSpace=wrap;" vertex="1" parent="1">
          <mxGeometry x="-488" y="40" width="208" height="140" as="geometry" />
        </mxCell>
        <mxCell id="BSHouRCpiWMJKnsSECUz-2" value="&lt;p style=&quot;margin:0px;margin-top:4px;text-align:center;&quot;&gt;&lt;span style=&quot;background-color: initial; text-align: left;&quot;&gt;&lt;b&gt;WebHostDefaults&lt;/b&gt;&lt;/span&gt;&lt;/p&gt;&lt;hr size=&quot;1&quot; style=&quot;border-style:solid;&quot;&gt;&lt;p style=&quot;margin:0px;margin-left:4px;&quot;&gt;Константы&lt;/p&gt;" style="verticalAlign=top;align=left;overflow=fill;html=1;whiteSpace=wrap;" vertex="1" parent="1">
          <mxGeometry x="1880" y="320" width="130" height="50" as="geometry" />
        </mxCell>
        <mxCell id="BSHouRCpiWMJKnsSECUz-3" value="&lt;p style=&quot;margin: 4px 0px 0px; text-align: center;&quot;&gt;&lt;span style=&quot;background-color: initial; text-align: left;&quot;&gt;&lt;b&gt;HostingAbstractionsWebHostBuilderExtensions&lt;/b&gt;&lt;/span&gt;&lt;/p&gt;&lt;hr size=&quot;1&quot; style=&quot;border-style:solid;&quot;&gt;&lt;p style=&quot;margin:0px;margin-left:4px;&quot;&gt;UseConfiguration():&amp;nbsp;&lt;span style=&quot;background-color: initial;&quot;&gt;&lt;i&gt;IWebHostBuilder&lt;/i&gt;&lt;/span&gt;&lt;/p&gt;&lt;p style=&quot;margin:0px;margin-left:4px;&quot;&gt;CaptureStartupErrors():&amp;nbsp;&lt;i&gt;IWebHostBuilder&lt;/i&gt;&lt;/p&gt;&lt;p style=&quot;margin:0px;margin-left:4px;&quot;&gt;UseStartup():&lt;i&gt;&amp;nbsp;&lt;/i&gt;&lt;span style=&quot;background-color: initial;&quot;&gt;&lt;i&gt;IWebHostBuilder&lt;/i&gt;&lt;/span&gt;&lt;/p&gt;&lt;p style=&quot;margin:0px;margin-left:4px;&quot;&gt;UseServer():&lt;i&gt;&amp;nbsp;&lt;/i&gt;&lt;span style=&quot;background-color: initial;&quot;&gt;&lt;i&gt;IWebHostBuilder&lt;/i&gt;&lt;/span&gt;&lt;/p&gt;&lt;p style=&quot;margin:0px;margin-left:4px;&quot;&gt;UseEnvironment():&lt;i&gt;&amp;nbsp;&lt;/i&gt;&lt;span style=&quot;background-color: initial;&quot;&gt;&lt;i&gt;IWebHostBuilder&lt;/i&gt;&lt;/span&gt;&lt;/p&gt;&lt;p style=&quot;margin:0px;margin-left:4px;&quot;&gt;UseContentRoot():&lt;i&gt;&amp;nbsp;&lt;/i&gt;&lt;i style=&quot;background-color: initial;&quot;&gt;IWebHostBuilder&lt;/i&gt;&lt;/p&gt;&lt;p style=&quot;margin:0px;margin-left:4px;&quot;&gt;&lt;span style=&quot;background-color: initial;&quot;&gt;UseWebRoot():&lt;/span&gt;&lt;i style=&quot;background-color: initial;&quot;&gt;&amp;nbsp;&lt;/i&gt;&lt;i style=&quot;background-color: initial;&quot;&gt;IWebHostBuilder&lt;/i&gt;&lt;/p&gt;&lt;p style=&quot;margin:0px;margin-left:4px;&quot;&gt;&lt;span style=&quot;background-color: initial;&quot;&gt;UseUrls():&amp;nbsp;&lt;/span&gt;&lt;i style=&quot;background-color: initial;&quot;&gt;IWebHostBuilder&lt;/i&gt;&lt;/p&gt;&lt;p style=&quot;margin:0px;margin-left:4px;&quot;&gt;&lt;span style=&quot;background-color: initial;&quot;&gt;PreferHostingUrls():&lt;/span&gt;&lt;i style=&quot;background-color: initial;&quot;&gt;&amp;nbsp;&lt;/i&gt;&lt;i style=&quot;background-color: initial;&quot;&gt;IWebHostBuilder&lt;/i&gt;&lt;/p&gt;&lt;p style=&quot;margin:0px;margin-left:4px;&quot;&gt;&lt;span style=&quot;background-color: initial;&quot;&gt;SuppressStatusMessages():&lt;/span&gt;&lt;i style=&quot;background-color: initial;&quot;&gt;&amp;nbsp;&lt;/i&gt;&lt;i style=&quot;background-color: initial;&quot;&gt;IWebHostBuilder&lt;/i&gt;&lt;/p&gt;&lt;p style=&quot;margin:0px;margin-left:4px;&quot;&gt;&lt;span style=&quot;background-color: initial;&quot;&gt;UseShutdownTimeout():&lt;/span&gt;&lt;i style=&quot;background-color: initial;&quot;&gt; I&lt;/i&gt;&lt;i style=&quot;background-color: initial;&quot;&gt;WebHostBuilder&lt;/i&gt;&lt;/p&gt;&lt;p style=&quot;margin:0px;margin-left:4px;&quot;&gt;&lt;span style=&quot;background-color: initial;&quot;&gt;Start():&lt;/span&gt;&lt;i style=&quot;background-color: initial;&quot;&gt;&amp;nbsp;&lt;/i&gt;&lt;span style=&quot;background-color: initial;&quot;&gt;&lt;i&gt;IWebHost&lt;/i&gt;&lt;/span&gt;&lt;/p&gt;" style="verticalAlign=top;align=left;overflow=fill;html=1;whiteSpace=wrap;" vertex="1" parent="1">
          <mxGeometry x="1480" y="360" width="290" height="210" as="geometry" />
        </mxCell>
        <mxCell id="BSHouRCpiWMJKnsSECUz-4" value="" style="endArrow=diamondThin;endFill=1;endSize=24;html=1;rounded=0;exitX=0;exitY=0;exitDx=0;exitDy=0;entryX=1;entryY=0;entryDx=0;entryDy=0;" edge="1" parent="1" source="BSHouRCpiWMJKnsSECUz-3" target="9dmQ2uBgq-SucfUCh8Z--1">
          <mxGeometry width="160" relative="1" as="geometry">
            <mxPoint x="1480" y="290" as="sourcePoint" />
            <mxPoint x="1410" y="290" as="targetPoint" />
          </mxGeometry>
        </mxCell>
        <mxCell id="BSHouRCpiWMJKnsSECUz-5" value="&lt;p style=&quot;margin:0px;margin-top:4px;text-align:center;&quot;&gt;&lt;span style=&quot;background-color: initial; text-align: left;&quot;&gt;&lt;b&gt;WebHostOptions&lt;/b&gt;&lt;/span&gt;&lt;/p&gt;&lt;hr size=&quot;1&quot; style=&quot;border-style:solid;&quot;&gt;&lt;p style=&quot;margin:0px;margin-left:4px;&quot;&gt;.ctor&lt;/p&gt;&lt;p style=&quot;margin:0px;margin-left:4px;&quot;&gt;ApplicationName:&amp;nbsp;&lt;i&gt;string&lt;/i&gt;&lt;/p&gt;&lt;p style=&quot;margin:0px;margin-left:4px;&quot;&gt;PreventHostingStartup:&amp;nbsp;&lt;i&gt;bool&lt;/i&gt;&lt;/p&gt;&lt;p style=&quot;margin:0px;margin-left:4px;&quot;&gt;SuppressStatusMessages:&amp;nbsp;&lt;i&gt;bool&lt;/i&gt;&lt;/p&gt;&lt;p style=&quot;margin:0px;margin-left:4px;&quot;&gt;HostingStartupAssemblies:&amp;nbsp;&lt;i&gt;IReadOnlyList&amp;lt;string&amp;gt;&lt;/i&gt;&lt;/p&gt;&lt;p style=&quot;margin:0px;margin-left:4px;&quot;&gt;HostingStartupExcludeAssemblies:&amp;nbsp;&lt;i&gt;IReadOnlyList&amp;lt;string&amp;gt;&lt;/i&gt;&lt;/p&gt;&lt;p style=&quot;margin:0px;margin-left:4px;&quot;&gt;DetailedErrors:&amp;nbsp;&lt;i&gt;bool&lt;/i&gt;&lt;/p&gt;&lt;p style=&quot;margin:0px;margin-left:4px;&quot;&gt;CaptureStartupErrors:&amp;nbsp;&lt;i&gt;bool&lt;/i&gt;&lt;/p&gt;&lt;p style=&quot;margin:0px;margin-left:4px;&quot;&gt;Environment:&amp;nbsp;&lt;i&gt;string?&lt;/i&gt;&lt;/p&gt;&lt;p style=&quot;margin:0px;margin-left:4px;&quot;&gt;StartupAssembly:&amp;nbsp;&lt;i&gt;string?&lt;/i&gt;&lt;/p&gt;&lt;p style=&quot;margin:0px;margin-left:4px;&quot;&gt;WebRoot:&amp;nbsp;&lt;i&gt;string?&lt;/i&gt;&lt;/p&gt;&lt;p style=&quot;margin:0px;margin-left:4px;&quot;&gt;ContentRootPath:&amp;nbsp;&lt;i&gt;string?&lt;/i&gt;&lt;/p&gt;&lt;p style=&quot;margin:0px;margin-left:4px;&quot;&gt;ShutdownTimeout:&amp;nbsp;&lt;i&gt;TimeSpan&lt;/i&gt;&lt;/p&gt;&lt;p style=&quot;margin:0px;margin-left:4px;&quot;&gt;ServerUrls:&amp;nbsp;&lt;i&gt;string?&lt;/i&gt;&lt;/p&gt;&lt;p style=&quot;margin:0px;margin-left:4px;&quot;&gt;PreferHostingUrls:&amp;nbsp;&lt;i&gt;bool&lt;/i&gt;&lt;/p&gt;&lt;p style=&quot;margin:0px;margin-left:4px;&quot;&gt;&lt;br&gt;&lt;/p&gt;&lt;p style=&quot;margin:0px;margin-left:4px;&quot;&gt;GetFinalHostingStartupAssemblies():&amp;nbsp;&lt;i&gt;IEnumerable&amp;lt;string&amp;gt;&lt;/i&gt;&lt;/p&gt;&lt;p style=&quot;margin:0px;margin-left:4px;&quot;&gt;&lt;br&gt;&lt;/p&gt;&lt;p style=&quot;margin:0px;margin-left:4px;&quot;&gt;&lt;br&gt;&lt;/p&gt;" style="verticalAlign=top;align=left;overflow=fill;html=1;whiteSpace=wrap;" vertex="1" parent="1">
          <mxGeometry x="1880" y="400" width="320" height="280" as="geometry" />
        </mxCell>
      </root>
    </mxGraphModel>
  </diagram>
  <diagram id="-TZjPFcOGU2Rihsnlaak" name="SignalR">
    <mxGraphModel grid="1" page="1" gridSize="10" guides="1" tooltips="1" connect="1" arrows="1" fold="1" pageScale="1" pageWidth="827" pageHeight="1169" math="0" shadow="0">
      <root>
        <mxCell id="0" />
        <mxCell id="1" parent="0" />
        <mxCell id="S6usmPDqZaUaMMj72xj2-1" value="&lt;p style=&quot;margin:0px;margin-top:4px;text-align:center;&quot;&gt;&lt;i&gt;&amp;lt;&amp;lt;Interface&amp;gt;&amp;gt;&lt;/i&gt;&lt;br&gt;&lt;span style=&quot;background-color: initial; text-align: left;&quot;&gt;&lt;b&gt;IHubContext&lt;/b&gt;&lt;/span&gt;&lt;/p&gt;&lt;hr size=&quot;1&quot; style=&quot;border-style:solid;&quot;&gt;&lt;p style=&quot;margin:0px;margin-left:4px;&quot;&gt;Clients: &lt;i&gt;IHubClients&lt;/i&gt;&lt;br&gt;Groups:&amp;nbsp;&lt;span style=&quot;background-color: initial;&quot;&gt;&lt;i&gt;IGroupManager&lt;/i&gt;&lt;/span&gt;&lt;/p&gt;" style="verticalAlign=top;align=left;overflow=fill;html=1;whiteSpace=wrap;" vertex="1" parent="1">
          <mxGeometry x="40" y="40" width="150" height="80" as="geometry" />
        </mxCell>
        <mxCell id="S6usmPDqZaUaMMj72xj2-2" value="&lt;p style=&quot;margin:0px;margin-top:4px;text-align:center;&quot;&gt;&lt;i&gt;&amp;lt;&amp;lt;Interface&amp;gt;&amp;gt;&lt;/i&gt;&lt;br&gt;&lt;span style=&quot;background-color: initial; text-align: left;&quot;&gt;&lt;b&gt;IClientProxy&lt;/b&gt;&lt;/span&gt;&lt;/p&gt;&lt;hr size=&quot;1&quot; style=&quot;border-style:solid;&quot;&gt;&lt;p style=&quot;margin:0px;margin-left:4px;&quot;&gt;SendCoreAsync: &lt;i&gt;Task&lt;/i&gt;&lt;br&gt;&lt;/p&gt;" style="verticalAlign=top;align=left;overflow=fill;html=1;whiteSpace=wrap;" vertex="1" parent="1">
          <mxGeometry x="680" y="140" width="130" height="70" as="geometry" />
        </mxCell>
        <mxCell id="S6usmPDqZaUaMMj72xj2-3" value="&lt;p style=&quot;margin:0px;margin-top:4px;text-align:center;&quot;&gt;&lt;i&gt;&amp;lt;&amp;lt;Interface&amp;gt;&amp;gt;&lt;/i&gt;&lt;br&gt;&lt;span style=&quot;background-color: initial; text-align: left;&quot;&gt;&lt;b&gt;IGroupManager&lt;/b&gt;&lt;/span&gt;&lt;/p&gt;&lt;hr size=&quot;1&quot; style=&quot;border-style:solid;&quot;&gt;&lt;p style=&quot;margin:0px;margin-left:4px;&quot;&gt;AddToGroupAsync:&amp;nbsp;&lt;span style=&quot;background-color: initial;&quot;&gt;&lt;i&gt;Task&lt;/i&gt;&lt;/span&gt;&lt;br&gt;&lt;/p&gt;&lt;p style=&quot;margin:0px;margin-left:4px;&quot;&gt;&lt;span style=&quot;background-color: initial;&quot;&gt;&lt;i&gt;RemoveFromGroupAsync: Task&lt;br&gt;&lt;/i&gt;&lt;/span&gt;&lt;/p&gt;" style="verticalAlign=top;align=left;overflow=fill;html=1;whiteSpace=wrap;" vertex="1" parent="1">
          <mxGeometry x="1160" y="40" width="190" height="85" as="geometry" />
        </mxCell>
        <mxCell id="S6usmPDqZaUaMMj72xj2-4" value="&lt;p style=&quot;margin:0px;margin-top:4px;text-align:center;&quot;&gt;&lt;i&gt;&amp;lt;&amp;lt;Interface&amp;gt;&amp;gt;&lt;/i&gt;&lt;br&gt;&lt;span style=&quot;background-color: initial; text-align: left;&quot;&gt;&lt;b&gt;IHubFilter&lt;/b&gt;&lt;/span&gt;&lt;/p&gt;&lt;hr size=&quot;1&quot; style=&quot;border-style:solid;&quot;&gt;&lt;p style=&quot;margin:0px;margin-left:4px;&quot;&gt;InvokeMethodAsync:&amp;nbsp;&lt;span style=&quot;background-color: initial;&quot;&gt;&lt;i&gt;ValueTask&amp;lt;object?&amp;gt;&lt;/i&gt;&lt;/span&gt;&lt;br&gt;&lt;/p&gt;&lt;p style=&quot;margin:0px;margin-left:4px;&quot;&gt;&lt;span style=&quot;background-color: initial;&quot;&gt;OnConnectedAsync&lt;/span&gt;&lt;span style=&quot;background-color: initial;&quot;&gt;:&lt;i&gt; Task&lt;br&gt;&lt;/i&gt;&lt;/span&gt;&lt;/p&gt;&lt;p style=&quot;margin:0px;margin-left:4px;&quot;&gt;&lt;span style=&quot;background-color: initial;&quot;&gt;OnConnectedAsync:&amp;nbsp;&lt;/span&gt;&lt;span style=&quot;background-color: initial;&quot;&gt;&lt;i&gt;Task&lt;/i&gt;&lt;/span&gt;&lt;span style=&quot;background-color: initial;&quot;&gt;&lt;br&gt;&lt;/span&gt;&lt;/p&gt;" style="verticalAlign=top;align=left;overflow=fill;html=1;whiteSpace=wrap;" vertex="1" parent="1">
          <mxGeometry x="40" y="150" width="230" height="90" as="geometry" />
        </mxCell>
        <mxCell id="S6usmPDqZaUaMMj72xj2-5" value="&lt;p style=&quot;margin:0px;margin-top:4px;text-align:center;&quot;&gt;&lt;i&gt;&amp;lt;&amp;lt;Interface&amp;gt;&amp;gt;&lt;/i&gt;&lt;br&gt;&lt;span style=&quot;background-color: initial; text-align: left;&quot;&gt;&lt;b&gt;IHubActivator&lt;/b&gt;&lt;/span&gt;&lt;/p&gt;&lt;hr size=&quot;1&quot; style=&quot;border-style:solid;&quot;&gt;&lt;p style=&quot;margin:0px;margin-left:4px;&quot;&gt;Create():&amp;nbsp;&lt;span style=&quot;background-color: initial;&quot;&gt;&lt;i&gt;THub&lt;/i&gt;&lt;/span&gt;&lt;br&gt;&lt;/p&gt;&lt;p style=&quot;margin:0px;margin-left:4px;&quot;&gt;&lt;span style=&quot;background-color: initial;&quot;&gt;Release&lt;/span&gt;&lt;span style=&quot;background-color: initial;&quot;&gt;:&lt;i&gt;&amp;nbsp;&lt;/i&gt;&lt;/span&gt;&lt;span style=&quot;background-color: initial;&quot;&gt;&lt;i&gt;void&lt;/i&gt;&lt;/span&gt;&lt;span style=&quot;background-color: initial;&quot;&gt;&lt;i&gt;&lt;br&gt;&lt;/i&gt;&lt;/span&gt;&lt;/p&gt;&lt;p style=&quot;margin:0px;margin-left:4px;&quot;&gt;&lt;span style=&quot;background-color: initial;&quot;&gt;&lt;br&gt;&lt;/span&gt;&lt;/p&gt;" style="verticalAlign=top;align=left;overflow=fill;html=1;whiteSpace=wrap;" vertex="1" parent="1">
          <mxGeometry x="40" y="270" width="110" height="80" as="geometry" />
        </mxCell>
        <mxCell id="S6usmPDqZaUaMMj72xj2-6" value="&lt;p style=&quot;margin:0px;margin-top:4px;text-align:center;&quot;&gt;&lt;i&gt;&amp;lt;&amp;lt;Interface&amp;gt;&amp;gt;&lt;/i&gt;&lt;br&gt;&lt;span style=&quot;background-color: initial; text-align: left;&quot;&gt;&lt;b&gt;IHubCallerClients&lt;/b&gt;&lt;/span&gt;&lt;/p&gt;&lt;hr size=&quot;1&quot; style=&quot;border-style:solid;&quot;&gt;&lt;p style=&quot;margin:0px;margin-left:4px;&quot;&gt;new Caller:&amp;nbsp;&lt;i&gt;ISingleClientProxy&lt;/i&gt;&lt;br&gt;&lt;/p&gt;&lt;p style=&quot;margin:0px;margin-left:4px;&quot;&gt;&lt;br&gt;&lt;/p&gt;&lt;p style=&quot;margin:0px;margin-left:4px;&quot;&gt;new Client():&amp;nbsp;&lt;i&gt;ISingleClientProxy&lt;/i&gt;&lt;br&gt;&lt;/p&gt;&lt;p style=&quot;margin:0px;margin-left:4px;&quot;&gt;&lt;span style=&quot;background-color: initial;&quot;&gt;&lt;br&gt;&lt;/span&gt;&lt;/p&gt;" style="verticalAlign=top;align=left;overflow=fill;html=1;whiteSpace=wrap;" vertex="1" parent="1">
          <mxGeometry x="40" y="560" width="180" height="90" as="geometry" />
        </mxCell>
        <mxCell id="S6usmPDqZaUaMMj72xj2-7" value="&lt;p style=&quot;margin:0px;margin-top:4px;text-align:center;&quot;&gt;&lt;i&gt;&amp;lt;&amp;lt;Interface&amp;gt;&amp;gt;&lt;/i&gt;&lt;br&gt;&lt;span style=&quot;background-color: initial; text-align: left;&quot;&gt;&lt;b&gt;IHubCallerClients&amp;lt;T&amp;gt;&lt;/b&gt;&lt;/span&gt;&lt;/p&gt;&lt;hr size=&quot;1&quot; style=&quot;border-style:solid;&quot;&gt;&lt;p style=&quot;margin:0px;margin-left:4px;&quot;&gt;Caller:&amp;nbsp;&lt;i&gt;T&lt;/i&gt;&lt;br&gt;&lt;/p&gt;&lt;p style=&quot;margin:0px;margin-left:4px;&quot;&gt;Others: &lt;i&gt;T&lt;/i&gt;&lt;br&gt;&lt;/p&gt;&lt;p style=&quot;margin:0px;margin-left:4px;&quot;&gt;&lt;i&gt;&lt;br&gt;&lt;/i&gt;&lt;/p&gt;&lt;p style=&quot;margin:0px;margin-left:4px;&quot;&gt;OthersInGroup(): &lt;i&gt;T&lt;/i&gt;&lt;br&gt;&lt;/p&gt;&lt;p style=&quot;margin:0px;margin-left:4px;&quot;&gt;&lt;span style=&quot;background-color: initial;&quot;&gt;&lt;br&gt;&lt;/span&gt;&lt;/p&gt;" style="verticalAlign=top;align=left;overflow=fill;html=1;whiteSpace=wrap;" vertex="1" parent="1">
          <mxGeometry x="40" y="400" width="180" height="110" as="geometry" />
        </mxCell>
        <mxCell id="S6usmPDqZaUaMMj72xj2-8" value="" style="endArrow=block;dashed=1;endFill=0;endSize=12;html=1;rounded=0;entryX=0.5;entryY=1;entryDx=0;entryDy=0;exitX=0.5;exitY=0;exitDx=0;exitDy=0;" edge="1" parent="1" source="S6usmPDqZaUaMMj72xj2-6" target="S6usmPDqZaUaMMj72xj2-7">
          <mxGeometry width="160" relative="1" as="geometry">
            <mxPoint x="360" y="540" as="sourcePoint" />
            <mxPoint x="520" y="540" as="targetPoint" />
          </mxGeometry>
        </mxCell>
        <mxCell id="S6usmPDqZaUaMMj72xj2-9" value="&lt;p style=&quot;margin:0px;margin-top:4px;text-align:center;&quot;&gt;&lt;i&gt;&amp;lt;&amp;lt;Interface&amp;gt;&amp;gt;&lt;/i&gt;&lt;br&gt;&lt;span style=&quot;background-color: initial; text-align: left;&quot;&gt;&lt;b&gt;IHubProtocolResolver&lt;/b&gt;&lt;/span&gt;&lt;/p&gt;&lt;hr size=&quot;1&quot; style=&quot;border-style:solid;&quot;&gt;&lt;p style=&quot;margin:0px;margin-left:4px;&quot;&gt;AllProtocols:&amp;nbsp;&lt;span style=&quot;background-color: initial;&quot;&gt;&lt;i&gt;IReadOnlyList&amp;lt;IHubProtocol&amp;gt;&lt;/i&gt;&lt;/span&gt;&lt;br&gt;&lt;/p&gt;&lt;p style=&quot;margin:0px;margin-left:4px;&quot;&gt;GetProtocol:&amp;nbsp;&lt;span style=&quot;background-color: initial;&quot;&gt;&lt;i&gt;IHubProtocol?&lt;/i&gt;&lt;/span&gt;&lt;/p&gt;" style="verticalAlign=top;align=left;overflow=fill;html=1;whiteSpace=wrap;" vertex="1" parent="1">
          <mxGeometry x="680" y="280" width="240" height="80" as="geometry" />
        </mxCell>
        <mxCell id="S6usmPDqZaUaMMj72xj2-10" value="&lt;p style=&quot;margin:0px;margin-top:4px;text-align:center;&quot;&gt;&lt;i&gt;&amp;lt;&amp;lt;Interface&amp;gt;&amp;gt;&lt;/i&gt;&lt;br&gt;&lt;span style=&quot;background-color: initial; text-align: left;&quot;&gt;&lt;b&gt;IUserIdProvider&lt;/b&gt;&lt;/span&gt;&lt;/p&gt;&lt;hr size=&quot;1&quot; style=&quot;border-style:solid;&quot;&gt;&lt;p style=&quot;margin:0px;margin-left:4px;&quot;&gt;GetUserId:&amp;nbsp;&lt;span style=&quot;background-color: initial;&quot;&gt;&lt;i&gt;string?&lt;/i&gt;&lt;/span&gt;&lt;/p&gt;" style="verticalAlign=top;align=left;overflow=fill;html=1;whiteSpace=wrap;" vertex="1" parent="1">
          <mxGeometry x="680" y="400" width="130" height="70" as="geometry" />
        </mxCell>
        <mxCell id="S6usmPDqZaUaMMj72xj2-11" value="&lt;p style=&quot;margin: 4px 0px 0px; text-align: center;&quot;&gt;&lt;span style=&quot;background-color: initial; text-align: left;&quot;&gt;&lt;b&gt;GroupManager&amp;lt;THub&amp;gt;&lt;/b&gt;&lt;/span&gt;&lt;/p&gt;&lt;hr size=&quot;1&quot; style=&quot;border-style:solid;&quot;&gt;&lt;p style=&quot;margin:0px;margin-left:4px;&quot;&gt;AddToGroupAsync():&amp;nbsp;&lt;span style=&quot;background-color: initial;&quot;&gt;&lt;i&gt;Task&lt;/i&gt;&lt;/span&gt;&lt;br&gt;&lt;/p&gt;&lt;p style=&quot;margin:0px;margin-left:4px;&quot;&gt;&lt;span style=&quot;background-color: initial;&quot;&gt;RemoveFromGroupAsync()&lt;/span&gt;&lt;span style=&quot;background-color: initial;&quot;&gt;:&lt;i&gt; Task&lt;/i&gt;&lt;br&gt;&lt;/span&gt;&lt;/p&gt;" style="verticalAlign=top;align=left;overflow=fill;html=1;whiteSpace=wrap;" vertex="1" parent="1">
          <mxGeometry x="1160" y="160" width="190" height="70" as="geometry" />
        </mxCell>
        <mxCell id="S6usmPDqZaUaMMj72xj2-12" value="" style="endArrow=block;dashed=1;endFill=0;endSize=12;html=1;rounded=0;entryX=0.5;entryY=1;entryDx=0;entryDy=0;exitX=0.5;exitY=0;exitDx=0;exitDy=0;" edge="1" parent="1" source="S6usmPDqZaUaMMj72xj2-11" target="S6usmPDqZaUaMMj72xj2-3">
          <mxGeometry width="160" relative="1" as="geometry">
            <mxPoint x="1030" y="420" as="sourcePoint" />
            <mxPoint x="1190" y="420" as="targetPoint" />
          </mxGeometry>
        </mxCell>
      </root>
    </mxGraphModel>
  </diagram>
  <diagram id="nkwZxgqKd9_lIwlrxXQi" name="DI">
    <mxGraphModel dx="3018" dy="2055" grid="1" gridSize="10" guides="1" tooltips="1" connect="1" arrows="1" fold="1" page="1" pageScale="1" pageWidth="827" pageHeight="1169" math="0" shadow="0">
      <root>
        <mxCell id="0" />
        <mxCell id="1" parent="0" />
        <mxCell id="HWpaIws8z6iJydW3ixtV-1" value="&lt;p style=&quot;margin:0px;margin-top:4px;text-align:center;&quot;&gt;&lt;i&gt;&amp;lt;&amp;lt;Interface&amp;gt;&amp;gt;&lt;/i&gt;&lt;br&gt;&lt;span style=&quot;background-color: initial; text-align: left;&quot;&gt;&lt;b&gt;IServiceCollection&lt;/b&gt;&lt;/span&gt;&lt;/p&gt;&lt;hr size=&quot;1&quot; style=&quot;border-style:solid;&quot;&gt;&lt;p style=&quot;margin:0px;margin-left:4px;&quot;&gt;&lt;br&gt;&lt;/p&gt;&lt;p style=&quot;margin:0px;margin-left:4px;&quot;&gt;&lt;span style=&quot;background-color: initial;&quot;&gt;&lt;br&gt;&lt;/span&gt;&lt;/p&gt;" style="verticalAlign=top;align=left;overflow=fill;html=1;whiteSpace=wrap;" parent="1" vertex="1">
          <mxGeometry x="-420" y="190" width="220" height="70" as="geometry" />
        </mxCell>
        <mxCell id="HWpaIws8z6iJydW3ixtV-2" value="&lt;p style=&quot;margin:0px;margin-top:4px;text-align:center;&quot;&gt;&lt;i&gt;&amp;lt;&amp;lt;Interface&amp;gt;&amp;gt;&lt;/i&gt;&lt;br&gt;&lt;span style=&quot;background-color: initial; text-align: left;&quot;&gt;&lt;b&gt;IList&amp;lt;ServiceDescriptor&amp;gt;&lt;/b&gt;&lt;/span&gt;&lt;/p&gt;&lt;hr size=&quot;1&quot; style=&quot;border-style:solid;&quot;&gt;&lt;p style=&quot;margin:0px;margin-left:4px;&quot;&gt;&lt;br&gt;&lt;/p&gt;&lt;p style=&quot;margin:0px;margin-left:4px;&quot;&gt;&lt;span style=&quot;background-color: initial;&quot;&gt;&lt;br&gt;&lt;/span&gt;&lt;/p&gt;" style="verticalAlign=top;align=left;overflow=fill;html=1;whiteSpace=wrap;" parent="1" vertex="1">
          <mxGeometry x="-400" y="70" width="180" height="70" as="geometry" />
        </mxCell>
        <mxCell id="HWpaIws8z6iJydW3ixtV-3" value="" style="endArrow=block;dashed=1;endFill=0;endSize=12;html=1;rounded=0;entryX=0.5;entryY=1;entryDx=0;entryDy=0;exitX=0.5;exitY=0;exitDx=0;exitDy=0;" parent="1" source="HWpaIws8z6iJydW3ixtV-1" target="HWpaIws8z6iJydW3ixtV-2" edge="1">
          <mxGeometry width="160" relative="1" as="geometry">
            <mxPoint x="-280" y="390" as="sourcePoint" />
            <mxPoint x="-120" y="390" as="targetPoint" />
          </mxGeometry>
        </mxCell>
        <mxCell id="HWpaIws8z6iJydW3ixtV-4" value="&lt;p style=&quot;margin:0px;margin-top:4px;text-align:center;&quot;&gt;&lt;span style=&quot;background-color: initial; text-align: left;&quot;&gt;&lt;b&gt;ServiceCollection&lt;/b&gt;&lt;/span&gt;&lt;/p&gt;&lt;hr size=&quot;1&quot; style=&quot;border-style:solid;&quot;&gt;&lt;p style=&quot;margin:0px;margin-left:4px;&quot;&gt;Count: &lt;i&gt;int&lt;/i&gt;&lt;br&gt;&lt;/p&gt;&lt;p style=&quot;margin:0px;margin-left:4px;&quot;&gt;IsReadOnly: &lt;i&gt;bool&lt;/i&gt;&lt;br&gt;&lt;/p&gt;&lt;p style=&quot;margin:0px;margin-left:4px;&quot;&gt;&lt;span style=&quot;background-color: initial;&quot;&gt;this[]:&amp;nbsp;&lt;/span&gt;&lt;span style=&quot;background-color: initial;&quot;&gt;&lt;i&gt;ServiceDescriptor&lt;/i&gt;&lt;/span&gt;&lt;span style=&quot;background-color: initial;&quot;&gt;&lt;br&gt;&lt;/span&gt;&lt;/p&gt;&lt;p style=&quot;margin:0px;margin-left:4px;&quot;&gt;&lt;span style=&quot;background-color: initial;&quot;&gt;Clear: &lt;i&gt;void&lt;/i&gt;&lt;br&gt;&lt;/span&gt;&lt;/p&gt;&lt;p style=&quot;margin:0px;margin-left:4px;&quot;&gt;&lt;span style=&quot;background-color: initial;&quot;&gt;Contains:&amp;nbsp;&lt;/span&gt;&lt;span style=&quot;background-color: initial;&quot;&gt;&lt;i&gt;bool&lt;/i&gt;&lt;/span&gt;&lt;span style=&quot;background-color: initial;&quot;&gt;&lt;br&gt;&lt;/span&gt;&lt;/p&gt;&lt;p style=&quot;margin:0px;margin-left:4px;&quot;&gt;&lt;span style=&quot;background-color: initial;&quot;&gt;&lt;i&gt;CopyTo()&lt;br&gt;&lt;/i&gt;&lt;/span&gt;&lt;/p&gt;&lt;p style=&quot;margin:0px;margin-left:4px;&quot;&gt;&lt;span style=&quot;background-color: initial;&quot;&gt;&lt;i&gt;Remove()&lt;br&gt;&lt;/i&gt;&lt;/span&gt;&lt;/p&gt;&lt;p style=&quot;margin:0px;margin-left:4px;&quot;&gt;&lt;span style=&quot;background-color: initial;&quot;&gt;&lt;i&gt;GetEnumerator()&lt;br&gt;&lt;/i&gt;&lt;/span&gt;&lt;/p&gt;&lt;p style=&quot;margin:0px;margin-left:4px;&quot;&gt;&lt;span style=&quot;background-color: initial;&quot;&gt;&lt;i&gt;ICollection&amp;lt;ServiceDescriptor&amp;gt;.Add()&lt;br&gt;&lt;/i&gt;&lt;/span&gt;&lt;/p&gt;&lt;p style=&quot;margin:0px;margin-left:4px;&quot;&gt;&lt;span style=&quot;background-color: initial;&quot;&gt;&lt;i&gt;IndexOf()&lt;br&gt;&lt;/i&gt;&lt;/span&gt;&lt;/p&gt;&lt;p style=&quot;margin:0px;margin-left:4px;&quot;&gt;&lt;span style=&quot;background-color: initial;&quot;&gt;&lt;i&gt;Insert()&lt;br&gt;&lt;/i&gt;&lt;/span&gt;&lt;/p&gt;&lt;p style=&quot;margin:0px;margin-left:4px;&quot;&gt;&lt;span style=&quot;background-color: initial;&quot;&gt;&lt;i&gt;RemoveAt()&lt;br&gt;&lt;/i&gt;&lt;/span&gt;&lt;/p&gt;&lt;p style=&quot;margin:0px;margin-left:4px;&quot;&gt;&lt;span style=&quot;background-color: initial;&quot;&gt;&lt;i&gt;MakeReadOnly()&lt;br&gt;&lt;/i&gt;&lt;/span&gt;&lt;/p&gt;&lt;p style=&quot;margin:0px;margin-left:4px;&quot;&gt;&lt;span style=&quot;background-color: initial;&quot;&gt;&lt;i&gt;CheckReadOnly()&lt;br&gt;&lt;/i&gt;&lt;/span&gt;&lt;/p&gt;&lt;p style=&quot;margin:0px;margin-left:4px;&quot;&gt;&lt;span style=&quot;background-color: initial;&quot;&gt;&lt;i&gt;&lt;br&gt;&lt;/i&gt;&lt;/span&gt;&lt;/p&gt;&lt;p style=&quot;margin:0px;margin-left:4px;&quot;&gt;&lt;span style=&quot;background-color: initial;&quot;&gt;&lt;i&gt;&lt;br&gt;&lt;/i&gt;&lt;/span&gt;&lt;/p&gt;&lt;p style=&quot;margin:0px;margin-left:4px;&quot;&gt;&lt;span style=&quot;background-color: initial;&quot;&gt;&lt;i&gt;&lt;br&gt;&lt;/i&gt;&lt;/span&gt;&lt;/p&gt;&lt;p style=&quot;margin:0px;margin-left:4px;&quot;&gt;&lt;span style=&quot;background-color: initial;&quot;&gt;&lt;i&gt;&lt;br&gt;&lt;/i&gt;&lt;/span&gt;&lt;/p&gt;&lt;p style=&quot;margin:0px;margin-left:4px;&quot;&gt;&lt;span style=&quot;background-color: initial;&quot;&gt;&lt;i&gt;&lt;br&gt;&lt;/i&gt;&lt;/span&gt;&lt;/p&gt;" style="verticalAlign=top;align=left;overflow=fill;html=1;whiteSpace=wrap;" parent="1" vertex="1">
          <mxGeometry x="-420" y="310" width="220" height="240" as="geometry" />
        </mxCell>
        <mxCell id="HWpaIws8z6iJydW3ixtV-5" value="" style="endArrow=block;dashed=1;endFill=0;endSize=12;html=1;rounded=0;entryX=0.5;entryY=1;entryDx=0;entryDy=0;exitX=0.5;exitY=0;exitDx=0;exitDy=0;" parent="1" source="HWpaIws8z6iJydW3ixtV-4" target="HWpaIws8z6iJydW3ixtV-1" edge="1">
          <mxGeometry width="160" relative="1" as="geometry">
            <mxPoint x="-100" y="320" as="sourcePoint" />
            <mxPoint x="-100" y="270" as="targetPoint" />
          </mxGeometry>
        </mxCell>
        <mxCell id="HWpaIws8z6iJydW3ixtV-6" value="&lt;p style=&quot;margin:0px;margin-top:4px;text-align:center;&quot;&gt;&lt;span style=&quot;background-color: initial; text-align: left;&quot;&gt;&lt;b&gt;ServiceDescriptor&lt;/b&gt;&lt;/span&gt;&lt;/p&gt;&lt;hr size=&quot;1&quot; style=&quot;border-style:solid;&quot;&gt;&lt;p style=&quot;margin:0px;margin-left:4px;&quot;&gt;&lt;span style=&quot;background-color: initial;&quot;&gt;ServiceType:&amp;nbsp;&lt;/span&gt;&lt;span style=&quot;background-color: initial;&quot;&gt;Type&lt;/span&gt;&lt;/p&gt;&lt;p style=&quot;margin:0px;margin-left:4px;&quot;&gt;&lt;br&gt;&lt;/p&gt;&lt;p style=&quot;margin:0px;margin-left:4px;&quot;&gt;&lt;span style=&quot;background-color: initial;&quot;&gt;ServiceKey:&amp;nbsp;&lt;/span&gt;&lt;span style=&quot;background-color: initial;&quot;&gt;object?&lt;/span&gt;&lt;/p&gt;&lt;p style=&quot;margin:0px;margin-left:4px;&quot;&gt;&lt;br&gt;&lt;/p&gt;&lt;p style=&quot;margin:0px;margin-left:4px;&quot;&gt;&lt;span style=&quot;background-color: initial;&quot;&gt;&amp;nbsp; &amp;nbsp; &amp;nbsp; &amp;nbsp; &amp;nbsp; ImplementationType:&amp;nbsp;&lt;/span&gt;&lt;span style=&quot;background-color: initial;&quot;&gt;Type?&lt;/span&gt;&lt;/p&gt;&lt;p style=&quot;margin:0px;margin-left:4px;&quot;&gt;KeyedImplementationType:&amp;nbsp;Type?&lt;/p&gt;&lt;p style=&quot;margin:0px;margin-left:4px;&quot;&gt;&lt;br&gt;&lt;/p&gt;&lt;p style=&quot;margin:0px;margin-left:4px;&quot;&gt;&amp;nbsp; &amp;nbsp; &amp;nbsp; &amp;nbsp; &amp;nbsp; ImplementationInstance:&amp;nbsp;object?&lt;/p&gt;&lt;p style=&quot;margin:0px;margin-left:4px;&quot;&gt;KeyedImplementationInstance:&amp;nbsp;object?&lt;/p&gt;&lt;p style=&quot;margin:0px;margin-left:4px;&quot;&gt;&lt;br&gt;&lt;/p&gt;&lt;p style=&quot;margin:0px;margin-left:4px;&quot;&gt;&amp;nbsp; &amp;nbsp; &amp;nbsp; &amp;nbsp; &amp;nbsp; &amp;nbsp;ImplementationFactory:&amp;nbsp;&lt;span style=&quot;background-color: initial;&quot;&gt;Func&amp;lt;IServiceProvider, object&amp;gt;?&lt;/span&gt;&lt;/p&gt;&lt;p style=&quot;margin:0px;margin-left:4px;&quot;&gt;KeyedImplementationFactory:&amp;nbsp;Func&amp;lt;IServiceProvider, object?, object&amp;gt;?&lt;/p&gt;&lt;p style=&quot;margin:0px;margin-left:4px;&quot;&gt;&lt;br&gt;&lt;/p&gt;&lt;p style=&quot;margin:0px;margin-left:4px;&quot;&gt;Lifetime:&amp;nbsp;&lt;span style=&quot;background-color: initial;&quot;&gt;ServiceLifetime&lt;/span&gt;&lt;/p&gt;&lt;p style=&quot;margin:0px;margin-left:4px;&quot;&gt;&lt;span style=&quot;background-color: initial;&quot;&gt;&lt;br&gt;&lt;/span&gt;&lt;/p&gt;&lt;p style=&quot;margin:0px;margin-left:4px;&quot;&gt;&lt;span style=&quot;background-color: initial;&quot;&gt;GetImplementationType():&amp;nbsp;&lt;/span&gt;&lt;span style=&quot;background-color: initial;&quot;&gt;Type&lt;/span&gt;&lt;/p&gt;&lt;p style=&quot;margin:0px;margin-left:4px;&quot;&gt;&lt;span style=&quot;background-color: initial;&quot;&gt;&lt;br&gt;&lt;/span&gt;&lt;/p&gt;&lt;p style=&quot;margin:0px;margin-left:4px;&quot;&gt;.ctor&lt;/p&gt;&lt;p style=&quot;margin:0px;margin-left:4px;&quot;&gt;1. ctor(Type serviceType, Type implementationType, ServiceLifetime lifetime)&amp;nbsp; [2,&amp;nbsp;&lt;span style=&quot;background-color: initial;&quot;&gt;serviceKey = null&lt;/span&gt;&lt;span style=&quot;background-color: initial;&quot;&gt;]&lt;/span&gt;&lt;/p&gt;&lt;p style=&quot;margin:0px;margin-left:4px;&quot;&gt;2. ctor(Type serviceType, object? serviceKey, Type implementationType, ServiceLifetime lifetime) [7,&amp;nbsp;_implementationType = implementationType]&lt;/p&gt;&lt;p style=&quot;margin:0px;margin-left:4px;&quot;&gt;3. ctor(Type serviceType, object instance) [4,&amp;nbsp;&lt;span style=&quot;background-color: initial;&quot;&gt;serviceKey = null&lt;/span&gt;&lt;span style=&quot;background-color: initial;&quot;&gt;]&lt;/span&gt;&lt;/p&gt;&lt;p style=&quot;margin:0px;margin-left:4px;&quot;&gt;4. ctor(Type serviceType, object? serviceKey, object instance) [7, implementationInstance = instance,&amp;nbsp;&lt;span style=&quot;background-color: initial;&quot;&gt;lifetime=&lt;/span&gt;&lt;span style=&quot;background-color: initial;&quot;&gt;Singleton]&lt;/span&gt;&lt;/p&gt;&lt;p style=&quot;margin:0px;margin-left:4px;&quot;&gt;5. ctor(Type serviceType, Func&amp;lt;IServiceProvider, object&amp;gt; factory, ServiceLifetime lifetime) [7,&amp;nbsp;&lt;span style=&quot;background-color: initial;&quot;&gt;serviceKey = null,&amp;nbsp;&lt;/span&gt;&lt;span style=&quot;background-color: initial;&quot;&gt;_implementationFactory = factory&lt;/span&gt;&lt;span style=&quot;background-color: initial;&quot;&gt;]&lt;/span&gt;&lt;/p&gt;&lt;p style=&quot;margin:0px;margin-left:4px;&quot;&gt;6. ctor(Type serviceType, object? serviceKey, Func&amp;lt;IServiceProvider, object?, object&amp;gt; factory, ServiceLifetime lifetime) [7,&amp;nbsp;&lt;span style=&quot;background-color: initial;&quot;&gt;implementationFactory = factory&lt;/span&gt;&lt;span style=&quot;background-color: initial;&quot;&gt;]&lt;/span&gt;&lt;/p&gt;&lt;p style=&quot;margin:0px;margin-left:4px;&quot;&gt;7. - ctor(Type serviceType, object? serviceKey, ServiceLifetime lifetime)&lt;/p&gt;&lt;p style=&quot;margin:0px;margin-left:4px;&quot;&gt;&lt;br&gt;&lt;/p&gt;&lt;p style=&quot;margin:0px;margin-left:4px;&quot;&gt;&lt;br&gt;&lt;/p&gt;&lt;p style=&quot;margin:0px;margin-left:4px;&quot;&gt;&lt;br&gt;&lt;/p&gt;&lt;p style=&quot;margin:0px;margin-left:4px;&quot;&gt;&lt;span style=&quot;background-color: initial;&quot;&gt;&lt;i&gt;&lt;br&gt;&lt;/i&gt;&lt;/span&gt;&lt;/p&gt;&lt;p style=&quot;margin:0px;margin-left:4px;&quot;&gt;&lt;span style=&quot;background-color: initial;&quot;&gt;&lt;i&gt;&lt;br&gt;&lt;/i&gt;&lt;/span&gt;&lt;/p&gt;" style="verticalAlign=top;align=left;overflow=fill;html=1;whiteSpace=wrap;" parent="1" vertex="1">
          <mxGeometry x="590" y="920" width="840" height="400" as="geometry" />
        </mxCell>
        <mxCell id="HWpaIws8z6iJydW3ixtV-7" value="&lt;p style=&quot;margin:0px;margin-top:4px;text-align:center;&quot;&gt;&lt;i&gt;&amp;lt;&amp;lt;Interface&amp;gt;&amp;gt;&lt;/i&gt;&lt;br&gt;&lt;span style=&quot;background-color: initial; text-align: left;&quot;&gt;&lt;b&gt;IKeyedServiceProvider&lt;/b&gt;&lt;/span&gt;&lt;/p&gt;&lt;hr size=&quot;1&quot; style=&quot;border-style:solid;&quot;&gt;&lt;p style=&quot;margin:0px;margin-left:4px;&quot;&gt;GetKeyedService():&amp;nbsp;object?&lt;br&gt;&lt;/p&gt;&lt;p style=&quot;margin:0px;margin-left:4px;&quot;&gt;GetRequiredKeyedService():&amp;nbsp;object&lt;br&gt;&lt;/p&gt;&lt;p style=&quot;margin:0px;margin-left:4px;&quot;&gt;&lt;span style=&quot;background-color: initial;&quot;&gt;&lt;br&gt;&lt;/span&gt;&lt;/p&gt;" style="verticalAlign=top;align=left;overflow=fill;html=1;whiteSpace=wrap;" parent="1" vertex="1">
          <mxGeometry x="750" y="310" width="220" height="80" as="geometry" />
        </mxCell>
        <mxCell id="HWpaIws8z6iJydW3ixtV-8" value="&lt;p style=&quot;margin:0px;margin-top:4px;text-align:center;&quot;&gt;&lt;i&gt;&amp;lt;&amp;lt;Interface&amp;gt;&amp;gt;&lt;/i&gt;&lt;br&gt;&lt;span style=&quot;background-color: initial; text-align: left;&quot;&gt;&lt;b&gt;IServiceProviderFactory&amp;lt;TContainerBuilder&amp;gt;&lt;/b&gt;&lt;/span&gt;&lt;/p&gt;&lt;hr size=&quot;1&quot; style=&quot;border-style:solid;&quot;&gt;&lt;p style=&quot;margin:0px;margin-left:4px;&quot;&gt;CreateBuilder():&amp;nbsp;TContainerBuilder&lt;br&gt;&lt;/p&gt;&lt;p style=&quot;margin:0px;margin-left:4px;&quot;&gt;CreateServiceProvider():&amp;nbsp;IServiceProvider&lt;br&gt;&lt;/p&gt;&lt;p style=&quot;margin:0px;margin-left:4px;&quot;&gt;&lt;span style=&quot;background-color: initial;&quot;&gt;&lt;br&gt;&lt;/span&gt;&lt;/p&gt;" style="verticalAlign=top;align=left;overflow=fill;html=1;whiteSpace=wrap;" parent="1" vertex="1">
          <mxGeometry x="-166" y="30" width="280" height="80" as="geometry" />
        </mxCell>
        <mxCell id="HWpaIws8z6iJydW3ixtV-9" value="&lt;p style=&quot;margin:0px;margin-top:4px;text-align:center;&quot;&gt;&lt;i&gt;&amp;lt;&amp;lt;Interface&amp;gt;&amp;gt;&lt;/i&gt;&lt;br&gt;&lt;span style=&quot;background-color: initial; text-align: left;&quot;&gt;&lt;b&gt;IServiceProviderIsKeyedService&lt;/b&gt;&lt;/span&gt;&lt;/p&gt;&lt;hr size=&quot;1&quot; style=&quot;border-style:solid;&quot;&gt;&lt;p style=&quot;margin:0px;margin-left:4px;&quot;&gt;IsKeyedService():&amp;nbsp;&lt;i&gt;bool&lt;/i&gt;&lt;br&gt;&lt;/p&gt;&lt;p style=&quot;margin:0px;margin-left:4px;&quot;&gt;&lt;span style=&quot;background-color: initial;&quot;&gt;&lt;br&gt;&lt;/span&gt;&lt;/p&gt;" style="verticalAlign=top;align=left;overflow=fill;html=1;whiteSpace=wrap;" parent="1" vertex="1">
          <mxGeometry x="670" y="180" width="215" height="70" as="geometry" />
        </mxCell>
        <mxCell id="HWpaIws8z6iJydW3ixtV-10" value="&lt;p style=&quot;margin:0px;margin-top:4px;text-align:center;&quot;&gt;&lt;i&gt;&amp;lt;&amp;lt;Interface&amp;gt;&amp;gt;&lt;/i&gt;&lt;br&gt;&lt;span style=&quot;background-color: initial; text-align: left;&quot;&gt;&lt;b&gt;IServiceProviderIsService&lt;/b&gt;&lt;/span&gt;&lt;/p&gt;&lt;hr size=&quot;1&quot; style=&quot;border-style:solid;&quot;&gt;&lt;p style=&quot;margin:0px;margin-left:4px;&quot;&gt;IsService():&amp;nbsp;&lt;i&gt;bool&lt;/i&gt;&lt;br&gt;&lt;/p&gt;&lt;p style=&quot;margin:0px;margin-left:4px;&quot;&gt;&lt;span style=&quot;background-color: initial;&quot;&gt;&lt;br&gt;&lt;/span&gt;&lt;/p&gt;" style="verticalAlign=top;align=left;overflow=fill;html=1;whiteSpace=wrap;" parent="1" vertex="1">
          <mxGeometry x="670" y="40" width="215" height="70" as="geometry" />
        </mxCell>
        <mxCell id="HWpaIws8z6iJydW3ixtV-11" value="" style="endArrow=block;dashed=1;endFill=0;endSize=12;html=1;rounded=0;entryX=0.5;entryY=1;entryDx=0;entryDy=0;exitX=0.5;exitY=0;exitDx=0;exitDy=0;" parent="1" source="HWpaIws8z6iJydW3ixtV-9" target="HWpaIws8z6iJydW3ixtV-10" edge="1">
          <mxGeometry width="160" relative="1" as="geometry">
            <mxPoint x="785" y="210" as="sourcePoint" />
            <mxPoint x="765" y="160" as="targetPoint" />
          </mxGeometry>
        </mxCell>
        <mxCell id="HWpaIws8z6iJydW3ixtV-12" value="&lt;p style=&quot;margin:0px;margin-top:4px;text-align:center;&quot;&gt;&lt;i&gt;&amp;lt;&amp;lt;Interface&amp;gt;&amp;gt;&lt;/i&gt;&lt;br&gt;&lt;span style=&quot;background-color: initial; text-align: left;&quot;&gt;&lt;b&gt;IServiceScope&lt;/b&gt;&lt;/span&gt;&lt;/p&gt;&lt;hr size=&quot;1&quot; style=&quot;border-style:solid;&quot;&gt;&lt;p style=&quot;margin:0px;margin-left:4px;&quot;&gt;ServiceProvider:&amp;nbsp;&lt;span style=&quot;background-color: initial;&quot;&gt;&lt;i&gt;IServiceProvider&lt;/i&gt;&lt;/span&gt;&lt;br&gt;&lt;/p&gt;&lt;p style=&quot;margin:0px;margin-left:4px;&quot;&gt;&lt;span style=&quot;background-color: initial;&quot;&gt;&lt;br&gt;&lt;/span&gt;&lt;/p&gt;" style="verticalAlign=top;align=left;overflow=fill;html=1;whiteSpace=wrap;" parent="1" vertex="1">
          <mxGeometry x="1320" y="-160" width="215" height="70" as="geometry" />
        </mxCell>
        <mxCell id="HWpaIws8z6iJydW3ixtV-13" value="&lt;p style=&quot;margin:0px;margin-top:4px;text-align:center;&quot;&gt;&lt;i&gt;&amp;lt;&amp;lt;Interface&amp;gt;&amp;gt;&lt;/i&gt;&lt;br&gt;&lt;span style=&quot;background-color: initial; text-align: left;&quot;&gt;&lt;b&gt;IServiceScopeFactory&lt;/b&gt;&lt;/span&gt;&lt;/p&gt;&lt;hr size=&quot;1&quot; style=&quot;border-style:solid;&quot;&gt;&lt;p style=&quot;margin:0px;margin-left:4px;&quot;&gt;CreateScope():&amp;nbsp;&lt;span style=&quot;background-color: initial;&quot;&gt;&lt;i&gt;IServiceScope&lt;/i&gt;&lt;/span&gt;&lt;br&gt;&lt;/p&gt;&lt;p style=&quot;margin:0px;margin-left:4px;&quot;&gt;&lt;span style=&quot;background-color: initial;&quot;&gt;&lt;br&gt;&lt;/span&gt;&lt;/p&gt;" style="verticalAlign=top;align=left;overflow=fill;html=1;whiteSpace=wrap;" parent="1" vertex="1">
          <mxGeometry x="1000" y="40" width="215" height="70" as="geometry" />
        </mxCell>
        <mxCell id="Ijc0YAAY6v-7ITq_2Ybt-1" value="&lt;p style=&quot;margin:0px;margin-top:4px;text-align:center;&quot;&gt;&lt;span style=&quot;background-color: initial; text-align: left;&quot;&gt;&lt;b&gt;ActivatorUtilities&lt;/b&gt;&lt;/span&gt;&lt;/p&gt;&lt;hr size=&quot;1&quot; style=&quot;border-style:solid;&quot;&gt;&lt;p style=&quot;margin:0px;margin-left:4px;&quot;&gt;&lt;br&gt;&lt;/p&gt;&lt;p style=&quot;margin:0px;margin-left:4px;&quot;&gt;&lt;span style=&quot;background-color: initial;&quot;&gt;&lt;br&gt;&lt;/span&gt;&lt;/p&gt;" style="verticalAlign=top;align=left;overflow=fill;html=1;whiteSpace=wrap;" parent="1" vertex="1">
          <mxGeometry x="1320" y="30" width="160" height="50" as="geometry" />
        </mxCell>
        <mxCell id="Ijc0YAAY6v-7ITq_2Ybt-2" value="&lt;p style=&quot;margin:0px;margin-top:4px;text-align:center;&quot;&gt;&lt;span style=&quot;background-color: initial; text-align: left;&quot;&gt;&lt;b&gt;AsyncServiceScope&lt;/b&gt;&lt;/span&gt;&lt;/p&gt;&lt;hr size=&quot;1&quot; style=&quot;border-style:solid;&quot;&gt;&lt;p style=&quot;margin:0px;margin-left:4px;&quot;&gt;&lt;br&gt;&lt;/p&gt;&lt;p style=&quot;margin:0px;margin-left:4px;&quot;&gt;&lt;span style=&quot;background-color: initial;&quot;&gt;&lt;br&gt;&lt;/span&gt;&lt;/p&gt;" style="verticalAlign=top;align=left;overflow=fill;html=1;whiteSpace=wrap;" parent="1" vertex="1">
          <mxGeometry x="1320" y="-40" width="220" height="50" as="geometry" />
        </mxCell>
        <mxCell id="Ijc0YAAY6v-7ITq_2Ybt-3" value="" style="endArrow=block;dashed=1;endFill=0;endSize=12;html=1;rounded=0;entryX=0.5;entryY=1;entryDx=0;entryDy=0;exitX=0.5;exitY=0;exitDx=0;exitDy=0;" parent="1" source="Ijc0YAAY6v-7ITq_2Ybt-2" target="HWpaIws8z6iJydW3ixtV-12" edge="1">
          <mxGeometry width="160" relative="1" as="geometry">
            <mxPoint x="788" y="-10" as="sourcePoint" />
            <mxPoint x="788" y="-80" as="targetPoint" />
          </mxGeometry>
        </mxCell>
        <mxCell id="Ijc0YAAY6v-7ITq_2Ybt-4" value="&lt;p style=&quot;margin:0px;margin-top:4px;text-align:center;&quot;&gt;&lt;i&gt;&amp;lt;&amp;lt;Interface&amp;gt;&amp;gt;&lt;/i&gt;&lt;br&gt;&lt;span style=&quot;background-color: initial; text-align: left;&quot;&gt;&lt;b&gt;ISupportRequiredService&lt;/b&gt;&lt;/span&gt;&lt;/p&gt;&lt;hr size=&quot;1&quot; style=&quot;border-style:solid;&quot;&gt;&lt;p style=&quot;margin:0px;margin-left:4px;&quot;&gt;GetRequiredService: &lt;i&gt;object&lt;/i&gt;&lt;/p&gt;&lt;p style=&quot;margin:0px;margin-left:4px;&quot;&gt;&lt;span style=&quot;background-color: initial;&quot;&gt;&lt;br&gt;&lt;/span&gt;&lt;/p&gt;" style="verticalAlign=top;align=left;overflow=fill;html=1;whiteSpace=wrap;" parent="1" vertex="1">
          <mxGeometry x="1320" y="100" width="180" height="70" as="geometry" />
        </mxCell>
        <mxCell id="Ijc0YAAY6v-7ITq_2Ybt-5" value="" style="endArrow=diamondThin;endFill=1;endSize=24;html=1;rounded=0;entryX=1;entryY=0;entryDx=0;entryDy=0;exitX=0;exitY=0;exitDx=0;exitDy=0;" parent="1" source="Ijc0YAAY6v-7ITq_2Ybt-6" target="HWpaIws8z6iJydW3ixtV-1" edge="1">
          <mxGeometry width="160" relative="1" as="geometry">
            <mxPoint x="-100" y="310" as="sourcePoint" />
            <mxPoint x="90" y="450" as="targetPoint" />
          </mxGeometry>
        </mxCell>
        <mxCell id="Ijc0YAAY6v-7ITq_2Ybt-6" value="&lt;p style=&quot;margin:0px;margin-top:4px;text-align:center;&quot;&gt;&lt;span style=&quot;background-color: initial; text-align: left;&quot;&gt;&lt;b&gt;ServiceCollectionServiceExtensions&lt;/b&gt;&lt;/span&gt;&lt;/p&gt;&lt;hr size=&quot;1&quot; style=&quot;border-style:solid;&quot;&gt;&lt;p style=&quot;margin:0px;margin-left:4px;&quot;&gt;Lt = Transient | Scoped | Singleton&lt;/p&gt;&lt;p style=&quot;margin:0px;margin-left:4px;&quot;&gt;KLt = KeyedTransient | KeyedScoped | KeyedSingleton&lt;/p&gt;&lt;p style=&quot;margin:0px;margin-left:4px;&quot;&gt;&lt;br&gt;&lt;/p&gt;&lt;p style=&quot;margin:0px;margin-left:4px;&quot;&gt;1. &lt;b&gt;AddLt(Type serviceType, Type implementationType)&lt;/b&gt; =&amp;gt; &lt;i&gt;Add(services, serviceType, implementationType, lifetime) [10.]&lt;/i&gt;&lt;/p&gt;&lt;p style=&quot;margin:0px;margin-left:4px;&quot;&gt;2. &lt;b&gt;AddLt&amp;lt;TService, TImplementation&amp;gt;()&lt;/b&gt; =&amp;gt;&amp;nbsp;&lt;i&gt;AddTransient(typeof(TService), typeof(TImplementation)) [1.]&lt;/i&gt;&lt;/p&gt;&lt;p style=&quot;margin:0px;margin-left:4px;&quot;&gt;3. &lt;b&gt;AddLt(Type serviceType)&lt;/b&gt; =&amp;gt;&amp;nbsp;&lt;i&gt;&lt;span style=&quot;background-color: initial;&quot;&gt;AddLt(Type serviceType,&amp;nbsp;&lt;/span&gt;Type serviceType&lt;span style=&quot;background-color: initial;&quot;&gt;) [1.]&lt;/span&gt;&lt;/i&gt;&lt;/p&gt;&lt;p style=&quot;margin:0px;margin-left:4px;&quot;&gt;4. &lt;b&gt;AddLt&amp;lt;TService&amp;gt;()&lt;/b&gt; =&amp;gt;&amp;nbsp;&lt;i&gt;AddTransient(typeof(TService)) [3.]&lt;/i&gt;&lt;/p&gt;&lt;p style=&quot;margin:0px;margin-left:4px;&quot;&gt;&lt;i&gt;&lt;span style=&quot;background-color: initial;&quot;&gt;&lt;br&gt;&lt;/span&gt;&lt;/i&gt;&lt;/p&gt;&lt;p style=&quot;margin:0px;margin-left:4px;&quot;&gt;&lt;i&gt;&lt;span style=&quot;background-color: initial;&quot;&gt;&lt;br&gt;&lt;/span&gt;&lt;/i&gt;&lt;/p&gt;&lt;p style=&quot;margin:0px;margin-left:4px;&quot;&gt;5. &lt;b&gt;AddLt(Type serviceType, Func&amp;lt;IServiceProvider, object&amp;gt; implementationFactory) &lt;/b&gt;=&amp;gt; [11.]&lt;/p&gt;&lt;p style=&quot;margin:0px;margin-left:4px;&quot;&gt;&lt;span style=&quot;background-color: initial;&quot;&gt;6. &lt;b&gt;AddLt&amp;lt;TService&amp;gt;(Func&amp;lt;IServiceProvider, TService&amp;gt; implementationFactory)&amp;nbsp;&lt;/b&gt;&lt;/span&gt;&lt;/p&gt;&lt;p style=&quot;margin:0px;margin-left:4px;&quot;&gt;&lt;span style=&quot;background-color: initial;&quot;&gt;=&amp;gt;&amp;nbsp;&lt;/span&gt;&lt;i style=&quot;background-color: initial;&quot;&gt;AddTransient(typeof(TService), implementationFactory) [5.]&lt;/i&gt;&lt;/p&gt;&lt;p style=&quot;margin:0px;margin-left:4px;&quot;&gt;&lt;span style=&quot;background-color: initial;&quot;&gt;7. &lt;b&gt;AddLt&amp;lt;TService, TImplementation&amp;gt;(Func&amp;lt;IServiceProvider, TImplementation&amp;gt; implementationFactory)&amp;nbsp;&lt;/b&gt;&lt;/span&gt;&lt;/p&gt;&lt;p style=&quot;margin:0px;margin-left:4px;&quot;&gt;=&amp;gt;&lt;i&gt;AddTransient(typeof(TService), implementationFactory) [5.]&lt;/i&gt;&lt;/p&gt;&lt;p style=&quot;margin:0px;margin-left:4px;&quot;&gt;&lt;br&gt;&lt;/p&gt;&lt;p style=&quot;margin:0px;margin-left:4px;&quot;&gt;8. AddSingleton(Type serviceType, object implementationInstance)&lt;/p&gt;&lt;p style=&quot;margin:0px;margin-left:4px;&quot;&gt;9. &lt;b&gt;AddSingleton&amp;lt;TService&amp;gt;(TService implementationInstance) &lt;/b&gt;=&amp;gt;&amp;nbsp;&lt;i&gt;AddSingleton(typeof(TService), implementationInstance) [8.]&lt;/i&gt;&lt;/p&gt;&lt;p style=&quot;margin:0px;margin-left:4px;&quot;&gt;&lt;br&gt;&lt;/p&gt;&lt;p style=&quot;margin:0px;margin-left:4px;&quot;&gt;10.&amp;nbsp;&lt;span style=&quot;background-color: initial;&quot;&gt;Add(&lt;/span&gt;&lt;span style=&quot;background-color: initial;&quot;&gt;IServiceCollection collection,&amp;nbsp;&lt;/span&gt;&lt;span style=&quot;background-color: initial;&quot;&gt;Type serviceType,&lt;/span&gt;&lt;span style=&quot;background-color: initial;&quot;&gt;&amp;nbsp;Type implementationType,&amp;nbsp;&lt;/span&gt;&lt;span style=&quot;background-color: initial;&quot;&gt;ServiceLifetime lifetime)&lt;/span&gt;&lt;/p&gt;&lt;p style=&quot;margin:0px;margin-left:4px;&quot;&gt;11. Add(IServiceCollection collection, Type serviceType, Func&amp;lt;IServiceProvider, object&amp;gt; implementationFactory, ServiceLifetime lifetime)&lt;/p&gt;&lt;p style=&quot;margin:0px;margin-left:4px;&quot;&gt;&lt;br&gt;&lt;/p&gt;&lt;p style=&quot;margin:0px;margin-left:4px;&quot;&gt;&lt;br&gt;&lt;/p&gt;&lt;p style=&quot;margin:0px;margin-left:4px;&quot;&gt;&lt;span style=&quot;background-color: initial;&quot;&gt;AddKLt(Type serviceType, object? serviceKey, Type implementationType)&lt;/span&gt;&lt;/p&gt;&lt;p style=&quot;margin:0px;margin-left:4px;&quot;&gt;&lt;br&gt;&lt;/p&gt;&lt;p style=&quot;margin:0px;margin-left:4px;&quot;&gt;&lt;span style=&quot;background-color: initial;&quot;&gt;&lt;br&gt;&lt;/span&gt;&lt;/p&gt;&lt;p style=&quot;margin:0px;margin-left:4px;&quot;&gt;&lt;span style=&quot;background-color: initial;&quot;&gt;AddKLt(Type serviceType,&amp;nbsp;object? serviceKey,&amp;nbsp;Func&amp;lt;IServiceProvider, object?, object&amp;gt; implementationFactory)&lt;/span&gt;&lt;/p&gt;&lt;p style=&quot;margin:0px;margin-left:4px;&quot;&gt;&lt;span style=&quot;background-color: initial;&quot;&gt;AddKLt&lt;/span&gt;&lt;span style=&quot;background-color: initial;&quot;&gt;&amp;lt;TService,&amp;nbsp;&lt;/span&gt;&lt;span style=&quot;background-color: initial;&quot;&gt;TImplementation&amp;gt;&lt;/span&gt;&lt;span style=&quot;background-color: initial;&quot;&gt;(&lt;/span&gt;&lt;span style=&quot;background-color: initial;&quot;&gt;object? serviceKey)&lt;/span&gt;&lt;/p&gt;&lt;p style=&quot;margin:0px;margin-left:4px;&quot;&gt;&lt;span style=&quot;background-color: initial;&quot;&gt;AddKLt(&lt;/span&gt;&lt;span style=&quot;background-color: initial;&quot;&gt;Type serviceType,&amp;nbsp;&lt;/span&gt;&lt;span style=&quot;background-color: initial;&quot;&gt;object? serviceKey)&lt;/span&gt;&lt;/p&gt;&lt;p style=&quot;margin:0px;margin-left:4px;&quot;&gt;&lt;span style=&quot;background-color: initial;&quot;&gt;AddKLt&amp;lt;&lt;/span&gt;&lt;span style=&quot;background-color: initial;&quot;&gt;TService&amp;gt;&lt;/span&gt;&lt;span style=&quot;background-color: initial;&quot;&gt;(&lt;/span&gt;&lt;span style=&quot;background-color: initial;&quot;&gt;object? serviceKey)&lt;/span&gt;&lt;/p&gt;&lt;p style=&quot;margin:0px;margin-left:4px;&quot;&gt;&lt;span style=&quot;background-color: initial;&quot;&gt;AddKLt&amp;lt;TService&amp;gt;(&lt;/span&gt;&lt;span style=&quot;background-color: initial;&quot;&gt;object? serviceKey,&amp;nbsp;&lt;/span&gt;&lt;span style=&quot;background-color: initial;&quot;&gt;Func&amp;lt;IServiceProvider, object?, TService&amp;gt; implementationFactory)&lt;/span&gt;&lt;/p&gt;&lt;p style=&quot;margin:0px;margin-left:4px;&quot;&gt;&lt;span style=&quot;background-color: initial;&quot;&gt;AddKLt&amp;lt;TService, TImplementation&amp;gt;(&lt;/span&gt;&lt;span style=&quot;background-color: initial;&quot;&gt;object? serviceKey,&amp;nbsp;&lt;/span&gt;&lt;span style=&quot;background-color: initial;&quot;&gt;Func&amp;lt;IServiceProvider, object?, TImplementation&amp;gt; implementationFactory)&lt;/span&gt;&lt;/p&gt;&lt;p style=&quot;margin:0px;margin-left:4px;&quot;&gt;&lt;br&gt;&lt;/p&gt;&lt;p style=&quot;margin:0px;margin-left:4px;&quot;&gt;&lt;span style=&quot;background-color: initial;&quot;&gt;AddKeyedSingleton(&lt;/span&gt;&lt;span style=&quot;background-color: initial;&quot;&gt;Type serviceType,&amp;nbsp;&lt;/span&gt;&lt;span style=&quot;background-color: initial;&quot;&gt;object? serviceKey,&amp;nbsp;&lt;/span&gt;&lt;span style=&quot;background-color: initial;&quot;&gt;object implementationInstance)&lt;/span&gt;&lt;/p&gt;&lt;p style=&quot;margin:0px;margin-left:4px;&quot;&gt;&lt;span style=&quot;background-color: initial;&quot;&gt;AddKeyedSingleton&amp;lt;TService&amp;gt;(&lt;/span&gt;&lt;span style=&quot;background-color: initial;&quot;&gt;object? serviceKey,&amp;nbsp;&lt;/span&gt;&lt;span style=&quot;background-color: initial;&quot;&gt;TService implementationInstance&lt;/span&gt;&lt;span style=&quot;background-color: initial;&quot;&gt;)&lt;/span&gt;&lt;/p&gt;&lt;p style=&quot;margin:0px;margin-left:4px;&quot;&gt;&lt;span style=&quot;background-color: initial;&quot;&gt;&lt;br&gt;&lt;/span&gt;&lt;/p&gt;&lt;p style=&quot;margin:0px;margin-left:4px;&quot;&gt;&lt;span style=&quot;background-color: initial;&quot;&gt;-&amp;nbsp;&lt;/span&gt;&lt;span style=&quot;background-color: initial;&quot;&gt;AddKeyed(&lt;/span&gt;&lt;span style=&quot;background-color: initial;&quot;&gt;Type serviceType,&amp;nbsp;&lt;/span&gt;&lt;span style=&quot;background-color: initial;&quot;&gt;object? serviceKey,&amp;nbsp;&lt;/span&gt;&lt;span style=&quot;background-color: initial;&quot;&gt;Type implementationType,&amp;nbsp;&lt;/span&gt;&lt;span style=&quot;background-color: initial;&quot;&gt;ServiceLifetime lifetime&lt;/span&gt;&lt;span style=&quot;background-color: initial;&quot;&gt;)&lt;/span&gt;&lt;/p&gt;&lt;p style=&quot;margin:0px;margin-left:4px;&quot;&gt;&lt;span style=&quot;background-color: initial;&quot;&gt;- AddKeyed(&lt;/span&gt;&lt;span style=&quot;background-color: initial;&quot;&gt;Type serviceType,&amp;nbsp;&lt;/span&gt;&lt;span style=&quot;background-color: initial;&quot;&gt;object? serviceKey,&amp;nbsp;&lt;/span&gt;&lt;span style=&quot;background-color: initial;&quot;&gt;Func&amp;lt;IServiceProvider, object?, object&amp;gt; implementationFactory,&amp;nbsp;&lt;/span&gt;&lt;span style=&quot;background-color: initial;&quot;&gt;ServiceLifetime lifetime&lt;/span&gt;&lt;span style=&quot;background-color: initial;&quot;&gt;)&lt;/span&gt;&lt;/p&gt;" style="verticalAlign=top;align=left;overflow=fill;html=1;whiteSpace=wrap;" parent="1" vertex="1">
          <mxGeometry x="-160" y="190" width="740" height="580" as="geometry" />
        </mxCell>
        <mxCell id="yJTPVGBsh5Qsmxd7qHfu-1" value="&lt;p style=&quot;margin:0px;margin-top:4px;text-align:center;&quot;&gt;&lt;i&gt;&amp;lt;&amp;lt;Interface&amp;gt;&amp;gt;&lt;/i&gt;&lt;br&gt;&lt;span style=&quot;background-color: initial; text-align: left;&quot;&gt;&lt;b&gt;IServiceProvider&lt;/b&gt;&lt;/span&gt;&lt;/p&gt;&lt;hr size=&quot;1&quot; style=&quot;border-style:solid;&quot;&gt;&lt;p style=&quot;margin:0px;margin-left:4px;&quot;&gt;GetService(Type serviceType):&amp;nbsp;&lt;span style=&quot;background-color: initial;&quot;&gt;&lt;i&gt;object?&lt;/i&gt;&lt;/span&gt;&lt;/p&gt;&lt;p style=&quot;margin:0px;margin-left:4px;&quot;&gt;&lt;span style=&quot;background-color: initial;&quot;&gt;&lt;br&gt;&lt;/span&gt;&lt;/p&gt;" style="verticalAlign=top;align=left;overflow=fill;html=1;whiteSpace=wrap;" parent="1" vertex="1">
          <mxGeometry x="1200" y="320" width="220" height="80" as="geometry" />
        </mxCell>
        <mxCell id="yJTPVGBsh5Qsmxd7qHfu-2" value="&lt;p style=&quot;margin:0px;margin-top:4px;text-align:center;&quot;&gt;&lt;span style=&quot;background-color: initial; text-align: left;&quot;&gt;&lt;b&gt;ServiceProvider&lt;/b&gt;&lt;/span&gt;&lt;/p&gt;&lt;hr size=&quot;1&quot; style=&quot;border-style:solid;&quot;&gt;&lt;p style=&quot;margin:0px;margin-left:4px;&quot;&gt;~Root:&amp;nbsp;ServiceProviderEngineScope&lt;/p&gt;&lt;p style=&quot;margin:0px;margin-left:4px;&quot;&gt;&lt;br&gt;&lt;/p&gt;&lt;p style=&quot;margin:0px;margin-left:4px;&quot;&gt;GetService(Type serviceType):&amp;nbsp;object?&lt;/p&gt;&lt;p style=&quot;margin:0px;margin-left:4px;&quot;&gt;&lt;span style=&quot;background-color: initial;&quot;&gt;GetKeyedService(Type serviceType, object? serviceKey):&amp;nbsp;&lt;/span&gt;&lt;span style=&quot;background-color: initial;&quot;&gt;object?&lt;/span&gt;&lt;/p&gt;&lt;p style=&quot;margin:0px;margin-left:4px;&quot;&gt;&lt;span style=&quot;background-color: initial;&quot;&gt;GetRequiredKeyedService():&amp;nbsp;&lt;/span&gt;&lt;span style=&quot;background-color: initial;&quot;&gt;object&lt;/span&gt;&lt;/p&gt;&lt;p style=&quot;margin:0px;margin-left:4px;&quot;&gt;&lt;span style=&quot;background-color: initial;&quot;&gt;IsDisposed(): void&lt;/span&gt;&lt;/p&gt;&lt;p style=&quot;margin:0px;margin-left:4px;&quot;&gt;&lt;span style=&quot;background-color: initial;&quot;&gt;Dispose(): void&lt;/span&gt;&lt;/p&gt;&lt;p style=&quot;margin:0px;margin-left:4px;&quot;&gt;&lt;span style=&quot;background-color: initial;&quot;&gt;DisposeAsync():&amp;nbsp;&lt;/span&gt;&lt;span style=&quot;background-color: initial;&quot;&gt;ValueTask&lt;/span&gt;&lt;/p&gt;&lt;p style=&quot;margin:0px;margin-left:4px;&quot;&gt;&lt;span style=&quot;background-color: initial;&quot;&gt;DisposeCore():&amp;nbsp;&lt;/span&gt;&lt;span style=&quot;background-color: initial;&quot;&gt;void&lt;/span&gt;&lt;/p&gt;&lt;p style=&quot;margin:0px;margin-left:4px;&quot;&gt;&lt;span style=&quot;background-color: initial;&quot;&gt;OnCreate():&amp;nbsp;&lt;/span&gt;&lt;span style=&quot;background-color: initial;&quot;&gt;void&lt;/span&gt;&lt;/p&gt;&lt;p style=&quot;margin:0px;margin-left:4px;&quot;&gt;&lt;span style=&quot;background-color: initial;&quot;&gt;OnResolve(): void&lt;/span&gt;&lt;/p&gt;&lt;p style=&quot;margin:0px;margin-left:4px;&quot;&gt;&lt;span style=&quot;background-color: initial;&quot;&gt;- ValidateService(): void&lt;/span&gt;&lt;/p&gt;&lt;p style=&quot;margin:0px;margin-left:4px;&quot;&gt;&lt;span style=&quot;background-color: initial;&quot;&gt;- CreateServiceAccessor():&amp;nbsp;&lt;/span&gt;&lt;span style=&quot;background-color: initial;&quot;&gt;ServiceAccessor&lt;/span&gt;&lt;/p&gt;&lt;p style=&quot;margin:0px;margin-left:4px;&quot;&gt;&lt;span style=&quot;background-color: initial;&quot;&gt;ReplaceServiceAccessor():&amp;nbsp;&lt;/span&gt;&lt;span style=&quot;background-color: initial;&quot;&gt;void&lt;/span&gt;&lt;/p&gt;&lt;p style=&quot;margin:0px;margin-left:4px;&quot;&gt;&lt;span style=&quot;background-color: initial;&quot;&gt;CreateScope():&amp;nbsp;&lt;/span&gt;&lt;span style=&quot;background-color: initial;&quot;&gt;IServiceScope&lt;/span&gt;&lt;/p&gt;&lt;p style=&quot;margin:0px;margin-left:4px;&quot;&gt;&lt;span style=&quot;background-color: initial;&quot;&gt;GetEngine():&amp;nbsp;&lt;/span&gt;&lt;span style=&quot;background-color: initial;&quot;&gt;ServiceProviderEngine&lt;/span&gt;&lt;/p&gt;&lt;p style=&quot;margin:0px;margin-left:4px;&quot;&gt;&lt;span style=&quot;background-color: initial;&quot;&gt;&lt;br&gt;&lt;/span&gt;&lt;/p&gt;&lt;p style=&quot;margin:0px;margin-left:4px;&quot;&gt;&lt;span style=&quot;background-color: initial;&quot;&gt;&lt;br&gt;&lt;/span&gt;&lt;/p&gt;" style="verticalAlign=top;align=left;overflow=fill;html=1;whiteSpace=wrap;" parent="1" vertex="1">
          <mxGeometry x="720" y="560" width="360" height="260" as="geometry" />
        </mxCell>
        <mxCell id="yJTPVGBsh5Qsmxd7qHfu-3" value="" style="endArrow=block;dashed=1;endFill=0;endSize=12;html=1;rounded=0;entryX=0.5;entryY=1;entryDx=0;entryDy=0;exitX=0.25;exitY=0;exitDx=0;exitDy=0;" parent="1" source="yJTPVGBsh5Qsmxd7qHfu-2" target="HWpaIws8z6iJydW3ixtV-7" edge="1">
          <mxGeometry width="160" relative="1" as="geometry">
            <mxPoint x="910" y="480" as="sourcePoint" />
            <mxPoint x="910" y="410" as="targetPoint" />
          </mxGeometry>
        </mxCell>
        <mxCell id="yJTPVGBsh5Qsmxd7qHfu-4" value="" style="endArrow=block;dashed=1;endFill=0;endSize=12;html=1;rounded=0;entryX=0.5;entryY=1;entryDx=0;entryDy=0;exitX=0.75;exitY=0;exitDx=0;exitDy=0;" parent="1" source="yJTPVGBsh5Qsmxd7qHfu-2" target="yJTPVGBsh5Qsmxd7qHfu-1" edge="1">
          <mxGeometry width="160" relative="1" as="geometry">
            <mxPoint x="1050" y="500" as="sourcePoint" />
            <mxPoint x="1050" y="430" as="targetPoint" />
          </mxGeometry>
        </mxCell>
        <mxCell id="yJTPVGBsh5Qsmxd7qHfu-6" value="&lt;p style=&quot;margin:0px;margin-top:4px;text-align:center;&quot;&gt;&lt;span style=&quot;background-color: initial; text-align: left;&quot;&gt;&lt;b&gt;ServiceProviderOptions&lt;/b&gt;&lt;/span&gt;&lt;/p&gt;&lt;hr size=&quot;1&quot; style=&quot;border-style:solid;&quot;&gt;&lt;p style=&quot;margin:0px;margin-left:4px;&quot;&gt;Default: ServiceProviderOptions&amp;nbsp;&lt;/p&gt;&lt;p style=&quot;margin:0px;margin-left:4px;&quot;&gt;&lt;span style=&quot;background-color: initial;&quot;&gt;ValidateScopes: bool&lt;/span&gt;&lt;/p&gt;&lt;p style=&quot;margin:0px;margin-left:4px;&quot;&gt;&lt;span style=&quot;background-color: initial;&quot;&gt;ValidateOnBuild: bool&lt;/span&gt;&lt;/p&gt;" style="verticalAlign=top;align=left;overflow=fill;html=1;whiteSpace=wrap;" parent="1" vertex="1">
          <mxGeometry x="-870" y="280" width="190" height="80" as="geometry" />
        </mxCell>
        <mxCell id="yJTPVGBsh5Qsmxd7qHfu-8" value="&lt;p style=&quot;margin:0px;margin-top:4px;text-align:center;&quot;&gt;&lt;span style=&quot;background-color: initial; text-align: left;&quot;&gt;&lt;b&gt;ServiceCollectionContainerBuilderExtensions&lt;/b&gt;&lt;/span&gt;&lt;/p&gt;&lt;hr size=&quot;1&quot; style=&quot;border-style:solid;&quot;&gt;&lt;p style=&quot;margin:0px;margin-left:4px;&quot;&gt;BuildServiceProvider():&amp;nbsp;&lt;i&gt;ServiceProvider&lt;/i&gt;&lt;/p&gt;&lt;p style=&quot;margin:0px;margin-left:4px;&quot;&gt;&lt;span style=&quot;background-color: initial;&quot;&gt;BuildServiceProvider(bool validateScopes):&amp;nbsp;&lt;/span&gt;&lt;span style=&quot;background-color: initial;&quot;&gt;&lt;i&gt;ServiceProvider&lt;/i&gt;&lt;/span&gt;&lt;/p&gt;&lt;p style=&quot;margin:0px;margin-left:4px;&quot;&gt;&lt;span style=&quot;background-color: initial;&quot;&gt;BuildServiceProvider(ServiceProviderOptions options):&lt;i&gt;&amp;nbsp;&lt;/i&gt;&lt;/span&gt;&lt;i style=&quot;background-color: initial;&quot;&gt;ServiceProvider&lt;/i&gt;&lt;/p&gt;&lt;p style=&quot;margin:0px;margin-left:4px;&quot;&gt;&lt;span style=&quot;background-color: initial;&quot;&gt;&lt;i&gt;&lt;br&gt;&lt;/i&gt;&lt;/span&gt;&lt;/p&gt;&lt;p style=&quot;margin:0px;margin-left:4px;&quot;&gt;&lt;span style=&quot;background-color: initial;&quot;&gt;&lt;i&gt;&lt;br&gt;&lt;/i&gt;&lt;/span&gt;&lt;/p&gt;&lt;p style=&quot;margin:0px;margin-left:4px;&quot;&gt;&lt;span style=&quot;background-color: initial;&quot;&gt;&lt;i&gt;&lt;br&gt;&lt;/i&gt;&lt;/span&gt;&lt;/p&gt;" style="verticalAlign=top;align=left;overflow=fill;html=1;whiteSpace=wrap;" parent="1" vertex="1">
          <mxGeometry x="-870" y="190" width="390" height="80" as="geometry" />
        </mxCell>
        <mxCell id="yJTPVGBsh5Qsmxd7qHfu-9" value="" style="endArrow=diamondThin;endFill=1;endSize=24;html=1;rounded=0;entryX=0;entryY=0;entryDx=0;entryDy=0;exitX=1;exitY=0;exitDx=0;exitDy=0;" parent="1" source="yJTPVGBsh5Qsmxd7qHfu-8" target="HWpaIws8z6iJydW3ixtV-1" edge="1">
          <mxGeometry width="160" relative="1" as="geometry">
            <mxPoint x="-510" y="100" as="sourcePoint" />
            <mxPoint x="-570" y="100" as="targetPoint" />
          </mxGeometry>
        </mxCell>
        <mxCell id="xGucwqnyv_QIpYeZ69T7-1" value="&lt;i&gt;&amp;lt;&amp;lt;Interface&amp;gt;&amp;gt;&lt;/i&gt;&lt;br&gt;&lt;span style=&quot;background-color: initial; text-align: left;&quot;&gt;&lt;b&gt;IServiceProvider&lt;/b&gt;&lt;/span&gt;" style="shape=umlLifeline;perimeter=lifelinePerimeter;whiteSpace=wrap;html=1;container=1;dropTarget=0;collapsible=0;recursiveResize=0;outlineConnect=0;portConstraint=eastwest;newEdgeStyle={&quot;curved&quot;:0,&quot;rounded&quot;:0};" vertex="1" parent="1">
          <mxGeometry x="1480" y="320" width="130" height="520" as="geometry" />
        </mxCell>
        <mxCell id="xGucwqnyv_QIpYeZ69T7-2" value="&lt;p style=&quot;margin:0px;margin-top:4px;text-align:center;&quot;&gt;&lt;i&gt;&amp;lt;&amp;lt;Interface&amp;gt;&amp;gt;&lt;/i&gt;&lt;br&gt;&lt;span style=&quot;background-color: initial; text-align: left;&quot;&gt;&lt;b&gt;IServiceProvider&lt;/b&gt;&lt;/span&gt;&lt;/p&gt;&lt;hr size=&quot;1&quot; style=&quot;border-style:solid;&quot;&gt;&lt;p style=&quot;margin:0px;margin-left:4px;&quot;&gt;GetService(Type serviceType):&amp;nbsp;&lt;span style=&quot;background-color: initial;&quot;&gt;&lt;i&gt;object?&lt;/i&gt;&lt;/span&gt;&lt;/p&gt;&lt;p style=&quot;margin:0px;margin-left:4px;&quot;&gt;&lt;span style=&quot;background-color: initial;&quot;&gt;&lt;br&gt;&lt;/span&gt;&lt;/p&gt;" style="verticalAlign=top;align=left;overflow=fill;html=1;whiteSpace=wrap;" vertex="1" parent="1">
          <mxGeometry x="1640" y="380" width="220" height="80" as="geometry" />
        </mxCell>
        <mxCell id="xGucwqnyv_QIpYeZ69T7-3" value="" style="endArrow=diamondThin;endFill=1;endSize=24;html=1;rounded=0;entryX=0;entryY=0;entryDx=0;entryDy=0;" edge="1" parent="1" source="xGucwqnyv_QIpYeZ69T7-1" target="xGucwqnyv_QIpYeZ69T7-2">
          <mxGeometry width="160" relative="1" as="geometry">
            <mxPoint x="1600" y="620" as="sourcePoint" />
            <mxPoint x="1760" y="620" as="targetPoint" />
          </mxGeometry>
        </mxCell>
        <mxCell id="xGucwqnyv_QIpYeZ69T7-4" value="&lt;p style=&quot;margin:0px;margin-top:4px;text-align:center;&quot;&gt;&lt;span style=&quot;background-color: transparent; text-align: left;&quot;&gt;&lt;font style=&quot;color: rgb(0, 0, 0);&quot;&gt;&lt;b&gt;ServiceProviderServiceExtensions&lt;/b&gt;&lt;/font&gt;&lt;/span&gt;&lt;/p&gt;&lt;hr size=&quot;1&quot; style=&quot;border-style:solid;&quot;&gt;&lt;p style=&quot;margin:0px;margin-left:4px;&quot;&gt;&lt;span style=&quot;color: rgb(25, 25, 112); font-weight: bold;&quot;&gt;GetService&lt;/span&gt;&amp;lt;T&amp;gt;(): T&lt;/p&gt;&lt;p style=&quot;margin:0px;margin-left:4px;&quot;&gt;&lt;span style=&quot;color: rgb(25, 25, 112); font-weight: bold;&quot;&gt;GetRequiredService&lt;/span&gt;(&lt;span style=&quot;color: rgb(0, 64, 133);&quot;&gt;Type&lt;/span&gt; serviceType):&amp;nbsp;&lt;span style=&quot;color: rgb(255, 0, 0); background-color: transparent;&quot;&gt;object&lt;/span&gt;&lt;/p&gt;&lt;p style=&quot;margin:0px;margin-left:4px;&quot;&gt;&lt;span style=&quot;color: rgb(25, 25, 112); font-weight: bold;&quot;&gt;GetRequiredService&lt;/span&gt;&amp;lt;T&amp;gt;(): T&lt;span style=&quot;color: rgb(255, 0, 0); background-color: transparent;&quot;&gt;&lt;/span&gt;&lt;/p&gt;&lt;p style=&quot;margin:0px;margin-left:4px;&quot;&gt;&lt;span style=&quot;color: rgb(25, 25, 112); font-weight: bold;&quot;&gt;GetServices&lt;/span&gt;&amp;lt;T&amp;gt;():&amp;nbsp;&lt;span style=&quot;background-color: transparent; color: rgb(0, 64, 133);&quot;&gt;IEnumerable&lt;/span&gt;&lt;span style=&quot;background-color: transparent; color: light-dark(rgb(0, 0, 0), rgb(255, 255, 255));&quot;&gt;&amp;lt;T&amp;gt;&lt;/span&gt;&lt;/p&gt;&lt;p style=&quot;margin:0px;margin-left:4px;&quot;&gt;&lt;span style=&quot;color: rgb(25, 25, 112); font-weight: bold;&quot;&gt;GetServices&lt;/span&gt;(&lt;span style=&quot;color: rgb(0, 64, 133);&quot;&gt;Type&lt;/span&gt; serviceType):&amp;nbsp;&lt;span style=&quot;background-color: transparent; color: light-dark(rgb(0, 0, 0), rgb(255, 255, 255));&quot;&gt;&lt;/span&gt;&lt;span style=&quot;background-color: transparent; color: rgb(0, 64, 133);&quot;&gt;IEnumerable&lt;/span&gt;&lt;span style=&quot;background-color: transparent; color: light-dark(rgb(0, 0, 0), rgb(255, 255, 255));&quot;&gt;&amp;lt;&lt;/span&gt;&lt;span style=&quot;background-color: transparent; color: rgb(255, 0, 0);&quot;&gt;object&lt;/span&gt;&lt;span style=&quot;background-color: transparent; color: light-dark(rgb(0, 0, 0), rgb(255, 255, 255));&quot;&gt;?&amp;gt;&lt;/span&gt;&lt;/p&gt;&lt;p style=&quot;margin:0px;margin-left:4px;&quot;&gt;&lt;span style=&quot;color: rgb(25, 25, 112); font-weight: bold;&quot;&gt;CreateScope():&amp;nbsp;&lt;/span&gt;&lt;span style=&quot;background-color: transparent; color: light-dark(rgb(0, 0, 0), rgb(255, 255, 255));&quot;&gt;&lt;/span&gt;&lt;span style=&quot;color: rgb(0, 64, 133); background-color: transparent;&quot;&gt;IServiceScope&lt;/span&gt;&lt;/p&gt;&lt;p style=&quot;margin:0px;margin-left:4px;&quot;&gt;&lt;span style=&quot;color: rgb(0, 64, 133); background-color: transparent;&quot;&gt;&lt;span style=&quot;color: rgb(25, 25, 112); font-weight: bold;&quot;&gt;CreateAsyncScope():&amp;nbsp;&lt;/span&gt;&lt;/span&gt;&lt;span style=&quot;color: rgb(0, 64, 133); font-weight: bold; background-color: transparent;&quot;&gt;AsyncServiceScope&lt;/span&gt;&lt;/p&gt;&lt;p style=&quot;margin:0px;margin-left:4px;&quot;&gt;&lt;span style=&quot;color: rgb(0, 64, 133); font-weight: bold; background-color: transparent;&quot;&gt;&lt;br&gt;&lt;/span&gt;&lt;/p&gt;&lt;p style=&quot;margin:0px;margin-left:4px;&quot;&gt;&lt;span style=&quot;background-color: initial;&quot;&gt;&lt;br&gt;&lt;/span&gt;&lt;/p&gt;" style="verticalAlign=top;align=left;overflow=fill;html=1;whiteSpace=wrap;" vertex="1" parent="1">
          <mxGeometry x="1640" y="520" width="310" height="140" as="geometry" />
        </mxCell>
        <mxCell id="xGucwqnyv_QIpYeZ69T7-5" value="" style="endArrow=diamondThin;endFill=1;endSize=24;html=1;rounded=0;entryX=0;entryY=0;entryDx=0;entryDy=0;" edge="1" parent="1" source="xGucwqnyv_QIpYeZ69T7-1" target="xGucwqnyv_QIpYeZ69T7-4">
          <mxGeometry width="160" relative="1" as="geometry">
            <mxPoint x="1360" y="550" as="sourcePoint" />
            <mxPoint x="1455" y="550" as="targetPoint" />
          </mxGeometry>
        </mxCell>
      </root>
    </mxGraphModel>
  </diagram>
</mxfile>
